/* XPM */
static char *d5f85b96154342e9c09764c8b0421bab[] = {
/* columns rows colors chars-per-pixel */
"51 53 256 2 ",
"   c #010000",
".  c #0B0000",
"X  c #130200",
"o  c #1C0400",
"O  c #160E06",
"+  c #1B0C01",
"@  c #160F09",
"#  c #1B1106",
"$  c #1C130A",
"%  c #171008",
"&  c #220D00",
"*  c #290B00",
"=  c #241301",
"-  c #2B1500",
";  c #2D1900",
":  c #22160B",
">  c #2B1B0B",
",  c #25180C",
"<  c #311400",
"1  c #341D01",
"2  c #3A1C00",
"3  c #301D0C",
"4  c #251C13",
"5  c #2A1E13",
"6  c #3B2400",
"7  c #39250B",
"8  c #2B2114",
"9  c #2C231A",
"0  c #382817",
"q  c #2F200D",
"w  c #3C2E21",
"e  c #421E00",
"r  c #412300",
"t  c #432B02",
"y  c #4B2C01",
"u  c #442D0B",
"i  c #4C3204",
"p  c #4A330C",
"a  c #543402",
"s  c #593701",
"d  c #5D3C02",
"f  c #543A0C",
"g  c #59390C",
"h  c #432F1A",
"j  c #452D14",
"k  c #4C3215",
"l  c #46311A",
"z  c #4B351D",
"x  c #543D14",
"c  c #5C3C13",
"v  c #51361B",
"b  c #543A1E",
"n  c #5A3D1C",
"m  c #563512",
"M  c #592E00",
"N  c #623C01",
"B  c #653600",
"V  c #613E16",
"C  c #443424",
"Z  c #4B3722",
"A  c #4D3A22",
"S  c #4C3B29",
"D  c #423629",
"F  c #543D22",
"G  c #593E23",
"H  c #523E2A",
"J  c #5D430E",
"K  c #594218",
"L  c #634203",
"P  c #6A4705",
"I  c #7C540A",
"U  c #7B5104",
"Y  c #62431B",
"T  c #6C4E1A",
"R  c #684717",
"E  c #72541C",
"W  c #7D5B1C",
"Q  c #795617",
"!  c #734B03",
"~  c #564024",
"^  c #5C4225",
"/  c #5C442A",
"(  c #54422C",
")  c #5C4834",
"_  c #624424",
"`  c #624629",
"'  c #64492C",
"]  c #6A4C2B",
"[  c #6D4B25",
"{  c #704F2B",
"}  c #734F22",
"|  c #6D5129",
" . c #725124",
".. c #74522D",
"X. c #7C5728",
"o. c #654C35",
"O. c #6C5134",
"+. c #665136",
"@. c #755432",
"#. c #785732",
"$. c #7C5A34",
"%. c #75593D",
"&. c #755E46",
"*. c #6E5840",
"=. c #835A0C",
"-. c #895C0C",
";. c #855806",
":. c #955D00",
">. c #825C13",
",. c #835C1C",
"<. c #875B16",
"1. c #8C610C",
"2. c #93640C",
"3. c #96680E",
"4. c #9A6A0C",
"5. c #986305",
"6. c #8D6313",
"7. c #8C641C",
"8. c #956A15",
"9. c #9A6B14",
"0. c #946A1A",
"q. c #936611",
"w. c #9F7110",
"e. c #A47314",
"r. c #A2741C",
"t. c #AB7818",
"y. c #B27E1A",
"u. c #A77110",
"i. c #825D27",
"p. c #825E34",
"a. c #856222",
"s. c #8B6623",
"d. c #8C6627",
"f. c #946C27",
"g. c #9B7225",
"h. c #856134",
"j. c #8B6334",
"k. c #8B663B",
"l. c #88653B",
"z. c #946A3B",
"x. c #966B3A",
"c. c #99743D",
"v. c #A87928",
"b. c #A57A3E",
"n. c #B07D21",
"m. c #866B4D",
"M. c #866440",
"N. c #976E41",
"B. c #987446",
"V. c #886D51",
"C. c #8D7252",
"Z. c #8A7759",
"A. c #957958",
"S. c #A37542",
"D. c #AD7A43",
"F. c #A67B48",
"G. c #B6821B",
"H. c #BB8A29",
"J. c #B68936",
"K. c #B08734",
"L. c #C98D19",
"P. c #D89618",
"I. c #CE9019",
"U. c #EB9F0D",
"Y. c #EDA312",
"T. c #ECA71B",
"R. c #F5AB13",
"E. c #F3AB1C",
"W. c #F5A913",
"Q. c #F5B215",
"!. c #F4B21B",
"~. c #F9B414",
"^. c #C28C25",
"/. c #C79229",
"(. c #D49B2D",
"). c #D99C25",
"_. c #D29C38",
"`. c #C99634",
"'. c #D9A437",
"]. c #DBA426",
"[. c #EEAB25",
"{. c #E8A92B",
"}. c #F2AD25",
"|. c #F0AD2A",
" X c #EEB32C",
".X c #EFB023",
"XX c #F3B322",
"oX c #F4B729",
"OX c #E4AA37",
"+X c #EBB239",
"@X c #F2B432",
"#X c #F1B737",
"$X c #F0AF31",
"%X c #A98549",
"&X c #B3834A",
"*X c #BB864B",
"=X c #B88848",
"-X c #AC8355",
";X c #A88556",
":X c #B58957",
">X c #BC935D",
",X c #B89669",
"<X c #A88764",
"1X c #C38E4D",
"2X c #C28D47",
"3X c #C4914A",
"4X c #C18C55",
"5X c #CA9757",
"6X c #D39A5A",
"7X c #DAA65D",
"8X c #F5BE4A",
"9X c #E4B04F",
"0X c #C89C66",
"qX c #D79F62",
"wX c #CCA168",
"eX c #DAA762",
"rX c #DEAB63",
"tX c #D5A96C",
"yX c #C7A677",
"uX c #D6AB74",
"iX c #DBB478",
"pX c #E3AE64",
"aX c #EBB56A",
"sX c #ECBC6D",
"dX c #E4B566",
"fX c #F1B66C",
"gX c #F2BB6D",
"hX c #F2BC65",
"jX c #EDBC72",
"kX c #E3B57A",
"lX c #EDBD7D",
"zX c #E5B676",
"xX c #F2BC72",
"cX c #F3BE7A",
"vX c #F8BF72",
"bX c #E0AF75",
"nX c #F7C667",
"mX c #FAC869",
"MX c #F5C375",
"NX c #FAC474",
"BX c #FECB74",
"VX c #F4C47B",
"CX c #F9C57A",
"ZX c #FAC97D",
"AX c #F6CD7B",
"SX c #F2CB7E",
"DX c #D8B685",
"FX c #EABC83",
"GX c #ECC385",
"HX c #E8C289",
"JX c #F2C583",
"KX c #F4CA81",
"LX c #FACB83",
"PX c #F6CA88",
"IX c #FED281",
"UX c #F1CC95",
/* pixels */
"                                                        .                                             ",
"                                            + - = = = & = . .                                         ",
"                                      . 3 ] -XDXuX,XuXuXyXl.O.7                                       ",
"                                  . 7 C.DXFXVXVXLXxXpXLXFXGXUXyXZ.% .                                 ",
"                                . ~ iXAXAXAXdXvXCXCXaXrXCXjXLXPXHX,X( .                               ",
"                              . ~ iXMXnXmXBXNXaXZXMXZXjXpXVXsXSXAXGXDX( .                             ",
"                            . G DXSXmXnXmXBXAXtX0XwX0XuX0XtXLXjXVXLXHXHX) .                           ",
"                            l yXJXMXmXmXnXdXb.X.V f f K R h.0XKXsXAXAXHXyX#                           ",
"                          X ;XHXeXvXNXNXeXd. .x j j q 7 7 j R 4XJXjXMXKXHX+..                         ",
"                          = DXJXxXpXCXeXx. .^ l q , # # # > k [ tXIXsXAXUX,X=                         ",
"                          +.FXNXvXgXpXb. .` h , = $ % % % + 3 k c.zXAXsXIXDX=                         ",
"                        . B.lXNXvXvXbXj.G 7 > , $ $ % % % @ + < z.GXrXMXMXiX;                         ",
"                      X 2 =XZXhXNXCXbX .7 q $ $ % @ @ @ % @ + + k.UXMXdXKXSX%X= . .                   ",
"                  . + a K.7XvXNXhXCXtXa 1 5 , $ @ @ @ O @ @ O +  .JXIXsXdXIXAX%XJ X .                 ",
"                X ; a.K.H.9XaXgXNXgXbXR 1 , $ # @ @ @ O O O O o  .GXjXAXdXdX8X+X'.1.1 . .             ",
"              X x f.n.G.H.t.pXgXgXCXKXF.1 = , # O @ % @ O + + x tXjXMXmXAXnX8X X.X+XK.1 .             ",
"            X g g.u.u.t.v.<.6XJXfXxXZXzXk.< = # # @ % % + + K iXIXBXaXfXCXgX9X#XE.!.@XH.1 . .         ",
"          X f d.4.u.t.v.N e } bXcXfXfXCXbX;Xn ; & + + = ; x tXAXmXBXgXaXjX3XB 4.{.!.E. XJ.1 .         ",
"        X p s.4.4.u.,.e o ; m -XFXxXfXvXCXVXzXyXh. .c h.uXiXBXnXmXmXNXfXxXwX* o I OX!.Q. X^.2         ",
"        - a.9.4.9.<.2 X . 8 l m :XjXcXfXgXCXxXVXKXPXkXbXKXmXBXmXnXBXNX7XeXkX&.X X I OXXXQ.#XJ.6 X   . ",
"      + Q 0.3.8.,.2 X .   4 w j V F.bXcXfXfXNXaXMXxXCXaXrXVXMXnXmXsX2X*X1XkXA.. . X I '.}.!.+X8.X     ",
"    . u s.3.3.7.y o       : 0 z k c } :XFXcXjXcXMXMXvXZXjXdXIXMX6XJ.=X1X1XHXA..   . o I {.Q.Q.'.r .   ",
"    +  .6.-.7.i X         9 8 l z j k m j.0X0X6XlXVXJXbXbXwX:X%Xb.b.&X1XrXkXV..   . . - /.oXQ. Xg.X . ",
"    t W =.=.} : .         9 h q h C b b n V m R x.b.b.a.X.i.j.d.j.S.&X*XqXkXZ..       . P +XQ.!.'.t . ",
"  + T =.;.>.p X           9 C 0 0 F F F F b m _ Y Y [ [ X.#.p.i.z.N.D.6XqX0XC..       . = J.XX~.#X9.X ",
"  = Q 1.-.Q =             9 S C h F o.F F F G / G G o.] #.@.l.k.z.D.4XqX6X0Xm.X .       . L  X~.oX'.< ",
"X x >.;.<.c X             9 S Z h l o.k v v ^ G v _ ` ] #.{ #.j.x.D.4X6X5XFXC.X           t '.~.~.].r ",
"X Y 0.-.<.f X             9 S F A v z v v O./ G G ^ _ { { ....z.z.4X*X*X6XzXA.X           O w..XQ..X-.",
"t s.r.3.W <               8 S A A Z v F G ' / v b _ _ #.p.h.N.F.:XS.D.*X6XkXC.. .         X 3.@X~.!.5.",
"a f.e.3.W + .             5 S z z C h C G G F G ` { #.l.l.k.F.N.j.z.S.*X5XFXC..           X 8.@XR.E.5.",
"s f.4.3.Q &             . 9 S l j l l v H ^ b ^ &.@.M.M.p.#.p.#.j.z.S.&X1XuXm..           X 9.$XW.W.:.",
"a a.2.9.X.+               9 S Z h l l A H G b ^ _ n ' [ ....p.$.p.N.S.:XD.0X) . .         X 9.@XW.E.:.",
"y a.2.9.a.+               4 S F C l z F ~ F b ^ ^ b ] ] ] { ..#.p.z.S.S.F.,X:             X 8.$XW.W.5.",
"6 Q 3.3.a.1 .             $ S A z z ~ ~ F z b ^ ~ n ' _ @.{ #.p.p.j.z.F.:X<X&             X 3.|.W.E.5.",
"X J 9.4.7.f .             O S S A A ~ b F x ~ ` n ^ ' ] @.@.$.$.p.N.z.F.:XC.+             & y.}.W.}.q.",
"X Y g.4.1.J X             . 9 S z z A ~ F z ~ ~ b ` ' ] ] { $.$.p.z.N.-X<Xh .           . t OXY.W.).M ",
". 7 7.3.2.W #               @ D S z A A b z ^ ^ F G ` [ ] ..@.@.p.k.N.A.o.X           . X Q {.U.T.^.* ",
". + W 8.1.>.6                 # D A F ~ z z ^ ~ b ` ^ ] ......p.p.k.A.V., .             o J.}.U.OX;.o ",
"  . f s.-.=.R O                 @ D S F z F ~ ~ b ` ` { O.....p.$.M.&.5               X B _.E.Y.'.d X ",
"  . = E I ;.E i X                 O D S Z F ( H F ` ~ O.] O.O.%.*.S X               X < _.[.W.[.v.o   ",
"    . K 0.1.=.Q ; .                 . 8 w S ) ( H o.) +.+.*.+.S : X                 & g.{.W.E.(.a .   ",
"      # W 0.w.0.E ; .                   . $ , w D S D ( 0 > $ .                   X N OXE.W.{.q.o     ",
"      . 6 a.0.2.7.E -                     .   . . . . .   .                     X y /.T.Y.|.v.< .     ",
"        . t 7.6.1.>.T ; .                                                   . & L `.}.W.}.'.a X       ",
"        . . i a.1.=.>.E 1 X                                               X * v.+XE.W.[._.N X         ",
"            X p Q =.I I E x + .                                       X o d n.+XT.Y.[._.d X .         ",
"              O t E W I I W T t & X .                             X o s t.).}.E.T.{.J.a X .           ",
"                  ; T >.>.=.>.,.T Y 6 - + . . .   . .   . . X = r i.v.`.).T.XX}.(.q.< X               ",
"                  . # u T W >.-.6.6.7.7.>.L N g ; + & a P ! U r.^.(.P.P.P.{.OXH.y X X                 ",
"                      . = f E 7.6.q.9.e.r.r.r.v.7.a.0.v.H././.I.I.P.P.).(.^.I < X                     ",
"                          . + p E d.g.r.e.e.e.e.t.t.t.G.L.L.I.I.(._.J.7.a < X .                       ",
"                              X X 1 f P 7.0.0.9.t.G.y.y.y.y.n.n.U N r o .                             ",
"                                    X X + + < 6 y R N r r 1 - * X X X                                 "
};
