/* XPM */
static char *_483479920484[] = {
/* columns rows colors chars-per-pixel */
"51 55 233 2 ",
"   c #010000",
".  c #0B0000",
"X  c #130200",
"o  c #1A0400",
"O  c #140A03",
"+  c #1D0A01",
"@  c #170E08",
"#  c #1D120A",
"$  c #1D1007",
"%  c #240C00",
"&  c #2C0D00",
"*  c #2A0700",
"=  c #2C1301",
"-  c #22150D",
";  c #27190F",
":  c #2E190C",
">  c #281309",
",  c #321401",
"<  c #391700",
"1  c #341A04",
"2  c #3B1B03",
"3  c #341B0B",
"4  c #3A1E0B",
"5  c #311708",
"6  c #2B1C12",
"7  c #321E12",
"8  c #3C2100",
"9  c #3D210D",
"0  c #362000",
"q  c #342115",
"w  c #3D2312",
"e  c #3E291B",
"r  c #392518",
"t  c #431D02",
"y  c #411F0B",
"u  c #442401",
"i  c #4B2207",
"p  c #452900",
"a  c #4C2B00",
"s  c #42230E",
"d  c #4C270D",
"f  c #4F2A0F",
"g  c #512609",
"h  c #53290C",
"j  c #582B06",
"k  c #4F3100",
"l  c #533302",
"z  c #593300",
"x  c #5D3A01",
"c  c #563809",
"v  c #432612",
"b  c #4A2711",
"n  c #442815",
"m  c #4C2A13",
"M  c #452B19",
"N  c #492B19",
"B  c #542F14",
"V  c #572F17",
"C  c #59351D",
"Z  c #613C04",
"A  c #673301",
"S  c #713A00",
"D  c #623313",
"F  c #673A1A",
"G  c #6F3D1A",
"H  c #663818",
"J  c #7C3E13",
"K  c #533521",
"L  c #5B3A26",
"P  c #613D29",
"I  c #5F400A",
"U  c #664202",
"Y  c #6D4400",
"T  c #65450C",
"R  c #744C04",
"E  c #7F4E00",
"W  c #764406",
"Q  c #7C520A",
"!  c #76510D",
"~  c #6E4D13",
"^  c #654614",
"/  c #7D4115",
"(  c #7A431C",
")  c #7C5411",
"_  c #785518",
"`  c #5F402E",
"'  c #7B4623",
"]  c #7C4B2C",
"[  c #784623",
"{  c #774D33",
"}  c #7E5233",
"|  c #75522A",
" . c #824B01",
".. c #8E4E04",
"X. c #8E5D04",
"o. c #8C5D0A",
"O. c #84590F",
"+. c #85451A",
"@. c #89461B",
"#. c #85491C",
"$. c #8B4A1E",
"%. c #864616",
"&. c #924D1E",
"*. c #845C13",
"=. c #8A5D12",
"-. c #895A1B",
";. c #94541D",
":. c #95550E",
">. c #9D6C0E",
",. c #8C6213",
"<. c #8D651E",
"1. c #976A17",
"2. c #9E701A",
"3. c #A57417",
"4. c #A5761D",
"5. c #AB791A",
"6. c #B47E15",
"7. c #B57F1B",
"8. c #A36E0E",
"9. c #854B23",
"0. c #8C4D22",
"q. c #854D27",
"w. c #934E22",
"e. c #984F26",
"r. c #8F5122",
"t. c #85502A",
"y. c #8D522C",
"u. c #935125",
"i. c #9A5225",
"p. c #9C5429",
"a. c #9B582E",
"s. c #95562D",
"d. c #8C5B3C",
"f. c #865638",
"g. c #9B5C35",
"h. c #9C5E39",
"j. c #965B37",
"k. c #A35526",
"l. c #AA5826",
"z. c #A25629",
"x. c #A4592B",
"c. c #A95B2A",
"v. c #A25D31",
"b. c #A95F30",
"n. c #8D6622",
"m. c #8E692A",
"M. c #956B27",
"N. c #9D7223",
"B. c #98712B",
"V. c #966139",
"C. c #AC602F",
"Z. c #A57624",
"A. c #AB7C25",
"S. c #AA7C2D",
"D. c #A67927",
"F. c #A76133",
"G. c #AB7F34",
"H. c #9C6442",
"J. c #BD861A",
"K. c #BB8316",
"L. c #AE812C",
"P. c #BA8624",
"I. c #BE8924",
"U. c #B3822C",
"Y. c #BA892A",
"T. c #B7842A",
"R. c #B38533",
"E. c #B88A35",
"W. c #CB8B0D",
"Q. c #C68A15",
"!. c #CA8D14",
"~. c #C58B1C",
"^. c #C98D1A",
"/. c #C08412",
"(. c #CE9117",
"). c #D59313",
"_. c #D99613",
"`. c #DC9B1D",
"'. c #D6961B",
"]. c #DE990D",
"[. c #E39C0E",
"{. c #EA9F0E",
"}. c #E49E14",
"|. c #E29E1B",
" X c #EAA10E",
".X c #E7A013",
"XX c #ECA314",
"oX c #E5A11D",
"OX c #ECA51C",
"+X c #F1A514",
"@X c #F2A91C",
"#X c #F3AA15",
"$X c #F1A30D",
"%X c #C38D24",
"&X c #C38E2A",
"*X c #C18622",
"=X c #C7912F",
"-X c #CC942B",
";X c #CC9223",
":X c #D39625",
">X c #D69A25",
",X c #DD9E23",
"<X c #D49B2B",
"1X c #DA9D2B",
"2X c #D3962C",
"3X c #C28C35",
"4X c #CD9933",
"5X c #CA953C",
"6X c #C99437",
"7X c #D39B32",
"8X c #D49D3A",
"9X c #D09730",
"0X c #E29E23",
"qX c #DEA12C",
"wX c #DCA43B",
"eX c #DCA235",
"rX c #E4A224",
"tX c #EAA523",
"yX c #EDAA24",
"uX c #E3A32B",
"iX c #EDAA2B",
"pX c #E8A62B",
"aX c #F2AB23",
"sX c #F1AE29",
"dX c #E7A931",
"fX c #E6A837",
"gX c #EEB134",
"hX c #BE8C43",
"jX c #C99642",
"kX c #C28D47",
"lX c #DEA440",
"zX c #DAA65A",
"xX c #E8AF46",
/* pixels */
"                                                                                                      ",
"                                                .                                                     ",
"                                          . . . X . . X . . .                                         ",
"                                      . > 5 V P L P L K P 4 > . .                                     ",
"                                  . % N f.H.j.y.q.q.q.] ] d.d.V % .                                   ",
"                                X 3 K [ q.g.v.x.;.$.$.$./ 9.j.H.{ s . .                               ",
"                              X N } t.( J u.v.F.c.&.@.u.0.J 0.g.V.f.y X                               ",
"                            . M } 9.#.#./ +.p.c.C.k.&.$.0.#.J 0.v.h.} 4 .                             ",
"                          . 3 { 9.+.$.+.J #.u.x.C.c.p.0.@.0.@.J w.F.j.} 4 .                           ",
"                          X C [ 9.#.#.+./ #.w.p.c.C.v.e.@.0.0.#.J u.v.j.` o                           ",
"                        . q ] #.9.$.$.+.@.$.e.p.c.b.c.z.@.+.0.0.@.%.u.v.H.s .                         ",
"                        . L j.g.p.p.i.w.u.u.s.z.c.c.c.z.e.+.@.0.0.0.$.a.H.C X                         ",
"                        X L j.v.x.x.z.z.x.z.x.z.c.l.l.k.e.$.+.@.0.u.$.$.g.f.+                         ",
"                    . . * F r.i.p.z.z.z.k.c.c.c.c.l.l.k.e.w.@.+.$.w.&.@.w.q., .                       ",
"                  . o c V./ #.$.&.i.z.z.k.c.c.c.c.l.l.c.i.w.0.+.$.$.;.&.@.;.hXU X .                   ",
"                . 5 _ zXhXW r.0.$.$.&.w.i.k.k.l.c.l.k.c.k.w.w.@.%.$.$.&.&.:.fXwXB.1 . .               ",
"              . u E.uXfX3XS %.$.w.$.$.@.@.&.e.e.k.k.z.z.p.e.e.@.+.@.$.&.&...0XsXgXP.U O .             ",
"            X 8 U.1X|.tXE.A ( $.+.$.0.0.9.@.&.&.e.e.e.p.e.e.e.0.#.$.$.0.u. .1XyX@XsXxX) X .           ",
"          X u U.:X_.0X4XB.t G q.#.+.#.$.0.w.0.@.@.@.0.0.0.@.0.+.%.#.#.9.q.A o.lXyX+XaXfX! X .         ",
"        . 2 A.:X_.`.=XS * & d ] q.0.#.J +.0.w.w.$.@.+.@.+.+.+.+.#.#.#.[ D g * W *X0X+X}.wX! X .       ",
"      . t S.>X_.'.4XZ X X : 2 h [ q.y.0.+.+.@.0.u.0.0.$.@.9.@.@.$.#.9.( h m X o t T.iX+XOXfXl .       ",
"      = S.-X_.'.=XU X . + e 9 < t [ 9.y.y.w.+.+.$.$.&.w.e.@.0.$.$.q.( g B V O   o t *XOX$XtXA.= .     ",
"    X ^ -X).'.&XZ X   . O r 4 1 < d H [ 9.a.a.e.$.@.+.#.#.r.q.t.' H h d B C O   . X z 8XXX+XdX=.X     ",
"    & R.'.).2XQ X .     X e w 3 4 < t D G ' y.j.h.s.t.9.( ' ' D g t B h C L X       % -.pX+XOX9X2 .   ",
"  X S =X!.!.S., .       O q w 3 3 , 3 < 2 h j V ] d.d.H h B t t t s B d B K X       . & -XaX+XpX<..   ",
". % 4.^.W.I.~ . .       O q n 1 = 3 3 3 4 2 2 < t t t 2 2 2 4 4 4 d b d N n O         X R fX+XaX5X2 . ",
". ^ &X(.!.A.1           O w v v 3 1 3 3 1 3 5 3 2 3 2 4 < 3 4 4 4 s s m B n .         . , 3XaX@XxXY X ",
"o _ -XW.^.Q X           O 7 3 s v 1 3 5 3 3 3 3 5 5 3 4 3 4 2 4 9 s i m b w .         . X ! pX+XsX5.% ",
"t A.'.).Y.x .           O 7 3 4 w 9 3 3 3 5 3 3 3 3 3 4 3 1 3 4 4 b m f m e .           . a <X[.oX-X& ",
" .8X|.|.T.& .           O q 3 7 4 4 w 4 4 3 3 3 4 4 3 3 3 4 4 4 s N s m b n .             2 &X}.{.'.t ",
" .<X{.|.3X, .           X q 3 3 3 3 3 4 4 9 3 5 5 < , 1 9 v b N y y s y v n .             X X.`.}.0XO.",
" .1X{.tXjX,             O q 3 3 3 3 3 3 4 w w n w w w s 4 n s 4 1 v y v n n .             . o.rX}.|.o.",
" .1XXX@XjX, .           O r 3 3 3 5 3 3 3 4 3 9 w 4 w w 3 4 4 4 4 s s s v M X             X o.rX}.rXX.",
" .>X{.OX5X, .           . ; w 3 3 3 3 3 3 3 5 : 5 3 3 5 < 3 3 3 4 s s v s e .             . X.,X{.|.o.",
" .<X+X@X5X,               # 7 3 3 3 : 3 3 3 5 3 3 = 3 3 3 3 3 4 4 s s s n r X             X X.oX XiX,.",
" .1XXXaX6X, .             # 7 3 3 3 3 3 7 3 : 3 3 5 3 3 3 3 4 3 1 9 s v n ; .             1 Y.OX#XrXZ ",
"W 8XOXXX-Xx .             @ 7 3 3 : 3 5 3 3 : 5 : 3 5 : 3 3 3 0 4 4 v v e $             . u <X.X#X'., ",
"& 2.iXXXqXo.X             . - 7 3 3 1 9 3 3 : 3 : 3 3 3 9 3 3 3 4 9 4 n 6 .           . X T qX XaX4X= ",
"X _ qXXXoXY.1 .             . 6 : : : 3 3 3 3 3 3 3 q 3 3 3 : 1 3 0 r 7 @               X S.oXXXdXo.o ",
". = -X.X].:Xa .               @ q : : 3 3 3 3 3 : 1 5 3 3 : 3 : 3 w 7 @               . 8 =XOXXX8XZ . ",
"  + Z.0X}.,XD.= .               # 6 q : 3 : 3 3 3 3 3 3 3 3 3 : 7 7 O               . o X.pX+XtXR.& . ",
"  . z 8X|.].9XY X .               X ; q q q q : : 3 q 3 : 6 : 6 ; @                 X ~ eXOXXXeXT X   ",
"  . O <.uX.X_.I.l .                   @ # 6 : ; 7 : : 6 ; 6 - @ .                 . < T.tXXX`.A.=     ",
"    . 8 =XrX.XqXB.% .                     . O # # # - # O . .                   . , A.dXOXoX6Xa .     ",
"      X x 8XoX_.-X,.o .                             .                         . 1 Z.uXOXoX7X_ X       ",
"        % n.<X'.(.%X-.p . .                                               . . , 4.qX.X.X1Xo.o         ",
"          % n.4X(.(.%XU.l X .                                             X a 4.qX.XoX>X<.= .         ",
"          . % <.I.!.!.~.U._ 1 X .                                   . . % ~ 8XrX}.`.qX,.% .           ",
"            . + ~ R.%XQ.!.%XL.R 1 O .                           . X % x 4.2X`..X`.8X) % .             ",
"                X a N.I.^.!.~.I.Z.m.c 0 X . . . .     . . . O 8 p | B.T.~.`.oXqX&X) + .               ",
"                  . % ~ R.%X^.!.Q.K.P.A.R T T I 1 % % c T R *.D.P.J.~.K.^.7X5X*.u X                   ",
"                    . X p ,.Y.=X~.K.K.K.5.2.1.1.n.m.M.1.4.7.K.5.K.J.J.J.A.=.x O .                     ",
"                        . + 0 I B.R.Y.P.K.8.>.>.3.3.5.6.5.K.6.P.Y.R.m._ 2 X . .                       ",
"                              X % k x <.B.1.,.,.2.4.3.4.4.2.2.*.Z p % .                               ",
"                                  . X o + = 0 1 u T l 8 2 % % o . .   .                               "
};
