/* XPM */
static char *_483479926433[] = {
/* columns rows colors chars-per-pixel */
"51 56 236 2 ",
"   c #010000",
".  c #0B0000",
"X  c #130100",
"o  c #1B0500",
"O  c #150A02",
"+  c #1D0B02",
"@  c #230D00",
"#  c #2A0D00",
"$  c #230300",
"%  c #320D00",
"&  c #261101",
"*  c #2C1302",
"=  c #2A180C",
"-  c #321401",
";  c #341B01",
":  c #3A1B01",
">  c #341B0B",
",  c #3A1E0B",
"<  c #3D1300",
"1  c #351F11",
"2  c #2A1C13",
"3  c #3D2300",
"4  c #3D2309",
"5  c #3B2312",
"6  c #332012",
"7  c #421F09",
"8  c #412200",
"9  c #452B01",
"0  c #4D2B00",
"q  c #4C270B",
"w  c #562C0B",
"e  c #592E0D",
"r  c #582700",
"t  c #4F3600",
"y  c #533200",
"u  c #5B3500",
"i  c #5C3B02",
"p  c #5D310E",
"a  c #5B3B0C",
"s  c #432513",
"d  c #442A15",
"f  c #4C2B14",
"g  c #432D1E",
"h  c #4A2E1A",
"j  c #532E12",
"k  c #592F11",
"l  c #4D311A",
"z  c #553014",
"x  c #5D3212",
"c  c #54331D",
"v  c #5B351B",
"b  c #5C381D",
"n  c #593918",
"m  c #623D00",
"M  c #64330D",
"N  c #6A340D",
"B  c #6D390B",
"V  c #693A07",
"C  c #71360E",
"Z  c #733A0D",
"A  c #753908",
"S  c #633513",
"D  c #693714",
"F  c #663815",
"G  c #6C3914",
"H  c #643A1B",
"J  c #6B3C1A",
"K  c #60371B",
"L  c #733C14",
"P  c #793E14",
"I  c #743F19",
"U  c #642A02",
"Y  c #4D3321",
"T  c #473221",
"R  c #533622",
"E  c #5A3721",
"W  c #573921",
"Q  c #5C3A23",
"!  c #5B3D29",
"~  c #633D23",
"^  c #693F26",
"/  c #5E4201",
"(  c #634202",
")  c #6A4709",
"_  c #734D04",
"`  c #774807",
"'  c #79510C",
"]  c #6B481A",
"[  c #7C4115",
"{  c #75411C",
"}  c #7C441B",
"|  c #7D4A1E",
" . c #734A14",
".. c #7A5818",
"X. c #5D422F",
"o. c #6B4224",
"O. c #65422A",
"+. c #6D442A",
"@. c #664125",
"#. c #734524",
"$. c #7A4623",
"%. c #7C4A25",
"&. c #74492B",
"*. c #7A4C2B",
"=. c #73482A",
"-. c #6E5222",
";. c #7D552A",
":. c #774C31",
">. c #7E5132",
",. c #7A5832",
"<. c #844C00",
"1. c #83490E",
"2. c #895300",
"3. c #865B01",
"4. c #875B0A",
"5. c #915700",
"6. c #824315",
"7. c #83461A",
"8. c #894619",
"9. c #85491D",
"0. c #8A4B1D",
"q. c #894715",
"w. c #924E1B",
"e. c #825E1B",
"r. c #8B5A16",
"t. c #93501E",
"y. c #966B0B",
"u. c #8C621C",
"i. c #876619",
"p. c #9C6E1C",
"a. c #976715",
"s. c #9E731B",
"d. c #977013",
"f. c #A36E0C",
"g. c #B57D0C",
"h. c #A26F13",
"j. c #A16D1A",
"k. c #A37213",
"l. c #A5741B",
"z. c #B37C16",
"x. c #834C24",
"c. c #8A4E22",
"v. c #834E29",
"b. c #8F5121",
"n. c #82502C",
"m. c #865024",
"M. c #945323",
"N. c #9B5522",
"B. c #9D5927",
"V. c #975729",
"C. c #9D5B2B",
"Z. c #96582D",
"A. c #8E5A35",
"S. c #A25D2B",
"D. c #A35A25",
"F. c #896625",
"G. c #926B24",
"H. c #9B6E22",
"J. c #926C2B",
"K. c #916328",
"L. c #9C7124",
"P. c #99732A",
"I. c #946A38",
"U. c #8F7230",
"Y. c #A6602D",
"T. c #AA612C",
"R. c #AC7C22",
"E. c #A77727",
"W. c #A96531",
"Q. c #BC841D",
"!. c #B7841C",
"~. c #BD820E",
"^. c #AE8726",
"/. c #BC8A2D",
"(. c #B88527",
"). c #AD8334",
"_. c #B78833",
"`. c #BB9439",
"'. c #C9880D",
"]. c #CC8D12",
"[. c #C1881A",
"{. c #C68A17",
"}. c #D18F14",
"|. c #CE9016",
" X c #CD911A",
".X c #D1921C",
"XX c #DC991D",
"oX c #D59314",
"OX c #D7900B",
"+X c #E59D14",
"@X c #E19D1A",
"#X c #EAA41C",
"$X c #E9A319",
"%X c #F3AB13",
"&X c #F3AB17",
"*X c #F5B415",
"=X c #F4B41B",
"-X c #F6B91C",
";X c #F9BD1D",
":X c #F9B914",
">X c #C38C23",
",X c #C98F23",
"<X c #C38B27",
"1X c #CB9224",
"2X c #CB952D",
"3X c #C7902B",
"4X c #DC9B22",
"5X c #DC9E2B",
"6X c #D49726",
"7X c #C08F30",
"8X c #C59235",
"9X c #CC9B3C",
"0X c #CB9732",
"qX c #D49C36",
"wX c #DCA02E",
"eX c #D6A234",
"rX c #D4A73B",
"tX c #CEA43E",
"yX c #E0A32D",
"uX c #E4AC2F",
"iX c #EAA727",
"pX c #F1AE23",
"aX c #F1AD2B",
"sX c #EDB42C",
"dX c #E4B22F",
"fX c #F3B421",
"gX c #F3BB24",
"hX c #F3B82A",
"jX c #E7AD37",
"kX c #E4B33B",
"lX c #EAB536",
"zX c #F3BD36",
"xX c #B28542",
"cX c #C89A44",
"vX c #CCA041",
"bX c #D9A943",
/* pixels */
"                                                            . . .                                     ",
"                                                    .   . o 6 g 2                                     ",
"                                                  . X * 7 ~ :.>.Q o .                                 ",
"                                            . . @ d E &.n.x.x.$.+.f .                                 ",
"                                      . . X > f o.&.%.%.$.P L L I ~ @                                 ",
"                                  . . & > W =.*.%.7.} P L P P } 7.*.R X                               ",
"                            . . o , v o.*.v.%.| 7.[ L P P } 7.9.c.x.+.# .                             ",
"                        . X = f Q *.v.x.9.9.[ } } { $.} } 9.x.0.7.$.#.f .                             ",
"                    . @ > k *.v.v.x.7.x.| I I #.+.+.:.:.*.x.9.[ P L } ^ @ .                           ",
"                  2 R ~ n.v.x.c.0.7.P P { J v f * * - - f o.] { I } 7.#.Y .                           ",
"                . X.>.x.x.c.8.6.P P P } +.s X .     .   . @ s ~ $.6.} #.^ @ .                         ",
"                X ! %.0.7.6.P P 7.6.x.*.5 X                 X , ^ $.P I o.s .                         ",
"                X O.x.6.6.6.6.7.7.x.n.f X                     o v { L L } @.@ .                       ",
"                . ! $.} 6.c.7.8.0.x.+.$ .                     . , +.I P } =.d .                       ",
"                  > #.c.c.0.c.c.6.x.E X                         @ ~ } P [ #.@.@ .                     ",
"                  X K c.c.7.6.6.} $.c .                       . o ~ I 6.9.$.>.c .                     ",
"                  o w x.c.6.P 6.L I c X .                       > #.} 9.0.9.| ] f @ .                 ",
"              . X f ^ 7.c.8.P P L G ^ > .                     X j n.x.9.6.7.} | %.,.d . .             ",
"            . @ a %.I I M.c.6.} } I %.~ $                   . @ =.x.9.9.7.[ P [ [ K.U.9 .             ",
"          . ; I.xX1.C N 8.c.8.7.8.I I I R o . .       . . . @ ~ %.7.6.[ P P P 6.1.r.H.G.9 .           ",
"        . X G.8X/.<.A D C 0.w.0.} P C I I ~ < @ X X X X # f +.$.P [ [ [ 7.7.9.0.q.1.a.j.K.9 .         ",
"        X a <X1X>X<.A N M 7.b.0.6.8.8.6.} v.n.+.Q ! ! E o.&.{ [ [ 9.7.9.b.c.9.} ` A a.h.l.G.4 .       ",
"      . y _..X'.z.<.Z { N L M.w.8.8.w.c.8.c.c.v.n.$.&.$.{ { [ } 6.0.c.9.7.P L B N V r.j.f.j.F.+       ",
"      @ p.,X}..XR.) B B S N 9.S.N.t.t.M.t.c.8.7.} [ P P P 9.9.c.m.9.} [ B G G G F S r u.d.h.H.] +     ",
"    X F.2X].}.>X0 w G D I M N N.D.N.t.w.0.6.[ [ [ [ } 9.c.9.m.} G L B M G F M F H c # a E.k.d.H.4 .   ",
"  . 8 `.XX'.>X4.$ f J G L N r [ S.D.q.1.[ q.q.0.9.9.9.9.| Z B M M G F M V S H x q - X o ) h.f.s...X   ",
"  X 4.yX+XXXE.% X h J L { { M N D.T.w.q.w.w.M.b.9.| [ L N M S M M G G S F a H k q - . . ; G.k.h.P.9 . ",
". * 0X#X+X5XB o X l ~ G N { G U 8.T.N.t.t.t.0.0.[ V N S D S D S D J S F F p e j Q Y O   X ] l.f.R...o ",
"X a 5X$X+X2X8 . . 6 ~ D D P x.C A N.N.t.0.7.Z M M S D p S S S S S F S F e w w x x W +     ; a.f.z.H.@ ",
"o K.aX%XiXf.o     o Q F I P x.7.N 8.S.w.Z P G M S S S S S S S k p S w p z w p F H Q + .   & ..k.z.l.8 ",
"o u.aX%XaXa.X     . 1 b J I 0.b.P P V.c.L Z M S p S x S k k k e w p w e G S F H H E +     . ( k.g.(. .",
"0 (.#X&X5Xm .       o E F L c.b.w.C 6.7.L L G p S p S S e w w w w p M p S M M J S E @     . ( k.g.Q.' ",
"3.kX&X=X0X- .       . 6 H G 9.M.M.q.6.[ P { G S x k w k e w e k p D F M S M S S x c +     . ( s.g.,X' ",
"2.dX*XfX9X* .         X c G } 0.0.B.8.[ } G M w e w e e k e x D J G D F S S F F n W @     . ( l.g.[.' ",
"3.dX:X=XvX*           . > H { 6.w.Y.6.A L B x w e k S k k S S G S G S D D D D S F c +     . ) z.g.Q.` ",
"3.kX;XgXrX; .           + ! { 6.w.B.D.8.[ G S p S S S p S H J G G G D G J F D S x W &     . _ (.'.Q.` ",
"8 ^.gX;XlX_ .           . 5 &.7.8.N.W.0.P G S x k S x S p F F F S D D D J S D F x W + .   . _ {.OX6X4.",
"X G.hX:XsXy.X             o @.} 0.S.S.6.C C S S e p w p e p F F S F D D D S D D x R +     o 4.4X@X5Xr.",
"X U.zX:XgX!.O             . 4 *.8.N.D.8.L G D S M p x z e w p M M J J D S S D K K l +     3 0XiX#X6X0 ",
". t dX:X*XdX9               o ~ x.D.S.8.C L G G S G x e e e z p p J D S D v v j l T +   X y 5X+X#X2X# ",
"  & 0XgX*XsX..X             . s $.N.C.8.C D L G G G F p e e j e k S F x v c R 5 @ .   . o H.4X+XyXH.o ",
"  X 4.zX*XfX8X- .             + o.Z.C.0.C L G G G G F p w p z j v v v c h = + X       X y 8X+X@X9Xy . ",
"  . ; 9XpX%XaXR.@             . f A.B.8.L L L D { F p p w z z l c R 5 = X           . * h.XXOX5XP.o . ",
"    X e.iX%X%XuXi X .         . $ >.Z.6.C C J F p p z z j d l 5 & X .             . X ..6X+XXXqX9 .   ",
"    . ; 7XaX%X&XeXi X           . R I.x.N F x p p z v c h 2 + .                   X U 3X#X#XwXr.+     ",
"      . u eX=X%XpXeXu X           & :.#.S F z j l d 5 = O .                     . y 9XiX+X4X).;       ",
"      . o e.uX%X%X=XeXi X         . > O.H b c g = . .                         . y /.yX+X4X/.9 .       ",
"          $ a.lX=X*XgXrX_ & . .     . g R 5 @ O                           . # ( /..X@XXX8Xy X         ",
"          . & P.lX-X*XgXlX^.3 . .     O X .                             X : a.0X X].5X/.y X           ",
"            . & s.lXgX*X:XsXrXi.3 X . . .     .                 . . X ;  .).1X|.].1X_.0 X             ",
"              . & / tXzX-X:X-XzXeXy.t 9 + X X .         . . X X 3 u G.R.2X.X}..X8Xe.3 . .             ",
"                  . 8 d.lXgX=X-XgXsXkXbXL.J.;.; * # * & ; -.;.e.).(.,X XoX].1X^.) + .                 ",
"                    . + ..`.kXsX=X%X=X&XpXiXwX6X,XQ.z.(.!.>X,XQ.~.'.{.1X3X_...3 . .                   ",
"                        . * 0 s.eXsXaXpXfX$X+X+XiX@XoX|.{.{.{.[.Q.,X/.E.' : X                         ",
"                            . o 9 ) ).cX9XqX5X5X5X5X6X,X>X(.).E.P.) 9 + X .                           ",
"                                . . @ - < ` <.5.5.2.<.3.<.V u - @ . .                                 "
};
