/* XPM */
static char *_483479931081[] = {
/* columns rows colors chars-per-pixel */
"50 56 223 2 ",
"   c #010000",
".  c #0B0000",
"X  c #130200",
"o  c #1A0400",
"O  c #140902",
"+  c #1C0A01",
"@  c #1F1109",
"#  c #240400",
"$  c #240C00",
"%  c #290C00",
"&  c #360F00",
"*  c #271102",
"=  c #2B1300",
"-  c #25160A",
";  c #2B1609",
":  c #2D1B0D",
">  c #2E1801",
",  c #321400",
"<  c #3C1400",
"1  c #351A02",
"2  c #3C1D03",
"3  c #341D0C",
"4  c #3A1E0A",
"5  c #2E1D14",
"6  c #331E11",
"7  c #3C2100",
"8  c #3C200B",
"9  c #35200F",
"0  c #342012",
"q  c #3B2416",
"w  c #411E00",
"e  c #421E08",
"r  c #442303",
"t  c #462900",
"y  c #4A2B00",
"u  c #44230B",
"i  c #4A250B",
"p  c #4E290C",
"a  c #4B2500",
"s  c #5B2B06",
"d  c #542B0D",
"f  c #5B2D0A",
"g  c #522801",
"h  c #5C3902",
"j  c #523409",
"k  c #5D310E",
"l  c #5E3F08",
"z  c #432611",
"x  c #452915",
"c  c #4B2B13",
"v  c #452D1C",
"b  c #4D2D19",
"n  c #532D13",
"m  c #562E15",
"M  c #4C311C",
"N  c #573215",
"B  c #5C3212",
"V  c #53321B",
"C  c #5A351A",
"Z  c #5C3B16",
"A  c #622F09",
"S  c #653D00",
"D  c #6A3A00",
"F  c #63320D",
"G  c #69360E",
"H  c #653700",
"J  c #713B00",
"K  c #633513",
"L  c #6A3712",
"P  c #673B13",
"I  c #6C3A14",
"U  c #633B1C",
"Y  c #6B3C19",
"T  c #733D15",
"R  c #7A3E14",
"E  c #723F19",
"W  c #7D3F18",
"Q  c #5B3A22",
"!  c #633E23",
"~  c #693D20",
"^  c #5F4212",
"/  c #6B4604",
"(  c #68450D",
")  c #7B4E01",
"_  c #764A06",
"`  c #7B5206",
"'  c #684615",
"]  c #774016",
"[  c #7D4115",
"{  c #75411A",
"}  c #7C431A",
"|  c #714F19",
" . c #7F491D",
".. c #7A5314",
"X. c #775417",
"o. c #5E442C",
"O. c #6C4325",
"+. c #6D462A",
"@. c #654327",
"#. c #724425",
"$. c #7E4A24",
"%. c #744A2C",
"&. c #7C4E2B",
"*. c #784725",
"=. c #765525",
"-. c #774E30",
";. c #6B4B34",
":. c #844E00",
">. c #875100",
",. c #895707",
"<. c #95520D",
"1. c #824416",
"2. c #8A4A16",
"3. c #83451A",
"4. c #86491C",
"5. c #8B4C1C",
"6. c #874715",
"7. c #914E1B",
"8. c #8F501E",
"9. c #845D1B",
"0. c #835B13",
"q. c #93511D",
"w. c #925A1D",
"e. c #9D6100",
"r. c #8C6219",
"t. c #92661A",
"y. c #9C6C1A",
"u. c #976B1A",
"i. c #A86C04",
"p. c #A86F15",
"a. c #A7761A",
"s. c #B67A19",
"d. c #AB750D",
"f. c #834D25",
"g. c #8B4C21",
"h. c #814F2D",
"j. c #894F29",
"k. c #914E21",
"l. c #855124",
"z. c #8D5122",
"x. c #85502A",
"c. c #855D27",
"v. c #925222",
"b. c #985521",
"n. c #8B6220",
"m. c #946B23",
"M. c #9B6E20",
"N. c #9C742A",
"B. c #977128",
"V. c #977130",
"C. c #926F37",
"Z. c #A67A2D",
"A. c #A67823",
"S. c #B17F26",
"D. c #AB7D31",
"F. c #A47B32",
"G. c #C17A12",
"H. c #BD851A",
"J. c #B48224",
"K. c #BF8A25",
"L. c #B4842C",
"P. c #BE892A",
"I. c #BA8726",
"U. c #AD8238",
"Y. c #B38533",
"T. c #B98937",
"R. c #CA890D",
"E. c #D28F0D",
"W. c #DB960E",
"Q. c #D9950E",
"!. c #CB8C12",
"~. c #C58B1D",
"^. c #C88C1C",
"/. c #C38717",
"(. c #CD901B",
"). c #CE9017",
"_. c #D49315",
"`. c #DA9612",
"'. c #DD9914",
"]. c #D4951C",
"[. c #DB961A",
"{. c #DC9A1D",
"}. c #E39A0F",
"|. c #E39D14",
" X c #E19D1D",
".X c #ECA315",
"XX c #E6A21A",
"oX c #EDA61B",
"OX c #EFA91C",
"+X c #E7A215",
"@X c #F4AA16",
"#X c #F4AC1B",
"$X c #F1A719",
"%X c #C38C23",
"&X c #C38D2C",
"*X c #C88F24",
"=X c #CB9226",
"-X c #C6912A",
";X c #CA932C",
":X c #CE982E",
">X c #D39624",
",X c #D59926",
"<X c #DC9C23",
"1X c #D49A2B",
"2X c #DB9D2B",
"3X c #C99638",
"4X c #D19B37",
"5X c #D59D39",
"6X c #C68F35",
"7X c #DCA12D",
"8X c #DEA534",
"9X c #E5A323",
"0X c #E9A624",
"qX c #EBAA2C",
"wX c #E7A62A",
"eX c #F4AD22",
"rX c #F1AE2B",
"tX c #E4A836",
"yX c #EEB134",
"uX c #F0B130",
"iX c #BC8C4C",
"pX c #C79741",
"aX c #D7A242",
/* pixels */
"                                                          .                                         ",
"                                                .   . X o 0 5 .                                     ",
"                                                  . % b +.%.;.$ .                                   ",
"                                        .   . . $ Q +.&.l.f.#.b o                                   ",
"                                        . . % V #.&.f. .} ] T #.3 .                                 ",
"                                    . X $ b +.$.$.[ [ [ ] R } $.@.o .                               ",
"                              . . . $ b +.&.f. .[ } [ [ } 4.2.l.&.x .                               ",
"                          . . X $ b +.h.l.4.} [ [ [ ] 6.4.g.5.4.} O.* .                             ",
"                        . o 4 b #.&.j.3.3.1.[ R [ 6.3.4.8.4.} ] R #.Q + .                           ",
"                  . . + q ! &.x.j.g.5.1.R R R 1.5.8.8.2.3.[ R 4.W *.*.e .                           ",
"                . o z ! &.x.g.5.g.W R R R 1.4.5.8.8.4.1.1.} 1.3.}  .$.~ : .                         ",
"              . @ o.-.f.5.5.1.W W R 1.4.5.5.k.3.} } [ [ W R R } } } W E b o .                       ",
"                : +.f.g.3.1.W W 1.3.7.k.k.5.4.1.[ R } 3.3.} W W T R [ *.#.b .                       ",
"              . = C $.[ 1.3.1.3.3.5.k.k.3.1.1.W W } } 3.[ R T W [ W 3.W $.+.$ .                     ",
"              . - N K } 3.3.3.5.g.7.W W 3.W } } } T T T } [ W R R R 3.W 3.*.b X                     ",
"                - M d *.g.5.g.g.3.3.1.W W R W W R 3.} [ [ T T [ W W 3.3.g.f.-.4 .                   ",
"                X z n Y f.4.3.} W R W W R W W R } } R R [ ] [ [ 3.3.2.5.5.3.f.! $ .                 ",
"              . X % n B E } T R W R T R R W } } } R R } [ ] [ 6.5.2.5.1.6.} } { @.> . .             ",
"            . . M C B B A E { W T R W 3.3.3.3.3.3.3.3.1.1.1.2.8.7.4.4.6.[ R [  .l.c.j o .           ",
"          . O o.%.Z B m f K { W W W 3.3.W 3.3.W [ [ 3.1.5.8.z.8.4.3.6.W [ 5.2.2.2.w.iX=.o .         ",
"          O ^ C.' a p i n f I *.f.W W W T R R W 3.6.5.5.v.5.5.[ 1.W 1.4.2.5.2.6.2.<.s.3X| o .       ",
"        . ^ m.t.( w i e p s F R W T T R W [ 5.3.5.z.k.7.5.1.1.R R 5.2.2.5.6.7.q.w.<.G.>XpXH .       ",
"      . j B.y.t.( 2 i u i m s K E R 1.3.4.5.2.7.v.8.2.6.4.R 1.1.5.5.7.7.2.q.w.q.b.<.G.{.,XS.2 .     ",
"    . > r.y.i.u.I 2 e u r i n f E } 3.5.2.5.5.5.4.1.1.[ W 1.4.5.7.2.q.q.q.b.8.8.z.[ p.<X[.>XF.* .   ",
"  . X =.a.i.M.9.w 4 4 u i u n n K  .5.5.z.z.2.[ 1.[ 1.6.5.5.6.2.6.7.7.5.7.q.8. .K < H 6X[.`.4X/ .   ",
"  . y F.p.d.M.y % 9 8 4 u e e d s } z.5.1.1.1.1.6.6.5.5.2.6.2.5.q.q.q.q.8.} } K m # # ..,X_.{.I.* . ",
"  O r.I.d.a.| o * 3 8 8 8 i 4 p B L } [ [ 3.6.6.2.8.4.6.5.7.7.7.q.v.v.3.] ] F F U u o < I.].`.1X( X ",
". * J.~.H.y.2 X + 3 3 4 4 u 4 w n U F f.5.6.4.8.2.2.4.5.7.7.7.7.v.z.3.T G f f F Y ! 6 X ` =XW.<XT.< ",
"o ' -XR./.,.+ . + 5 9 4 4 4 x 2 r B A } b.z.4.1.1.2.2.7.k.k.k.g.g.T I A s s F I T %.q X w 3X'.oX7Xg ",
"# 9.^.!.%X/ . . @ 5 9 1 4 4 i i 2 p B L 3.8.4.2.6.5.k.g.g.3.W R I s s A F Y } { W O.4 . % M. XoXtX<.",
"S L.!._.L.2 .   O 5 3 4 4 1 4 c e r B A 3.z.2.4.6.5.5. .T I F s s f G Y E E R E T ~ 3 . X ..9X@XqXi.",
") ;XE.].D.% .   . - : 3 8 4 4 c B d d F  .b.2.8.5.5.} T F f s f K P T { I T T G I ! 6 . . t >X#XeXW.",
":.4XW._.D.$ .     . : 9 8 9 2 u n f g f 4.v.g.g.} T F f f f f K E E I T L I I I I U : . . $ ~.#X@X.X",
":.2X|.[.Z.$ .     . O 5 9 1 1 4 n Z U s 3.j.5.1.F s s f K P Y E E T T I L I I I G U :   . + %XOX.X.X",
">.7X|. XD.$ .       . @ 9 9 4 2 d K I K F T T G A F F { { T T { T I E T E I I L F U 5 . . $ H.+X|..X",
">.2X}. XT.$ .         . : 3 3 2 c K P G I I G I { I { P P I { { I I I I T I I L P U 3 . . * H.W.W..X",
":.1X|. XY.$ .           O : 9 2 i Z K I T ] T } } I F F P Y F I T I I L T L E L Y Z : . . * ~.}.|. X",
":.5X|.'.S.% .           . - 9 4 p k K I } g.f.} } P F F F P G I I I T I T L K K U Q - . . ' 7XOX0Xi.",
"< A.9X'.6XH .             O : 4 N B B G } f.[ R [ I F k k Z F P I I I I L K K C V v O . o m.0X@XqXi.",
"o c.2X'.>X) . .           . + 3 c B K F ] 3.3.1.} P f k k k k K I I I Y K C V x ; .   . 2 5XOX@X5XJ ",
". t =X'.[.H.> .             . - x d k F ] 4.3.3.5.T G B B B k k Y L K U Q v - O .     . S tX@XeX3X< ",
". * J.<X'.>XX.X .             O x C B G { g.g.3.4.} L K B k B B U ! Q b = . .       . $ s.9X$XrXn.o ",
"  . / 4X[._.J.2 .             . - V m K T g.4.5.g.R G k k k N V v 6 : . .         . . h 1X|.XX:Xt . ",
"  . * U.].E.,XM.+ .           . X v C f T g.g.g.f.I K B C M v : o . .             . r Y.9X|.,Xr.. . ",
"  . . l %X_._.%X/ o .           . O b B {  . .} T K B V v : O .               . . 7 L.7X'.(.T.2 .   ",
"      o r.1XW.'.4X/ O .           . 3 n P ] { I U N b 3 O . .                 . 7 Z.>XQ._.K.h X .   ",
"      . 1 D.tX#XeX7X_ o . .         . v ' *.Y O.Q 0 o .   .                 . 7 M.^._.`.-X..X .     ",
"        . 1 I.uX#XeX8XZ.t . .       . $ ! %.o.z + .                 .   . . 7 N.^.!._.1Xm.$ .       ",
"          . 1 Y.qX@XOXrX-X` + . .     . 5 q O . .                   . . $ / A.~.R.R.-XN.> .         ",
"          . . 1 L.yX#X@XeXyXM.t o . . . . . .           .     . . . * ( Z.6X(./.^.P...= .           ",
"              . > m.8XrX#X#XuX7XJ.) t $ X .             . . X = 1 S A.;X].)./.%XY.^ + .             ",
"                . X S K.wXeXOX#XrXtXaXu.9.=.7 $ * + $ * ^ | ..D.L.%X>X_.).^.P.0.7 . .               ",
"                  . . * _ T.8X0XoXoXoX9X7X1X&X%X%XI.s.s.K.%X^.].!.!.>X>XP.N.^ + .                   ",
"                    . . . > _ J.1XqX0X9X'._.[.].{.{.^.!.!.!.].,X,X>X&Xt.y = . .                     ",
"                        . . . o t ( D.pX6X&X-X%X%X*X=X*X%XP.Y.U.V.( 7 O . .                         ",
"                              . . X $ < < D ) :.>.>.>.>._ D < < # . . .                             "
};
