/* XPM */
static char *_483479935992[] = {
/* columns rows colors chars-per-pixel */
"50 71 235 2 ",
"   c #010000",
".  c #0C0100",
"X  c #120200",
"o  c #1A0400",
"O  c #1E0B00",
"+  c #170D06",
"@  c #1C1108",
"#  c #230400",
"$  c #240D00",
"%  c #2A0E00",
"&  c #300F00",
"*  c #261303",
"=  c #2C1302",
"-  c #2E1904",
";  c #24160B",
":  c #2A1709",
">  c #2C190B",
",  c #26180D",
"<  c #321502",
"1  c #341B05",
"2  c #3B1B02",
"3  c #341C0A",
"4  c #391E0A",
"5  c #2C1B11",
"6  c #391F10",
"7  c #351F11",
"8  c #3E2201",
"9  c #3D210B",
"0  c #362200",
"q  c #3B2312",
"w  c #372216",
"e  c #431E02",
"r  c #422303",
"t  c #4C2306",
"y  c #432A00",
"u  c #4C2D00",
"i  c #43230B",
"p  c #49260C",
"a  c #4C290D",
"s  c #532603",
"d  c #552B04",
"f  c #542C0D",
"g  c #5A2E0D",
"h  c #4D3201",
"j  c #543402",
"k  c #5D310F",
"l  c #5A3B01",
"z  c #412513",
"x  c #442914",
"c  c #4D2B12",
"v  c #482C19",
"b  c #532D11",
"n  c #582F11",
"m  c #4D311D",
"M  c #5C3212",
"N  c #54321A",
"B  c #5B361A",
"V  c #5E391E",
"C  c #543414",
"Z  c #64330D",
"A  c #6E390E",
"S  c #653807",
"D  c #733A0D",
"F  c #633412",
"G  c #6A3712",
"H  c #653917",
"J  c #6D3A13",
"K  c #643A1B",
"L  c #6C3D1A",
"P  c #733D15",
"I  c #793E13",
"U  c #733E19",
"Y  c #632F0A",
"T  c #543622",
"R  c #5C3A23",
"E  c #573B26",
"W  c #643E23",
"Q  c #6A3E21",
"!  c #5E4100",
"~  c #644304",
"^  c #6B4607",
"/  c #734D0B",
"(  c #794505",
")  c #6D5A07",
"_  c #785709",
"`  c #6E451D",
"'  c #764016",
"]  c #7A4216",
"[  c #74411A",
"{  c #7B441A",
"}  c #7E491E",
"|  c #784915",
" . c #6C5912",
".. c #7A5816",
"X. c #7E6411",
"o. c #5F412C",
"O. c #664125",
"+. c #6C4224",
"@. c #664329",
"#. c #6C452B",
"$. c #734422",
"%. c #7A4722",
"&. c #7D4A23",
"*. c #734B2E",
"=. c #7B4C2A",
"-. c #734728",
";. c #744C31",
":. c #784C31",
">. c #7C5235",
",. c #744D2F",
"<. c #854D05",
"1. c #855706",
"2. c #975902",
"3. c #824516",
"4. c #82461A",
"5. c #85491C",
"6. c #894B1D",
"7. c #894B12",
"8. c #835B15",
"9. c #855D1C",
"0. c #965518",
"q. c #866306",
"w. c #876518",
"e. c #9C6E1C",
"r. c #916417",
"t. c #9A721C",
"y. c #B97E0C",
"u. c #B57B09",
"i. c #A1741A",
"p. c #A97815",
"a. c #AC760D",
"s. c #834C24",
"d. c #864B22",
"f. c #85522B",
"g. c #835924",
"h. c #8A572D",
"j. c #886324",
"k. c #9E7323",
"l. c #9B7827",
"z. c #906A23",
"x. c #A27425",
"c. c #AB7B23",
"v. c #A3792A",
"b. c #A77A29",
"n. c #B37E24",
"m. c #B88908",
"M. c #BE861A",
"N. c #B68119",
"B. c #A98500",
"V. c #978023",
"C. c #AC852B",
"Z. c #B38125",
"A. c #BF8923",
"S. c #BA862B",
"D. c #BD8A2B",
"F. c #B68428",
"G. c #AE8130",
"H. c #B68734",
"J. c #BA9435",
"K. c #C5870D",
"L. c #C28612",
"P. c #CB8D13",
"I. c #C1881B",
"U. c #C68A18",
"Y. c #D08F11",
"T. c #CE911C",
"R. c #CE9114",
"E. c #D39313",
"W. c #D4941A",
"Q. c #DA9816",
"!. c #D28E0F",
"~. c #E99D13",
"^. c #E59D18",
"/. c #E2970A",
"(. c #ECA116",
"). c #EAA31B",
"_. c #E7A21D",
"`. c #F3AD1A",
"'. c #F2AC16",
"]. c #F4B516",
"[. c #F5B719",
"{. c #F0AB0F",
"}. c #C58D22",
"|. c #C48C2B",
" X c #C7912C",
".X c #C9922B",
"XX c #CC9225",
"oX c #D69925",
"OX c #DC9C29",
"+X c #D79728",
"@X c #C69133",
"#X c #CD9A39",
"$X c #C89435",
"%X c #D79A36",
"&X c #C58C35",
"*X c #E19D25",
"=X c #D9A62E",
"-X c #CFA838",
";X c #D8A737",
":X c #DAB43A",
">X c #C7A02B",
",X c #E4A224",
"<X c #E9A422",
"1X c #E4A32A",
"2X c #E6AA2E",
"3X c #F3AF20",
"4X c #EDB829",
"5X c #F5B524",
"6X c #F4BD23",
"7X c #F2BA29",
"8X c #E5A836",
"9X c #EABD34",
"0X c #E8B436",
"qX c #F2B734",
"wX c #F5CE0D",
"eX c #FAD30E",
"rX c #F7C313",
"tX c #F5C11D",
"yX c #F6CB1B",
"uX c #F8C717",
"iX c #F9D114",
"pX c #FAD219",
"aX c #EEC824",
"sX c #F6CB24",
"dX c #F5C528",
"fX c #F9D222",
"gX c #F9D72F",
"hX c #E9C335",
"jX c #F2C336",
"kX c #F8D636",
"lX c #AD864B",
"zX c #C69747",
"xX c #CDAA43",
"cX c #D5B04C",
"vX c #E2C34E",
/* pixels */
"                                        . . X < i i p e X . . .                                     ",
"                                    . o ; w z R W #.;.#.N T : X .                                   ",
"                                . . 3 R Q +.Q L U U [ f.s.f.=.B = . .                               ",
"                              . O T W +.[ { U U U U U { 5.5.d.=.;.4 o                               ",
"                            . O R -.[ [ U U [ +.K +.-.U { d.5.5.s.=.T O .                           ",
"                          . o T +.L U U $.+.W c e q x x Q $.s.5.5.d.=.N .                           ",
"                          . 9 *.L U { L #.3 $ . . . . X O v +.s.5.d.d.-.7 . .                       ",
"                        . > #.$.P J $.W = . .           . . < +.s.5.6.f.@.O .                       ",
"                        . x -.[ P U W % . .               . . z =.5.4.d.=.x .                       ",
"                        O R Q { { %.v X                     . o K s.5.5.f.c .                       ",
"                        * #.U U U +.=                         . c -.5.5.&.+.O                       ",
"                      . % :.%.P J +.: .                       . < L { s.%.*.O .                     ",
"                      . % ;.s.{ J ` * .                       . c K J } s.@.O                       ",
"                        % ;.s.5.] L x .                     . o R [ J J &.B . .                     ",
"                      . = >.s.5.4.[ O.% .                   . 6 Q [ P J ` v .                       ",
"                      . % *.5.6.5.5.$.W = .   .     .   . . % R $.P P L V 1 X                       ",
"                      . $ ;.s.4.6.5.4.$.Q < # . . . . . $ z V H U P { Q c - .                       ",
"                      . $ ;.d.I 3.4.4.4.%.Q W x 6 3 7 z W +.` [ P U $.M - > .                       ",
"                      . = >.s.3.3.3.d.6.d.4.%.%.-.K Q -.L U [ ' } U K i - , .                       ",
"                        % :.s.4.I I 3.6.6.6.5.4.4.U P I U J [ [ [ H p 1 - ; +                       ",
"                      . % :.d.6.D ] 4.3.5.5.6.4.I I U J U [ $.F b e 4 = * @ .                       ",
"                      . = h.d.6.4.4.I I ] 4.5.6.s.{ %.U F L M e 4 1 < 3 * ; .                       ",
"                      . = >.d.4.5.] 4.{ P P P { { U H Y g f a r i 4 3 > > ; .                       ",
"                      . % >.5.] ] ] I D P P G G J Y s g b f a i 9 0 4 3 , , .                       ",
"                      . = >.f.5.D ] ] ] P ' J Z F Y d M f c p i 9 9 0 = > ; .                       ",
"                      . = >.5.d.] ] 5.] P [ P G F F M F f a a 9 9 4 4 = > ; .                       ",
"                        % ;.I 3.{ ] { ] ' P Z F H k g n M a i r 9 9 1 - ; , .                       ",
"                      . % :.s.3.D ' ] I ' G A [ L F M g n f a i 4 9 4 : > , . .                     ",
"                      . = ;.d.6.I ] ] I P J [ [ J J L g g c a i 9 1 4 > : ; .                       ",
"                    . . < f.6.3.] ] ] { P P ' P G J H g g a a i 9 4 1 : * * . . .                   ",
"                    . 2 | h.6.3.I I 4.] ] J J [ [ L F d f b a i 9 1 0 > - 1 C - .                   ",
"                . O ..zXcX0.0.6.3.4.{ I ] ' A J J F M M b b a i 9 0 - - - 0 lXlXy o .               ",
"              . u p.8XqX%X2.0.4.I { 4.I ' P U J J F F M n b p e i 4 3 = = 2 S.;XzX1.& . .           ",
"          . . h #XqX`.5X1X<.7.5.I J s.I P ' P G F J F M n b a i i 4 3 = = 2 H.*X*X1XH.d .           ",
"          . j -X7X[.[.qX&X7.( 4.P I 4.{ P P J P J H F F b b a i z 4 1 1 = 2 b.8X*X(.1X@Xj . .       ",
"      . . j :X7X[.5X=X1.s { 5.4.D [ [ I P P P P J G H n g p i r 4 1 < > : % & x.*X).~.*X&Xu .       ",
"      . j -XdX[.4X;X! o < =.s.3.I ] { ] P [ Y J U F g k f a i i 4 9 3 3 : $ X % D %X(.~.,XS.$ .     ",
"    . 0 -XdXyXdX;Xl . . % @.s.] I ] { ] { [ A Z F F M M f b p i i 4 3 3 : 5 X . # ( OX~.(.OX9.# .   ",
"    X w.hXtXsX=X! . . . % R &.4.D ] ] I { ' P G F k k k f a p i 9 4 4 3 : w . . . # r.OX^.^.8X8.. . ",
"  . 8 -XtXtXjXq.o .     $ R %.5.' [ 4.] P A [ [ J J M k g a a z 4 4 4 3 > 5 .   . X & e.*X~.*X.X1 . ",
". @ J.aXrXdXxX- .       $ #.J P ] ] } ] J ' { L L L H g n b a e 4 1 4 3 0 , .     . . 2 |.*X(.8X..o ",
". 0 =XtXrXjX... .     . * ;.%.D ] ] I ] P ] G G Y G H k f c a z 9 4 3 3 q ; .       . o <.+X/.).zX& ",
". X.hXrXaX>X-         . $ ;.=.[ ' P P ' ' { Z g k n H g a b p z 4 4 4 4 7 ; .         . e n.^.^.%XY ",
"- C.sXuX9Xq.X           $ ;.%.I J S P ] | { G Z F F K g f a z e 4 < 3 7 > , .         . o 9.*X).2X2.",
"_ vXsXyX;X2 .         . % *.%.{ D G P U L J [ L L H F n b p i 2 < 4 7 > : , .         . . j y.Q.oXL.",
"X.hXyXsXxX1 .           $ #.s.I U G G Y Z g L K H n b b i t z 4 4 4 3 * * ; .           . % i.K.P.T.",
"B.aXpXgXt.o           . $ ;.%.4.P I P P F s t M F d e f c p i i 9 3 = = ; ; .           . * t.m.y.m.",
"fXyXeXkX ..           . * W %.d.I { P U L H d t M f t a b b p i i 4 3 : : ; .             O e.y.u.y.",
"wXwXwXkX ..           . * @.` / { [ ] P J J [ G L H F M b b i i 9 4 1 > , , . .           O e.u.u.y.",
"pXwXeXkX)               @ @.[ ' D [ [ ' J P [ [ L F M M b b p i 9 9 - > , , .           . $ i.M.L.L.",
"yXpXeXgXX..           . O o.` [ P P ' J P P ' U J F F g f b i i 9 4 - > > @               $ c.P.P.E.",
"m.aXeXfXcX- .           . x ` { P I P J P P J P J F F g f b i i 9 1 3 - ; +             . $ y.E.E.E.",
"X.gXpXfX:X- .             > @.' ' { ] ' P J J U J F M g b a i 4 9 4 3 > @ .             . y }.Q.Q.W.",
") :XyXiXhX) .             X B $.P ' { P A P G J F F F n f a r 4 9 4 - > + .           . . w.OXQ.W.a.",
". V.gXrXdXp.X               > @.L P [ P J J J G F k k b a a i i 9 9 > , .             . = x.W.Q..X<.",
"   .hXrXdX:X8 .           . X x @.[ [ U J S A F J F F M a a i 4 9 w , .               . S @X!.W.J.e ",
". * -XdX[.9Xl.o .             X w W *.L L J J F H F M n p a 4 3 w , .               . * b.T.!.XX9.o ",
"  X q.0X].].;Xj X               . $ E R K H F M H M n C c x x 7 , .               . . S |.Y.R.F.8 . ",
"  . % J.6X].5X$X= .               . X , z E R V V B N N v w 5 @ . .               . r n.R.R..X8.o   ",
"    . ~ 0X].[.2Xw.# .                 . . O ; % x v q O O X .                   . y v.}.E.T.G.8 .   ",
"    . O i.0X`.'.8Xr.o .                 .     . . . .     .                   . r v.M.K.T.F.y .     ",
"      . = G.qX`.`.0Xr.y . .                                               . . y x.}.M.m.S.~ . .     ",
"        . = n.0X`.[.2X%Xj X .                                           . O j c.I.L.M.H...O .       ",
"          . < c.8X`.~.<X$X8.1 X .   .                             . . X j z.S.I.m.M.c./ * .         ",
"            . = k.;X*X(.).1X.X1.9 o . .   .     .           . . . $ h ( A.oXW.R.}.b.j o .           ",
"              . $ l |.1X<X).<X8X$Xv.l 0 = X . . . . X . . o - 1 $.j.G..XT.W.oX$Xv.u .               ",
"                . . 1 j.%X1X_._.).1XOX.Xc.<._ ../ / / ^ / 8.k.i.i.p.M.M.M.A.v.~ * . .               ",
"                    . o r r.}.1X<X^.^.Q.W.XX|.$X XD.D.S.A.A.N.a.a.p.y.C.t.~ = X .                   ",
"                      . . X 1 ..G.xX8X+XoXT.U.XXXXU.I.}.I.I.A.c.k.z.j.h * . . .                     ",
"                            . . # d ^ 1.c.n.n.n.F.n.c.F.C.c.r.^ u - X .                             ",
"                              . . . . o $ % % % 2 e % % % % O . . . .                               "
};
