/* XPM */
static char *_483479940053[] = {
/* columns rows colors chars-per-pixel */
"50 71 229 2 ",
"   c #010000",
".  c #0B0000",
"X  c #120100",
"o  c #1B0500",
"O  c #150901",
"+  c #1C0B01",
"@  c #1F1106",
"#  c #230C00",
"$  c #2B0E00",
"%  c #220500",
"&  c #300D00",
"*  c #231103",
"=  c #2C1201",
"-  c #24160B",
";  c #29180C",
":  c #321300",
">  c #351B00",
",  c #391D00",
"<  c #341C0C",
"1  c #3E1F0B",
"2  c #331F11",
"3  c #3D2100",
"4  c #3D220E",
"5  c #352113",
"6  c #3B2413",
"7  c #431C02",
"8  c #432302",
"9  c #4B2504",
"0  c #462A00",
"q  c #4A2B00",
"w  c #44240C",
"e  c #4B260A",
"r  c #4D290D",
"t  c #46280C",
"y  c #522600",
"u  c #532E01",
"i  c #542C0D",
"p  c #5A2E0D",
"a  c #543502",
"s  c #5A3301",
"d  c #5C3A02",
"f  c #5D310E",
"g  c #5B3B09",
"h  c #432612",
"j  c #442915",
"k  c #4C2B12",
"l  c #452C1A",
"z  c #4B2F1B",
"x  c #542E12",
"c  c #592E11",
"v  c #522F19",
"b  c #4C301C",
"n  c #553013",
"m  c #5C3212",
"M  c #54331B",
"N  c #5B351A",
"B  c #5E391C",
"V  c #5E3D14",
"C  c #602E0A",
"Z  c #613101",
"A  c #653D00",
"S  c #63330E",
"D  c #6A360E",
"F  c #683D07",
"G  c #713A0E",
"H  c #633512",
"J  c #693713",
"K  c #653915",
"L  c #6C3A14",
"P  c #643919",
"I  c #6B3D1A",
"U  c #733D14",
"Y  c #793F16",
"T  c #743F18",
"R  c #783E18",
"E  c #713711",
"W  c #513522",
"Q  c #5D3C24",
"!  c #613D23",
"~  c #594403",
"^  c #644002",
"/  c #6E4600",
"(  c #6B490A",
")  c #734B04",
"_  c #734F0D",
"`  c #7A4F0B",
"'  c #76510C",
"]  c #7A520B",
"[  c #7B5408",
"{  c #6D491A",
"}  c #764016",
"|  c #7B4216",
" . c #75411A",
".. c #7C431A",
"X. c #7E481C",
"o. c #7F591B",
"O. c #7D601C",
"+. c #6B4225",
"@. c #664328",
"#. c #6A462A",
"$. c #6F482B",
"%. c #7A4D2C",
"&. c #774825",
"*. c #7B5F20",
"=. c #764D31",
"-. c #895B00",
";. c #845A0C",
":. c #855602",
">. c #945E00",
",. c #814417",
"<. c #82461A",
"1. c #854A1C",
"2. c #894B1C",
"3. c #814F12",
"4. c #8D5F11",
"5. c #955D10",
"6. c #866200",
"7. c #90620D",
"8. c #8B671D",
"9. c #936414",
"0. c #956C16",
"q. c #986B19",
"w. c #9C731A",
"e. c #A57200",
"r. c #A1721C",
"t. c #A8781A",
"y. c #A46400",
"u. c #824C23",
"i. c #894E21",
"p. c #85512B",
"a. c #885127",
"s. c #905F24",
"d. c #896422",
"f. c #866323",
"g. c #936A26",
"h. c #9A7226",
"j. c #A47921",
"k. c #A57A2D",
"l. c #A87925",
"z. c #B17E23",
"x. c #B1871B",
"c. c #AF8029",
"v. c #B48124",
"b. c #B3812B",
"n. c #B9862A",
"m. c #BC8725",
"M. c #AC8134",
"N. c #BC8B33",
"B. c #BC8C38",
"V. c #B28534",
"C. c #AF9131",
"Z. c #CD8E13",
"A. c #C68A1A",
"S. c #C98E1D",
"D. c #C28511",
"F. c #CD901B",
"G. c #D49314",
"H. c #D99613",
"J. c #D4961C",
"K. c #DC9A1A",
"L. c #D38F08",
"P. c #E59C0F",
"I. c #E29E19",
"U. c #E39C13",
"Y. c #EBA20F",
"T. c #E5A114",
"R. c #EBA314",
"E. c #EBA41B",
"W. c #EFAB1B",
"Q. c #E8A419",
"!. c #F5AC15",
"~. c #F2AB1B",
"^. c #F1A616",
"/. c #F5B113",
"(. c #F5B21B",
"). c #F5BA1B",
"_. c #F7B817",
"`. c #F3A80E",
"'. c #C68E24",
"]. c #C98F21",
"[. c #C28D2B",
"{. c #CC9323",
"}. c #C6912B",
"|. c #CB952C",
" X c #D59925",
".X c #D1962D",
"XX c #D99D2B",
"oX c #D59927",
"OX c #C08D31",
"+X c #C49134",
"@X c #CD9531",
"#X c #C3923A",
"$X c #CB9838",
"%X c #D49D34",
"&X c #D59F35",
"*X c #CCA539",
"=X c #DBA235",
"-X c #DAA339",
";X c #D3A038",
":X c #EAA524",
">X c #E2A42C",
",X c #EDAB2B",
"<X c #E9AA26",
"1X c #F2AE24",
"2X c #F1AF2E",
"3X c #EAB12E",
"4X c #F3B223",
"5X c #F4BB21",
"6X c #F3B22A",
"7X c #E1A433",
"8X c #E4AB34",
"9X c #EBAD33",
"0X c #E8AD3A",
"qX c #F2AF33",
"wX c #E7B131",
"eX c #EBB233",
"rX c #ECB33B",
"tX c #ECBA39",
"yX c #E7BB38",
"uX c #F0BA34",
"iX c #F8C519",
"pX c #F7C628",
"aX c #F5C531",
"sX c #E9C13B",
"dX c #B38A4B",
"fX c #C79840",
"gX c #DAA341",
"hX c #D7AF4D",
"jX c #ECC440",
/* pixels */
"                                        . . o 4 w w e w o . . .                                     ",
"                                    . . ; j b #.$.=.%.=.Q l # X .                                   ",
"                                . . ; M +.! &. .X. .u.u.p.p.&.@.+ . .                               ",
"                              . # 4 ! +. .T E Y | Y ,.2.2.2.i.p.+.6 . .                             ",
"                            . * Q +.I T Y  .Y L  ...| <.<.2.2.i.p.%.h X .                           ",
"                            X W { L  .| Y U  .E Y  .| | ,.,.2.2.2.u.%.k .                           ",
"                          . h +. .} } } |  .Y L E  ...} U | ,.2.2.2.a.%.< .                         ",
"                        . O @. .U U } | | U T D L L Y U U G 1.,.,.2.2.p.@.O .                       ",
"                        . 2 #. .U D Y T U G Y L D D D D T U U ..1.2.2.1.%.$ .                       ",
"                        . z &.....R | Y  .| <...}  .T T }  .G } | 1.2.2.%.v .                       ",
"                      . . v I ..R R R R E } ....| } D  .L Y } | G } 1.1.%.B .                       ",
"                        o Q +.E G R R R U Y <.<...| D D D L  .Y } L | X.u.N .                       ",
"                      . # @.&.,.Y U ..<.R ,.<.Y X.1...U D D  .} } } L Y u.N .                       ",
"                        # #.u.2.Y G Y <.Y U E R | ..1...U D }  .D } |  .&.N .                       ",
"                      . * #.u.2.2.Y U R ,.R D D ..| .... .U D } U U } E I k .                       ",
"                        * N &.2.2.<.,.<.Y R Y D R ....<.1.| } D | | |  .! e .                       ",
"                        + t I 1.i.1.1.<.| Y <.Y R R R Y | ..} } Y Y Y &.I w .                       ",
"                        O h u  .X.1.1.2.,.Y <.<.R E E R U U }  .Y Y  .L P 6 .                       ",
"                        + h e f  .1.i.2.2.i.<.,.,.R E R ..E U | .... .S B 6 .                       ",
"                        + l r e u L ..i.2.2.2.<.<.<.Y R R U D  ...L S f B j .                       ",
"                      . + b w e u i J T <.i.2.<.1.X.| | E T R L S f f m n 4 .                       ",
"                        + b h t w 9 p S E <.<.2.2.i.1. . .E J H J K K H N j .                       ",
"                        * z t t w e i p S J J Y | ..} D D S K H J I H V N j .                       ",
"                      . + l k k r r i i p J C C E L S S H H H H f H f f n 4 .                       ",
"                        + j k r e r c p p I J C H J J J K g f f f H p m N h .                       ",
"                      . + j k r r r c c p P K J H H H J L H H m H m m p B w .                       ",
"                        # l h e w r i c H H J L I J C S L H H H f p p i N j .                       ",
"                        + l k r e i c m H H I L T T J H J J H H K p u B B j .                       ",
"                      . + l t r i e i m p p L  .S L  .L S J H K K K H B N 4 .                       ",
"                      . + t w r e e i c H p L D S J  .U S J J H H H H f f 3 . . .                   ",
"                  . . 3 V q e r e r i m p m J I L T  .S H L J J H S H f f B g o .                   ",
"                . + a dXdXs u r r i x m H K S S L } L D J L H L K S H f Z s.hXM.0 . .               ",
"              . & 9.=X0Xz.s u k e e x c f f L L J T L J J L H K H J K S Z 9.qX9X|.] # .             ",
"          . X a #X7XE.:Xz.y y k r r x m f f f J S J T J J m J H J L J S Z 5.qX!.6XrXg.+ .           ",
"          X A $X:XE.:X7Xg.7 e x x e i m m K f J U L L L J K H H f H L J s ,.@XqX(.(.eXw.# .         ",
"      . X g &X1XR.E.%X9.& 7 w e e e i i K f K J L L T J J H S f H f ( P S y 7 t.3X(.(.tXh.+ .       ",
"      . > $X6X!.E.oXA % X < j e e r i p m K J L  . .L S T J H H S f H H m w o # w.tX(.).yX0.+       ",
"      + 0.eX(.(.7XF o o + l k r r e r p H J J J L F J L L L J f H J c H P j . . # j.uX).5XtXO.. .   ",
"    X g 0X~./.eXh.# . . + l h x r t i m m S H L L D J T J S S H H H p H B l .   . # t.uX).).*X0 .   ",
"  . , #X1X!.6Xt.# .     + h k r n r i m p p  . . .J T L L J K J K f i P m 6 .     . > *X5X).pXC.O . ",
"  X 5.rX^.~.gXu .       + l w r k r i m m J J J J L  .L L D J K J m K P B h .       X ( wXiXiXsX~ . ",
". = |.:X`.>X` o .     . O 6 z 7 t e x c m K S K J S J T J J S K I K m m N 6 .       . # x.pXiXpXC.+ ",
". a XXU.T..X, .         O j b x w 9 i c m K p f K C J L J K K H P i 9 i n 6 .         . ~ sXiXpXhX3 ",
"o d.>XP. X7.X .         + j k M i w t i c P H p H P J I H H K g i 9 i M n 5 .         . 3 *XpXiXsX6.",
"s [.I.U..X) X         . o h k x k r e i p p P m H I P J C i p r 9 i c x k 4           . . 8.pX).aXe.",
":.&XR.Q.n.> .           O 2 h r x r x k e i m p m m p c c i i i m c x r t 5 .         . . O.wX/.5Xe.",
":.7X!.W.N.$ .         . O 6 h k r r i m m e 9 e i m e e c c i x m c x x k < .           . 3 {.!.W.I.",
"-.9X/.1XB.$ .           O 2 w e k r i x m N r 7 7 p c e r c c c c c r x z 4 .           . # ].R.T.W.",
"-.eX/.~.#X$ .           O 5 6 w e r i i i P N i p K B f m m x i m e i x z 6 .             # ].P.T.Y.",
"-.eX/.4XfX$ .           . ; 4 4 w r x x i H H H K I m f p m m i m i i r t 5 .           . $ ].^.Y.R.",
"-.wX!.4X$X= .           . - 6 w w w k x c H c p K K H m p H m i x n x w k 5 .             $ S.!.R.W.",
":.8X!.!.#X$ .             @ 6 4 e w r c i p m p H H H f m H x i i m e w j ;             . a XX!.W.L.",
"/ *X(.(.%X9 .             O 5 6 w e k c i m m H K p S H m p i 9 i n x z 5 . .           X f.2X!.6Xy.",
"$ r.6X/.>X;.X             . ; 6 w e c x c m K p H H m H C i x i m n n b - .           . % q.1X!.qX6.",
"o f.0XY.Q.t.= .             O 5 h w r c m i f m H c m m m p i x n n z 4 .             . 9 &X!.^.&Xy ",
". , .XQ.T.%Xg .               O 5 4 k x m m m m p c p m c c i x n k l +               X r.,X!.1XB.& ",
". o q.>XP.>Xk.# .               @ 5 z z N i i m f f m p m i i M z j @               . q 7X~.!.9X_ o ",
"  . a $XI.H.@Xd .                 O 5 b M x n N x m N c M n b l 5 + .             . # w.1X`.~.[.= . ",
"  . o d.XXH.K.v.8 . .             . . + 2 l W M x M W v W 6 2 O .               . . [ 0X!.!.0X` . . ",
"    . 3 OXK.H. XV.3 . .                 . O * * j l < + * O .                 . . 0 {.4X!.2Xl.# .   ",
"      X a N.J.H. Xb.3 . .               .     . . . .     .                 . . 9 |.1X!.1X%X0 .     ",
"      . o _ |.H.H.oXk.3 . .                                               . + ^ }.qX^.1X-XA X       ",
"        . + ' |.H.H.{.l.q + . .                                     . . . % q.0X1X!.1X-X^ . .       ",
"          . o [ }.J.Z.A.N.d.0 O . . .                       .     . . o a j.9XE.!.1X;X^ . .         ",
"            . O ( B.{.Z.Z.].m.9.s % X .       .             . . X o s r.oX,X~.~.9XOXg o             ",
"              . . q 0.[.F.Z.G.XXgXk.o.3 > X X . . . . X X o = 3 { g.$X>XI.Q.:XXXq.> . .             ",
"                  . # { c.%XK.Q.W.:XXX{.b.:.] ' ' ' ' ] [ ;.c.m.A.A.H.H.J.%XV.s o . .               ",
"                    . . > ;.}.7X:X1XI.I.G.{.[.[.[.[.OX[.@X%XF.D.x.A. X.Xl.) $ . .                   ",
"                      . . X > d k.#X=X7X XJ.{.S.A.S.S.{. X X{.}.n.k.g.a = . . .                     ",
"                            . . o : A ) l.n.n.v.v.n.z.z.v.c.0./ a = X . .                           ",
"                                . . . . # = : $ : 8 $ $ = $ + . . . .                               "
};
