/* XPM */
static char *_483479944394[] = {
/* columns rows colors chars-per-pixel */
"50 74 247 2 ",
"   c #010000",
".  c #0B0000",
"X  c #130200",
"o  c #1B0600",
"O  c #1C0B01",
"+  c #140A04",
"@  c #1B100C",
"#  c #230C00",
"$  c #2B0C00",
"%  c #200600",
"&  c #261100",
"*  c #2C1303",
"=  c #22150C",
"-  c #2B160A",
";  c #2C1A0D",
":  c #331502",
">  c #351B03",
",  c #3B1B03",
"<  c #341B0B",
"1  c #3B1E0B",
"2  c #3C1500",
"3  c #2D1C11",
"4  c #331E11",
"5  c #3B1F12",
"6  c #3D2301",
"7  c #3D210D",
"8  c #362012",
"9  c #3D2313",
"0  c #3B2518",
"q  c #431D03",
"w  c #431D07",
"e  c #442202",
"r  c #4C2202",
"t  c #492C00",
"y  c #42230D",
"u  c #4B240C",
"i  c #472B00",
"p  c #512404",
"a  c #542509",
"s  c #572B0C",
"d  c #583908",
"f  c #432512",
"g  c #4C2D1B",
"h  c #482A15",
"j  c #552C11",
"k  c #592E12",
"l  c #512F1B",
"z  c #4F301C",
"x  c #5B3013",
"c  c #52311B",
"v  c #5A3918",
"b  c #4E3304",
"n  c #623B00",
"m  c #6A330E",
"M  c #67310D",
"N  c #643413",
"B  c #6C3612",
"V  c #6D3814",
"C  c #693B1D",
"Z  c #743C15",
"A  c #7A3E15",
"S  c #743E1A",
"D  c #793C17",
"F  c #6E340B",
"G  c #472F21",
"H  c #5D3A23",
"J  c #593925",
"K  c #633C22",
"L  c #6A3E23",
"P  c #5E4111",
"I  c #6E4A0C",
"U  c #68460B",
"Y  c #794B01",
"T  c #7C5109",
"R  c #624412",
"E  c #6A4917",
"W  c #7C4016",
"Q  c #75421C",
"!  c #7C431B",
"~  c #774F11",
"^  c #7B5515",
"/  c #7C591B",
"(  c #775416",
")  c #6F501A",
"_  c #64412C",
"`  c #6D442B",
"'  c #694226",
"]  c #744423",
"[  c #7B4622",
"{  c #7C4926",
"}  c #73462B",
"|  c #74492B",
" . c #7C4B2B",
".. c #784828",
"X. c #6B4834",
"o. c #764B31",
"O. c #7E5135",
"+. c #7C5C27",
"@. c #843E11",
"#. c #8B3F0D",
"$. c #844808",
"%. c #875807",
"&. c #8C4414",
"*. c #83451C",
"=. c #8C4619",
"-. c #84481D",
";. c #8C491D",
":. c #874415",
">. c #934C1C",
",. c #9B4E1C",
"<. c #944715",
"1. c #825B17",
"2. c #99511E",
"3. c #9A560B",
"4. c #A3531D",
"5. c #BA5E1F",
"6. c #8E6518",
"7. c #966918",
"8. c #9F6F10",
"9. c #A46E07",
"0. c #A6710C",
"q. c #AA750D",
"w. c #AE790F",
"e. c #A97307",
"r. c #B17B0E",
"t. c #B77B09",
"y. c #A57314",
"u. c #AA7612",
"i. c #A4741A",
"p. c #AB7816",
"a. c #B47D13",
"s. c #B27D1A",
"d. c #A16F18",
"f. c #824720",
"g. c #844B23",
"h. c #8C4C22",
"j. c #834D2C",
"k. c #8C4E29",
"l. c #924E23",
"z. c #8F5027",
"x. c #8C512C",
"c. c #86512D",
"v. c #945124",
"b. c #9B5323",
"n. c #94532A",
"m. c #9B552A",
"M. c #9C582B",
"N. c #8B5431",
"B. c #865435",
"V. c #945A34",
"C. c #814E31",
"Z. c #A25523",
"A. c #A25825",
"S. c #AA5D2A",
"D. c #A65A28",
"F. c #BB5F21",
"G. c #B25F26",
"H. c #A25F34",
"J. c #896526",
"K. c #936D2A",
"L. c #956C24",
"P. c #9E7323",
"I. c #987129",
"U. c #9A623D",
"Y. c #9A7435",
"T. c #8F6D30",
"R. c #BD6224",
"E. c #B5632C",
"W. c #BB662B",
"Q. c #BD692C",
"!. c #B56227",
"~. c #A27524",
"^. c #AB7D25",
"/. c #A57B2D",
"(. c #A97B2A",
"). c #A77922",
"_. c #AE6C3A",
"`. c #BD6B33",
"'. c #B76A37",
"]. c #A57B32",
"[. c #B77A3E",
"{. c #AD6228",
"}. c #C26E1D",
"|. c #CD7D1C",
" X c #C26526",
".X c #C46A26",
"XX c #CA6A27",
"oX c #C46629",
"OX c #C5692B",
"+X c #CA6C2C",
"@X c #CA6726",
"#X c #D06F2C",
"$X c #CE712E",
"%X c #C87824",
"&X c #D3722E",
"*X c #C36D32",
"=X c #CC6E31",
"-X c #CD7132",
";X c #CA753A",
":X c #C57239",
">X c #D27333",
",X c #D97634",
"<X c #DC7936",
"1X c #D67939",
"2X c #E07D3A",
"3X c #966444",
"4X c #B26D40",
"5X c #B87447",
"6X c #B3734D",
"7X c #D47D43",
"8X c #C17D4E",
"9X c #BC810F",
"0X c #B4811C",
"qX c #BC8418",
"wX c #AE8027",
"eX c #BE8924",
"rX c #B68528",
"tX c #B68835",
"yX c #C48915",
"uX c #C38A1B",
"iX c #C78A16",
"pX c #CE911C",
"aX c #D49214",
"sX c #DA9717",
"dX c #D18B12",
"fX c #E49E15",
"gX c #E69E0E",
"hX c #F5AA0E",
"jX c #EBA51A",
"kX c #E9A216",
"lX c #F2A916",
"zX c #FAB113",
"xX c #C48C27",
"cX c #CA9126",
"vX c #CB942C",
"bX c #C79029",
"nX c #D69928",
"mX c #C79337",
"MX c #D59D37",
"NX c #CA8C37",
"BX c #DFA12A",
"VX c #DCA030",
"CX c #E7A525",
"ZX c #E5A834",
"AX c #F3B22A",
"SX c #D68246",
"DX c #DBA440",
/* pixels */
"                                    o 0 - . . .                                                     ",
"                                  . * X.J g ; X .   .                                               ",
"                                  . H C.B.C.} K , # . .                                             ",
"                                  - B.x.k.m.n.c.O.` G & + . .                                       ",
"                                + z  .g.k.n.n.m.k.g.c.C.K 1 % X                                     ",
"                              . f | Q Z D *.h.v.n.v.n.k.k. .L z - X . .                             ",
"                            . o ' ..[ ! A @.*.-.l.l.v.m.k.k.x.N. .L h % . .                         ",
"                            . h | -.-.*.g.j.Q ] { j.j.c.n.n.l.l.n.N.C.` z 4 + .                     ",
"                            @ K Q ! -.*.{  .| _ f f g _ } j.n.l.l.l.k.k.j.[ K 5 $ .                 ",
"                          . 1 ` Q Q ( { ] l * o . . . O $ H C.k.n.m.n.m.n.n.x.C.X.G .               ",
"                          o K ] Q Q ] ' - . .     .   . . o f } k.l.n.n.l.v.m.j.C.G .               ",
"                        X g L S Q Q ' * .                 . . f C.k.@.l.h.l.v.j. .< .               ",
"                      . < | ] W W ] z . .                   . O L S ! ;.h.h.v.j.H - .               ",
"                      X H  .g.-.! ] - .                       . K C.f.-.:.-.k.{ u < .               ",
"                    . ; ' ! { -.f.| - .                       . : ..f.f.*.! ..k w - .               ",
"                  . X J ] Q W *.!  .* .                       . w ..[ *.g.g.] e 9 3 .               ",
"                  . 5 } S D D W Z ..G X .                     X '  .! ! ! Q k w 9 3 .               ",
"                  o H C.k.-.f.@.D [ L * .                   . * E ! ! ! Q M u y 9 3 .               ",
"                . 5 ..k.h.h.l.l.:.W { L - .             . . * H L V Z Q ] u y f 0 3 .               ",
"              . $ L f.h.l.h.l.v.n.h.*.Q ' : X . . . . . X ; ` ] Q Q Q Q x e 7 7 8 ; .               ",
"              . u 6Xm.#.=.;.;.h.h.v.v.f.[ ] c y y y y u c |  .f.-.! ! Q u w y f 9 ; .               ",
"              . a 6X4X*XE.,.<.<.=.;.l.v.n.g.f.{ ........[ ! -.f.;.g.[ v u 1 7 y 0 3 .               ",
"              . k 8X:XOX*XW.E.D.,.&.&.;.v.n.n.n.z.-.h.! W ! *.D -.g.j.s u f 7 7 9 3 .               ",
"              . p 4X`. X>X=X=X*XW.Z.,.&.:.<.v.b.M.v.n.v.:.-.*.@.W W N u y y y 7 0 3 .               ",
"              . p 4XE.Q.>X+XOX-X-X-X`.E.4.>.@.h.l.v.A.m.m.v.l.f.{ B a u f y h w 9 3 .               ",
"              . a SXQ.*X-X+X+X>X+XR.*XOX*X:XS.<.<.#.>.b.m.m.A.x.c.s u u w f f f 8 ; .               ",
"              . a 4X`.R.-X X+XOXoXW.-X-XoX*XW.*X*XS.#.#.@.l.n.N.{ r u f , 1 y f 9 3 .               ",
"              . s _.*XW.OX=X+X>XR.OXOX=XF.=XoXOXoX*X*X:X4.#.@.@.N u y y w f f 1 9 3 .               ",
"              . a 5X:X>X XOXOX#XOX$X=X X X>X+XR.=X>X>X,X=X*XZ.Z a u y y f 1 w f 8 3 .               ",
"              . a _.*X+XOX+X+X X+XOX=X+XW.OX X X=X+X@X,X,X;X:Xh.p h y y w 9 f 9 7 3                 ",
"              . a 4X*X=X+XXX+XoX=X-X X=XOX+X XOX=X+X&X,X,X@X7Xm.p u y y y y w 9 9 3 .               ",
"              . j 5X`.+X+XOX&X>X>XOXF.=X<X+X+X X>X+X<X,X>X>X7XZ.p e y f y 1 y 7 0 3 .               ",
"              . u _.E.-XOXoX=XoXF.oX+X=X=XoX=X>X+X#X&X<X}.>X;Xb.r u y y y 7 y 7 9 ;                 ",
"              . p 5X*XR.+XF.=X=XoX+X+XoX@XoX+X=X@X#X<X,X>X&XSX=.r y y y f y 7 9 8 =                 ",
"              . a 5XW.OX=X+XoX=X+X;X=XoX=X+X XOX#X,X2X,X&X>X1Xv.p y y f f h y 9 ; .                 ",
"            . X M 8X!.OXOX+X+X=X=X+X+X X=XoX X#X>X#X&XXX&X2X;X=.r u y y y 7 7 7 g 3 +               ",
"            . i {.Q.R.$X>X XOXoX+XoX+X+XOXoX X>X>X@X,X&X$X-X:X:.q y y y y y < , j H P + .           ",
"        . . t [.NX.X.X.XOX X>X>X+X+XoX+XoX>X&X>X+XoX,X,X%X1X7X2.p f w 1 f 7 1 7 e N 3X+.6 .         ",
"        X i rXcXiX}.R.$X=XW.OX+XG.=X>X+XOX.XOXXX&X+X>X+XXX>X;Xv.p y 1 y 7 > , f q d P.~.T.> .       ",
"    . . e tXnXdX|.}.Q.*XOXR.R..X X=X>XF.+X+X&XOXOX#X+X&X$X>X;X:.p y y 7 7 > 7 y e d i.y.(.I + .     ",
"    . o 7.BXsXdX%X%XQ.Q.W..X=XQ.=X XOXR.+X>X XOX$X&X>X<X>XOX:X;.p y h y < , f 1 , d ~.u.s.^.E o .   ",
"  . X +.vXsXsXiX3.{.A.!.!.G.*X`.*X=XOXOXoX>X XOXOX.X#X,X>X+X;X2.p u f , > f f 5 7 e ^ 7.q.u.Y.6 .   ",
"  . , tXsXsXcX3.q { n.b.Z.b.E.`.G.*XF.*X X X+XF.-X+X@X,X&X$X;X>.q h 1 < 1 9 7 7 1 : $ ^ i.9.8.6.& . ",
"  X %.ZXfXfXtX, o 2 { ;.>.<.>.b.,.E.*XW.*XOX*XF.-X&X#X,X&X&XSX>.p 1 , < 1 9 7 < 8 - X e 7.y.9.^.P + ",
". > vXCXfXMXI o X h Q A -.v.;.;.=.b.D.4.E.W.G.*XoX-X+X>X+XOX7X=.q , , < < , < 5 5 - . . ( i.e.0XY.# ",
"X / CXhXfXxX: . # _  .D -.-.-.-.;.;.;.=.S.'.4.E.G.W.-X-X-XOX;X:.q , < 1 1 1 1 < 8 = . . , L.r.qXwXt ",
": ~.CXlXVX%.X . 7 B.{ :.:.F F ! g.g.;.z.2.2.<.b.Z.,.Q.*X*X-X:Xh.q , 1 f 7 < < < 8 ; . . o / qXyXeXY ",
"Y DXjXjXvX2 . . y N.v.v.m.W Z m m Z ! ! h.l.h.;.>.&.b.S.4.`.'.h.q w 5 1 < 1 < < 8 =     . E rX9XuXq.",
"Y nXfXjXmX: . . , V.m.A.b.v.v.! V M M V Q W -.;.*.:.:.;.#.m.H.B , f y 1 1 < ; < 3 + .   . & 7.t.a.qX",
"9.CXlXCX(.# . . 7 V.m.b.S.b.M.-.! ! Q V m B A ! g.-.A *.f.v.n.N q f 7 < 1 > 8 8 = .       # 6.r.r.r.",
"AXlXhXCXU . . . 1 N.n.b.S.A.v.-.*.z.h.! A V B V Z S ! f.f.f.g.N e f 1 < < < 8 ; +         O 6.u.u.w.",
"zXhXhXnXU .   . w N.v.<.A.A.b.;.;.z.;.*.z.-.W V B M B S Z S V x l y < < < 8 8 @           O 6.0.q.w.",
"zXhXhXZXI X   . e U.M.,.b.2.b.v.z.;.;.;.z.;.! g.g.D B B B V k k c , < < > ; = .           O 6.0.0.q.",
"lXlXhXAXI X   . y U.D.b.b.2.2.b.>.2.;.l.;.z.*.z.k.D j.f.V N N x y , > > 8 3 +             O 6.q.q.w.",
"t.jXlXCXL.o . . u V.M.b.m.b.2.b.2.>.v.;.;.;.;.-.h.*.g.g.S S L k : < < < 3 = .             O 6.q.w.w.",
"%.ZXlXkXmX$ . . u U.m.,.>.b.b.b.b.2.v.;.;.z.*.h.@.! f.f.Z f...k 2 < < 4 3 +             . # 6.w.r.s.",
"%.MXjXkXvXq . . f 3XV.2.v.l.b.b.b.m.v.;.;.;.;.h.g.A D A Q [ ] s , < ; ; = .             . b i.t.s.%.",
", (.jXkXBX6.X . * ` 3XN.n.z.h.h.>.v.;.-.;.;.*.h.@.f.! ! *.S ] j : - 4 3 +             . & J.p.t.wXY ",
"X / nXgXfXvXe . . X - f X.O.j.f.z.-.h.*.-.g.-.h.g.S ! ! *.S ] x > < 3 = .             . , (.t.qX(.r ",
". , xXjXfXnX1.X .   . . o < y |  .{ { *.g.g.-.-.f.f.A *.! [ [ k : < 3 .             . O ^ qXyXxXK.# ",
". X %.VXsXaXrXe .       . . . o h z X.| j.f.f.h.f.f.D f.W Q ] k > 3 @               . d rX9X9XrXb . ",
"  . t tXsXaXnX(.& . .           . . * J K } { j.S S S D ! ! ] j < 3 .             . i I.qXt.0X1.o . ",
"    + d vXaXaXcX~ O .             . . . o 4 J X.} ] [ D ! { ..j < + .           . X ^ 0X9Xr.I.> .   ",
"    . # 7.cXaXpXbX~ o .                 . . X # h ` L } Q ] ] j - .           . + R i.w.0X).d .     ",
"      . * L.vXdXaXbX~ O .                   . . . O - J X.} } c O           . > U i.9X0XwX/ O .     ",
"        . & 7.cXaXpXbXK.i X .                       . X * 9 _ G . .     . + 6 K.0X0Xr.0X/ O .       ",
"          . & K.bXaXiXcXwXI : X .                     . . . + @     . . & P 6.y.w.0X(./ & .         ",
"            . & 7.vXaXiXuXeX].E > . . .   .   .   .         . . . . & d J.P.q.q.0X).( O .           ",
"              . O J.tXvXiXyXyXeXi.6.b 6 X . . . .   . . . . & > t ^ 6.wX0Xr.s.wXK.i O .             ",
"                . X i ~.eXuXyXyXuXqXtXwX^ ) E R P P d P d P J.K.P.i.q.0X0X0X(.( * .                 ",
"                  . . # P L.tXxXuXiXuXyXuXxXqXwXi.7.7.7.i.i.i.y.y.u.s.wXY.) 6 . .                   ",
"                      . . * e 1.wXeXxXqXiXyX9XqXw.0.9.9.y.u.u.y.).P.6.U 6 X .                       ",
"                          . . X > d E K.Y.~.~.(.(.~.~.P.L.L.J.+.v 6 X . .                           ",
"                                . X X $ $ $ e n n d n n e $ $ O X   .                               "
};
