/* XPM */
static char *_483479948204[] = {
/* columns rows colors chars-per-pixel */
"50 74 240 2 ",
"   c #010000",
".  c #0B0000",
"X  c #130100",
"o  c #1C0500",
"O  c #1D0B01",
"+  c #170900",
"@  c #1F1009",
"#  c #210500",
"$  c #230D00",
"%  c #2C0C00",
"&  c #350E00",
"*  c #261202",
"=  c #2B1401",
"-  c #2E1900",
";  c #2D190E",
":  c #311502",
">  c #351B00",
",  c #351B0C",
"<  c #391E0E",
"1  c #3A1E00",
"2  c #371D10",
"3  c #281A11",
"4  c #3E2501",
"5  c #372000",
"6  c #3E2312",
"7  c #3B2518",
"8  c #441C00",
"9  c #412500",
"0  c #452900",
"q  c #4B2900",
"w  c #5B2E02",
"e  c #5D2D0B",
"r  c #572804",
"t  c #4B330A",
"y  c #593400",
"u  c #593905",
"i  c #422514",
"p  c #452816",
"a  c #472B1A",
"s  c #4C2D19",
"d  c #492916",
"f  c #522E19",
"g  c #532E12",
"h  c #4C301F",
"j  c #52311D",
"k  c #5C3617",
"l  c #632F0A",
"z  c #64310E",
"x  c #69330D",
"c  c #693A03",
"v  c #763E08",
"b  c #643312",
"n  c #693613",
"m  c #6D3915",
"M  c #61381F",
"N  c #6C3B1B",
"B  c #643718",
"V  c #743C15",
"C  c #7A3E14",
"Z  c #743E1A",
"A  c #793E19",
"S  c #472E21",
"D  c #553522",
"F  c #5A3621",
"G  c #5C3A24",
"H  c #553924",
"J  c #643D24",
"K  c #6C3E22",
"L  c #643C2B",
"P  c #684509",
"I  c #744500",
"U  c #704906",
"Y  c #654511",
"T  c #694A14",
"R  c #6D4D1A",
"E  c #654717",
"W  c #7C4216",
"Q  c #76411C",
"!  c #7C431B",
"~  c #754714",
"^  c #7D5A1B",
"/  c #795516",
"(  c #6C4124",
")  c #65412B",
"_  c #6C452B",
"`  c #664126",
"'  c #754321",
"]  c #7B4522",
"[  c #7E4924",
"{  c #74472D",
"}  c #744A2D",
"|  c #7D4D2E",
" . c #754926",
".. c #6C4633",
"X. c #754B32",
"o. c #7A4D33",
"O. c #714E3B",
"+. c #7B5138",
"@. c #7B5622",
"#. c #833F12",
"$. c #874A0A",
"%. c #8C5500",
"&. c #895506",
"*. c #834315",
"=. c #894516",
"-. c #83451B",
";. c #8A461A",
":. c #85491D",
">. c #8B4A1E",
",. c #874A15",
"<. c #944C1B",
"1. c #994F1D",
"2. c #914B16",
"3. c #875A1D",
"4. c #9C521E",
"5. c #935618",
"6. c #915800",
"7. c #A2531E",
"8. c #AD581F",
"9. c #9D620B",
"0. c #8E661C",
"q. c #956816",
"w. c #9E711E",
"e. c #A56D0A",
"r. c #AB750C",
"t. c #AF7505",
"y. c #B47C0B",
"u. c #B57905",
"i. c #A46B18",
"p. c #AE7914",
"a. c #A4751C",
"s. c #A8771A",
"d. c #A6781D",
"f. c #AD7A1D",
"g. c #A97412",
"h. c #B37C13",
"j. c #B27D1B",
"k. c #814621",
"l. c #854A23",
"z. c #8C4D22",
"x. c #834D2C",
"c. c #8B4E2A",
"v. c #934F22",
"b. c #934F28",
"n. c #8E5124",
"m. c #8E522C",
"M. c #85552B",
"N. c #955124",
"B. c #9C5423",
"V. c #94542B",
"C. c #9B5529",
"Z. c #96592E",
"A. c #9C5A2D",
"S. c #9E5A26",
"D. c #844F31",
"F. c #865332",
"G. c #895636",
"H. c #965A32",
"J. c #995C33",
"K. c #965933",
"L. c #A25623",
"P. c #A45925",
"I. c #AB5B24",
"U. c #A45B29",
"Y. c #AA5D2A",
"T. c #AA5721",
"R. c #B15D25",
"E. c #B25F28",
"W. c #896425",
"Q. c #966F2B",
"!. c #986824",
"~. c #9C7225",
"^. c #9B722A",
"/. c #946E34",
"(. c #AD612C",
"). c #A6602D",
"_. c #B56027",
"`. c #B4622A",
"'. c #BA652C",
"]. c #BD682F",
"[. c #A27525",
"{. c #A57824",
"}. c #AB7C24",
"|. c #A27629",
" X c #A4792A",
".X c #AE7829",
"XX c #BD6A32",
"oX c #B26532",
"OX c #A87D32",
"+X c #AC6B31",
"@X c #C36D34",
"#X c #CB7238",
"$X c #BD8313",
"%X c #BC841C",
"&X c #BE881E",
"*X c #BC800E",
"=X c #BB8623",
"-X c #B2832C",
";X c #BB8828",
":X c #B38433",
">X c #BC8C38",
",X c #AE8432",
"<X c #CA8A0D",
"1X c #C6870C",
"2X c #D5920E",
"3X c #C28712",
"4X c #C48914",
"5X c #C98B11",
"6X c #C58A1B",
"7X c #C88B18",
"8X c #D69313",
"9X c #DA9612",
"0X c #DD9914",
"qX c #D4941A",
"wX c #D9961A",
"eX c #D9991C",
"rX c #D38F0A",
"tX c #E19C14",
"yX c #E19D1C",
"uX c #EEA20B",
"iX c #F0A40C",
"pX c #ECA312",
"aX c #ECA51C",
"sX c #C28B23",
"dX c #C98C25",
"fX c #C58A27",
"gX c #CB9124",
"hX c #C89229",
"jX c #D69824",
"kX c #D59B2E",
"lX c #DA9E2D",
"zX c #D69824",
"xX c #C48F38",
"cX c #CA9531",
"vX c #C69437",
"bX c #D49A30",
"nX c #E09F27",
"mX c #DEA02F",
"MX c #E5A427",
"NX c #E5A831",
/* pixels */
"                                          . & L 2 X                                                 ",
"                                          $ L o..., X                                               ",
"                                      . $ _ D.c.c.{ G # .                                           ",
"                                      O G F.V.b.K.c.D.G = .                                         ",
"                                    $ G  .Q -.n.V.V.m.x.{ d X .                                     ",
"                                  + `  .] W V -.>.N.C.b.c.D.S % .                                   ",
"                                . 6 | [ :.:.:.~ -.z.C.A.b.m.D.K , X .                               ",
"                              . 6 _  .! :.:.:.:.-.*.;.v.b.V.V.m.o.D X .                             ",
"                            . < ` ' Q ! -.:.:.>.n.-.-.:.;.C.C.n.V.D.M : .                           ",
"                          . < _ Q V ~ ! -.:.:.:.z.:.;.-.:.>.C.N.b.K.G.X.< . .                       ",
"                        . 6 _ Q C ~ m W W W :.:.:.-.>.z.:.>.>.N.C.b.V.K.D.f $ .                     ",
"                      . 6 X.@.W C ~ W W ! W ~ :.! -.:.z.>.-.>.>.v.v.B.b.V.F.G , X                   ",
"                    . < _ ' :.:.:.W ! W ~ ! W -.:.-.:.:.:.:.:.>.v.b.C.C.v.C.m.D.f X .               ",
"                  . 6 _ Q W ! :.:.n.:.~ W :.W -.:.:.:.,.:.:.>.-.;.v.v.N.B.C.C.b.| J ; .             ",
"                X i o.[ ! C W W -.:.-.W ~ W ! :.:.-.*.:.W -.-.-.;.;.z.b.b.B.C.v.z.F.O.o             ",
"              . i { l.c.z.-.*.! W W -.-.-.*.*.-.:.-.:.*.-.! -.! l.-.#.l.v.v.C.L.C.m.o.o .           ",
"            . , _ k.c.z.c.b.-.#.! W W W :.>.:.-.W ! -.;.-.! ! W ! z.:.-.-.v.v.N.L.K.+.#             ",
"              H G.-.#.b.>.b.b.;.*.-.W W -.:.:.-.W V C -.! *.W W *.>.z.>.-.=.v.U.oX+Xo.o .           ",
"            . H K.v.#.>.v.z.b.C.>.W C W W :.:.:.>.-.*.! W :.-.-.:.*.-.v.>.=.P.oXY.).o.o             ",
"            . G K.U.U.v.;.>.;.b.b.:.W C W W -.,.:.l.:.*.W -.! ! -.-.-.:.2.U.Y.4.U.J.o.# .           ",
"            . G m.U.C.B.<.;.;.z.v.N.>.C W W *.*.-.-.:.:.! ! W W ~ ! *.=.).4.4.4.Y.C.G.o .           ",
"            . j m.P.S.L.U.v.;.;.>.v.C.b.:.*.*.-.-.*.:.:.-.:.-.W C C :.U.).4.i.U.U.b.+.o             ",
"            . D J.L.L.L.L.N.C.B.=.#.v.v.C.v.>.-.*.-.-.:.:.n.>.W W W S.).).4.U.P.B.V.X.o .           ",
"            . j J.1.B.P.B.B.U.S.>.=.;.v.A.A.B.N.*.W -.-.:.>.>.>.,.2.S.I.P.7.I.4.S.V.X.o             ",
"            . s H.B.L.B.B.L.Y.L.Y.U.v.#.;.v.A.C.C.z.#.#.C *.>.N.B.P.7.U.7.`.U.7.4.Z.+.o .           ",
"          . . j H.L.B.S.L.B.L.P.U.4.U.S.#.#.v.P.U.V.b.l.*.*.=.S.(.(.P.U.`.`.I.L.U.Z.o.O             ",
"            . j K.B.2.S.1.P.B.L.B.L.P.L.N.<.#.l.v.B.C.B.;.*.4.oXU.I.7.Y.'.I.`.Y.S.Z.o.o .           ",
"            . D K.B.B.P.L.P.P.P.7.P.U.B.P.Y.v.#.-.v.C.S.1.L.`._.I.I.I.`.XX`.I.L.P.Z.+.o             ",
"            . f H.L.<.<.L.(.L.U.L.U.Y.4.P.B.B.L.=.#.2.B.Y.E.'.R.R.E.@XE.Y.T.L.Y.(.Z.X.O             ",
"            . F H.U.B.4.U.L.1.U.4.Y.L.T.Y.7.P.P.C.2.=.B.`._.@X@X@X@X'.R.7.P.L.I.U.V._ o .           ",
"            . f V.4.B.4.L.L.U.L.4.Y.P.B.U.T.L.L.P.E.U.`.`.'.@XE.R.R._.I.I.I.I.I.P.z.X.o             ",
"            . j H.U.L.L.L.).U.L.7.Y.P.L.T.U.P.L.E.Y.E.`.`._.E.R.R._.P.`.P.U.Y.`.Y.Z.o.#             ",
"          . . f J.<.B.L.S.P.B.U.P.U.L.P.L.U.7.U.8.(.I.8.8.R.R._.`.I.7.I.1.I.U.I.I.J.+.o .           ",
"            . F K.B.L.L.B.<.<.B.1.1.B.P.L.7.U.L.4.8.(.'.@X].8._.'.R.7.L.L.7.L.Y.L.Z.X.X             ",
"            . j K.P.P.C.L.P.L.Y.Y.U.I.P.4.Y.L.I.7.(.'.@X#X@XR.'.`.I.7.Y.L.7.Y.(.L.H.{ o .           ",
"            . F K.P.B.B.Y.B.1.B.L.B.L.P.U.Y.L.L.i.(.R.8.@X'.].'.].R.T.P.1.4.Y.L.B.V.` o             ",
"            . f K.U.B.1.L.B.L.Y.B.<.L.P.U.1.1.I.Y.7.'.R._.'.'.I.'.`.7.L.7.L.L.4.1.n.g X             ",
"          . o k V.<.N.B.S.B.P.P.B.P.U.U.(.Y.L.U.L.7.'.R._._.'._.`.R.I.U.L.L.B.1.2.)./.> .           ",
"        . - @.!.5.,.>.B.B.4.B.B.C.U.L.7.L.4.2.4.U._.XX_.8.R.'.`.`.L.4.B.L.S.,.=.$..XxX|.> .         ",
"        X R OXi.,.*.:.:.V.B.B.B.L.L.L.U.Y.Y.U.).(.I.R._.'.].`.8.(.7.B.P.Y.P.v.:.$.2.j.cXOX> .       ",
"      + T  Xf.i.5.-.W W n.N.P.S.L.B.L.I.L.L.Y.U.Y.I.R.`.I._.'.I.I.I.4.P.U.A.l.V C $.9.dXbX~.o .     ",
"    . E  Xe.e.i.$.c x ! ] v z.C.L.B.L.U.4.L.T.L.L.L.I.'.`._.@X8.8.P.4.N.l.#.x l C =.$.6XqXdXP X     ",
"    : Q.s.e.i.$.*.V z Z ! m -.>.C.B.B.S.1.L.B.U.Y.`.I.I._.R.@X@XXX`.5.>.-.l x m -.v %.#X8XqXvX9 .   ",
"  X P -Xr.g.5.v >.m m N b n Z V ;.V.S.1.P.P.L.U.L.7.I.`._.I.'.@XXXY.>.l.m l n k.z.=.$.h.wX0XkX0.o   ",
". - ~.$Xr.i.y r x.! Z x b b m b ! z.>.v.L.P.L.L.L.I.`.@XI.I.T.7.P.N.:.V z V -.l.-.! x c 6XwXeXcX0 . ",
"X R =X$Xg.0.% d c.l.c.V b b e N Q C ! >.C.S.S.B.4.I.R.@XR.`.L.<.N.l.x e V l.z.:.:.] J & 9.7XrXmXW.$ ",
"y OX6X$X}.y X s x.>.l.-.] b b k b N ] -.>.N.N.S.L.I.R.'.'.XXS.>.] l r b ] c.n.z.:.[ L # w ;XwXeX>X: ",
"I =X<X4X X% X p x.z.z.z.z.Z n b l b ! Z C l.:.B.B.L.(.Y.L.S.<.z.b r r Z -.-.W W l.] G # % !.eX0XcXc ",
"t.qX<X6X3.+ . i [ z.z.v.l.A A Z b N z b A A A z.v.B.P.B.2.N.c.m r l m k.-.z.-.:.-.] ..o X 0.zX9XzX6.",
"MXaXtXgXu X . s G.z.-.l.;.k.k.A Z N b b V Z A A -.v.U.C.;.z.m r b Z k.z.l.C -.! -.x...o . T jXtXzXe.",
"pXpXuXlXu . . a x.-.A :.c.-.! ! A Z m N b b A N V -.;.V.l.Z e b Z A c.z.-.-.-.k.k.' ) o . = 6X0X9XwX",
"uXuXuXNXY X . i  .z.-.A Z -.A -.A Z V Z n B b b m Z ! c.m r b V A ] c.-.#.:.-.-.l.o.S X . * =X9X9X2X",
"uXuXuXNXT X . a  .-.Z ! ! -.! ! Z -.A ] Z Z b b N m Z V l b Q ] A A l.A l.l.-.] } D X   . * fXtX9X9X",
"iXuXuXNXT . . S X.Q V ! ! Z V ! k.k.! A A ] Z Z N n N n n Q ! ! A Z ! -.! A [ { s + .     = ;X0X9X9X",
"uXiXuXMXP . . 3 G { N Q Z Q ! A k.-.A ! Z Z m ] m m m n Q Q Q ! Q Z Z ! ] Q o.d X       . = %X9X9X8X",
"aXpXuXNXP X   . + h G ( Q Q ! A A l.! Z V ! V ] Z m Z ! Z Z V Q ! ! Q Z ] } s X         X R dX9X0Xt.",
"qXaXpXzX^.$ .     . * H J ( Z ! ! ] Z V Q ! Z V Z ] A k.! A ] A ! ] ! N _ 6 X         . X ^ jX2XeX%.",
"&.kX0X8X-X= .         O 6 F K N Z ! ! ! ! Q V V Z ! A A k.k.Z ] ! ! ] { a X             = |.qXtXbX&.",
"y :XqXrXsXU .         . . , s M N Q Q V Z Z Q V V Z A k.! ! Z A ] ] _ i X             . q cXtXyX>X8 ",
"X / jXrX3X[.>               + a G K N N ] ! Q m m n ! ] A A V V ' } d X .             X q.lXtXnXQ.$ ",
". 9 ;X5X1X=XY .               + 2 H J m Z Z Z m V V m Q A Z Z ' J a X               X q gXtX0XkXu . ",
"  O 0.sX5X4X X: .               . = G L K N Z V m b Z Q ] Z ' J 6 X .             . = :XzXtXlX-X$ . ",
"  . 9 :X6X<X6X~.>                   @ p ) K ( m m N Z ! Z Z _ i X                 O &.kXpXaXxXy .   ",
"    . P =X3X5XfX/ X .                 . , s ` k N n m ' N _ a X               . X / bXwX0XkX/ X .   ",
"      $ 0.sX5X5X=XU *                   . O H k G B n K L i X                 o U cXyXyXmX~.=       ",
"      . > ^.dX5X4XhXQ.> . .                 + ; p g J ) i .               . = P j.qXwXjX}.= .       ",
"        . > ^.sX4X4X&Xw.u X .                 . O ; S 7 .             . o 0 ^.j.1X5XgX-Xu .         ",
"          . 5 !.sX4X3X%X-X/ 5 X . .               . * .   .       . + 4 ^ ^.j.*X3XhXw.y X           ",
"            . - M.-X6X3X$X%X{./ > * .     .         .   .   . X o 5 ^ {.j.y.3XsX>XW.$ .             ",
"              . + y {.=X%Xh.$X}.~.W.Y k = $ O O $ O O O O O t E / |.f.y.h.h.sX{.P $ .               ",
"                . X = T ^.}.p.p.g.g.s.a.a.d.d.d.d.a.d.a.q.q.{.}.j.p.y.h.}.OXW.4 . .                 ",
"                      . * P 0.}.s.j.%X$X$X4X3X4X5X3X3X4X$X$Xh.h.j.%X}.{.3.9 o .                     ",
"                        . . * t R OX:X;X&X&X$X$X$X$X$X$XgXcX;X{.^./.t 4 X .                         ",
"                              . X = y I I &.r.*Xy.u.*Xt.%.%.&.y % $ . .                             "
};
