/* XPM */
static char *_d8d60754db449c0b623ff1068c15c2c[] = {
/* columns rows colors chars-per-pixel */
"51 53 256 2 ",
"   c #010000",
".  c #0B0100",
"X  c #0C0800",
"o  c #130300",
"O  c #1B0600",
"+  c #160A00",
"@  c #1C0B00",
"#  c #1B1106",
"$  c #1C1309",
"%  c #220C00",
"&  c #290C00",
"*  c #251202",
"=  c #2B1500",
"-  c #2B1A01",
";  c #211409",
":  c #281B07",
">  c #341D01",
",  c #3B1E00",
"<  c #321400",
"1  c #261E12",
"2  c #3C2501",
"3  c #3B2804",
"4  c #3C2909",
"5  c #342000",
"6  c #37291A",
"7  c #292116",
"8  c #3F3124",
"9  c #422400",
"0  c #432A01",
"q  c #4A2D01",
"w  c #452F0A",
"e  c #4D3102",
"r  c #47320C",
"t  c #5C3C03",
"y  c #543A0C",
"u  c #5C3E0A",
"i  c #553604",
"p  c #442D15",
"a  c #442F1A",
"s  c #4B3412",
"d  c #46311A",
"f  c #4B351C",
"g  c #4E391E",
"h  c #4F3912",
"j  c #543D13",
"k  c #533A1C",
"l  c #573A16",
"z  c #562E00",
"x  c #613E03",
"c  c #613E15",
"v  c #433424",
"b  c #4E3A22",
"n  c #4C3B2C",
"m  c #4A3522",
"M  c #533C22",
"N  c #593E23",
"B  c #513F2B",
"V  c #5E400C",
"C  c #5D4211",
"Z  c #5B4418",
"A  c #654304",
"S  c #63420A",
"D  c #6E4C0C",
"F  c #6B4605",
"G  c #714E0B",
"H  c #744E07",
"J  c #76520C",
"K  c #7C550C",
"L  c #7F580D",
"P  c #795207",
"I  c #664A15",
"U  c #6C4D15",
"Y  c #654A1A",
"T  c #674819",
"R  c #734E16",
"E  c #6E511A",
"W  c #6F5010",
"Q  c #735213",
"!  c #7A5612",
"~  c #7D5914",
"^  c #73541B",
"/  c #7C5A1D",
"(  c #564126",
")  c #5B4125",
"_  c #55412B",
"`  c #5A432A",
"'  c #5B4633",
"]  c #5C4B3A",
"[  c #5B4832",
"{  c #624425",
"}  c #6C4C24",
"|  c #634629",
" . c #65492C",
".. c #6A4C2B",
"X. c #674825",
"o. c #6E512D",
"O. c #6F5321",
"+. c #735423",
"@. c #7A5B22",
"#. c #72522D",
"$. c #7D592E",
"%. c #7E5422",
"&. c #624D38",
"*. c #6E5233",
"=. c #65513C",
"-. c #745533",
";. c #7D5B34",
":. c #755738",
">. c #704E28",
",. c #735B42",
"<. c #7F6447",
"1. c #845C0E",
"2. c #855A08",
"3. c #825D1A",
"4. c #865C15",
"5. c #9B6B0F",
"6. c #93650E",
"7. c #8C6213",
"8. c #89621C",
"9. c #86601F",
"0. c #936714",
"q. c #916719",
"w. c #946A1C",
"e. c #9A6B17",
"r. c #956912",
"t. c #A46E08",
"y. c #A8730C",
"u. c #B37A0E",
"i. c #A06F12",
"p. c #A47314",
"a. c #A4751C",
"s. c #AE7B1D",
"d. c #AC7814",
"f. c #B47D12",
"g. c #B27E1B",
"h. c #895E2D",
"j. c #835A2E",
"k. c #825D34",
"l. c #805F3A",
"z. c #8B6625",
"x. c #896527",
"c. c #936C24",
"v. c #9B6C26",
"b. c #9D742A",
"n. c #9A7127",
"m. c #856035",
"M. c #8B6235",
"N. c #83623B",
"B. c #8A6439",
"V. c #936A3D",
"C. c #96683A",
"Z. c #9C7239",
"A. c #AC7C23",
"S. c #A57A2D",
"D. c #AB7D2B",
"F. c #A57723",
"G. c #B17E23",
"H. c #A3723C",
"J. c #A3783A",
"K. c #976E41",
"L. c #9D7344",
"P. c #977349",
"I. c #927455",
"U. c #997854",
"Y. c #8C6F4E",
"T. c #A67846",
"R. c #B17C45",
"E. c #B17F4E",
"W. c #BE820D",
"Q. c #BC8314",
"!. c #B6811C",
"~. c #BB851A",
"^. c #B68014",
"/. c #B58324",
"(. c #B98422",
"). c #B1822A",
"_. c #BC8829",
"`. c #B38531",
"'. c #B78934",
"]. c #C18412",
"[. c #C0881C",
"{. c #C0830E",
"}. c #C38D2F",
"|. c #AD834E",
" X c #BA864D",
".X c #B5854A",
"XX c #AD8A5D",
"oX c #BB8A53",
"OX c #B38756",
"+X c #BD925F",
"@X c #A98965",
"#X c #B58D64",
"$X c #B59165",
"%X c #B89269",
"&X c #C28A4C",
"*X c #C28E54",
"=X c #CB9355",
"-X c #C6945B",
";X c #D99C53",
":X c #CF9848",
">X c #DEA45A",
",X c #DFA95D",
"<X c #E1A65C",
"1X c #E4A95D",
"2X c #E0A756",
"3X c #F6BC5B",
"4X c #F9BE5C",
"5X c #E4B259",
"6X c #C39A6C",
"7X c #CB9B65",
"8X c #C29C72",
"9X c #D29E65",
"0X c #CCA26B",
"qX c #D5A265",
"wX c #DBA769",
"eX c #CBA374",
"rX c #C5A379",
"tX c #DAAC77",
"yX c #DEB275",
"uX c #E5AB62",
"iX c #EAAD63",
"pX c #E3AB6A",
"aX c #EAAF6B",
"sX c #ECB164",
"dX c #E4B16B",
"fX c #EEB46A",
"gX c #EDB96D",
"hX c #ECB966",
"jX c #F1B366",
"kX c #F5BB65",
"lX c #F9BE63",
"zX c #F3B56A",
"xX c #F4BA6C",
"cX c #F9BD6C",
"vX c #E4AF73",
"bX c #E4B173",
"nX c #EBB572",
"mX c #EEBB7B",
"MX c #E9B87A",
"NX c #F1B772",
"BX c #F5BC71",
"VX c #FABD72",
"CX c #F6BE79",
"ZX c #FCC15E",
"AX c #FCC263",
"SX c #FCC36B",
"DX c #FBC86B",
"FX c #FCC374",
"GX c #F9C377",
"HX c #DEB484",
"JX c #D4AE81",
"KX c #E7BA85",
"LX c #EEC389",
"PX c #F4C481",
"IX c #F7C882",
"UX c #F0C791",
/* pixels */
"                                                .   .                                                 ",
"                                      . . . + * * * % : * .   .                                       ",
"                                    . @  .*.XX%X6XtX0XeXeXo.M o .                                     ",
"                                . . ( $XHXHXPXGXdXuXGXMXmXLXJX@X( @                                   ",
"                                : P.yXIXyXdXGXgXFXuX>XGXnXNXPXyXHXU.+                                 ",
"                            . * XXmXDXhXDXhXiXGXgXBXiX>XBXhXgXBX,XKXI.+ .                             ",
"                            * $XPXDXAXZXAXDXBXsXVXxXVXxX<XBXFXsXxXnXyXU.+                             ",
"                          . :.UXgXAXAXZXZXAXDXxXjX1XjXVXVX>XfXxXiXGXMXHXY..                           ",
"                        . * %XvXVXjXAX4XZXZX4XlXSX<XsXcXxXxX1XiXVXsXBXMX8X> .                         ",
"                        . ,.UXdXuXVXcXAXAXAXAXlXDXSXsXzXxXxXVXiXsXGXxXnXKX| .                         ",
"                        . I.LXGXiX<XVXjXAXAX4X4XAXSXFXsXsXVXVXVXsX1XNXaXKX%X%                         ",
"                      . = #XNXzXhXiX>XiXxXkXlX3X4X4XlXDXjXiXiXiXVXjX;XfXCXeX& .                       ",
"                    . . T LXaXiXzXcXVX;XzXVXcXAXAXZXZXlXSXjXiXiXVXVXzX<XBXyX0 . . .                   ",
"                . . * O..XgXVXjXjXxXVXBX;XiXzXkXDXAX4XAXlXcXVXiXzXzXcXVX,XdXJ.E * . .                 ",
"              . . e 8.`.F.}.jXzXsXjXzXzXcX1X<XVXkXlXAX4X4XAXSXkX1XiXhXxXSX5X(.).b.e . .               ",
"              + y Z.s.(.G.:XxXiXcXkXcXzXxXVX<XuXFXxXlXZXAXAXAXcXVXxX1XgXgXDX}.~.!.S.u * .             ",
"          . o y v.i.y.s.v.C.NXNXsXVXVXiXjXVXVXzX>XzXcXcXAXAXAXAXSXFXhXsXGXhXG.(.].~._.z.= . .         ",
"          o s x.6.i.F.4.z R .XvXNXiXzXjXiXiXjXzXaX;XjXFXlX4XZX4X4XlXFXhXGXqXz v./.Q.Q.G.x.= .         ",
"      . o w 3.6.6.w.^ < & k X.|.mXVXjXjXzXiXVXzXVXjX;XjXcXkXAXZXAXAXcXGXgX0X> & S D.[.W./.3.o         ",
"      o r @.7.1.8.U O o O B { c |.mXVXiXjXVXzXzXzXVXzX1XsXcXcXAXAXAXcX>XwX%X* . O A /.Q.Q.A.i o       ",
"  .   - @.1.1.3.T @ . . + v ` k c E.vXpXuXzXNXiXzXzXxXVX>XuXNXxXcXiX<X&X-X8X* . . O 8.(.W.Q.D.e .     ",
"    . j L K 1.S O .     $ v B k s l T.7XvXPXnXNXNXfXNXBXGXpXwXpX=X=X&X&X7X$X@     . > v.Q.Q.(.8.O .   ",
"  . - ^ K L ^ 5 .       ; n 6 f d p l T j.0XeX-XbXmXmXvXwX-XH.T.H.H.H.*XtX#X@ .     . 2 G.].]./.e . . ",
"  o y ! P ! Z .         # ] f 6 d d f l l c c i h.T.C.j.j.h.j.C.C.H.H.9X7X#X* .     . o ! _.{.~.x.+   ",
". : E K K ^ - .         # ' N f d f g M N N k l N c T >.} $.k.B.C.R.&XvX9X%X; .       . , D.].].`.e . ",
". r ~ P ! u o           ; &.B M b ( ( M ( M M ) ` k | *.#.$.m.j.C.H. XmX9X6X;         . O x.[.]._.F . ",
"= Z L K ^ w .           ; =.` M g _ M m f f f N N k ..X.#.#.j.M.C.R.&X=XpXrX& .         . u ~.W.~.b.& ",
"w +.P P I @ .         . $ =.` M b f N f p f M N N k | X.$.$.B.K.E.R.*X=X9XeX* .         . > A.u.f.e.& ",
"e +.K P Y + .           ; ] ` M g b M M g f f N N ) ....;.N.T.XXT.R.oX*XwXeX*           . * n.g.f.0., ",
"0 ^ 4.4.Y o             ; ] ` m f m b b M ` k N  ...-.N.V.P.V.V.V.T..X X7X8X; .         . . G /.y.i.u ",
"0 ^ P K Y + .           ; ] ` f p f f b f N ) | *.-.o.l.>.k.$.B.V.Z.E..X*X6X* .           . D F.t.i.x ",
"2 U H ~ Y +             # ] ' M p d f b k ) N M N ( ) ..o.;.l.B.V.L.H.oXoX8X;           . . S a.t.i.x ",
"2 I P ~ Y +             o v &.M d s d b ( ( g M ) N N o.>.;.$.M.K.K.H.OX-XrX;             . F a.y.s.D ",
"2 I K K Y + .             6 [ ( d d m b ( N d g ) M | o.>.-.k.k.K.K.T.OX#XI.+ .           @ 4.a.d.a.q ",
"3 } Q W C o               7 [ ` g s M ( ( M g N N k ) o.:.;.N.B.K.T.T.E.#XB .           . 5 F.d.d.e.& ",
"@ j Q F j - .             X _ ` g g ( ( ( M k ` N g ..{ -.*.l.k.B.L.T.OXI.; .           . 2 a.y.s.v.% ",
". 4 V A V 3 X               $ n b g M g ( g k ) N k ..{ | ..N.M.M.L.L.@X' .           . o +.p.t.a.D + ",
"  : j V V s +               . 6 n b B ( ( M k ) k M | | *.-.N.l.P.U.I.' .             . 0 S.d.y.b.q . ",
"  X s u i h :                 . 7 n B M ( g M ` M N |  .-.*.k.l.P.I.n . .             + ~ A.u.p.x.* . ",
"  . - j i e w +                 . 1 8 n ( b b ( M ) | | :.*.:.<.,.a . .             . 0 F.f.u.a.y .   ",
"    X k I A V 3 +                   X 7 8 n n B M ` ` &.,.=.' n # .               . O 3.g.^.g.c.* .   ",
"    . : Y W W I p X                     o # 6 v v v n n 6 ; X .                 . + Q A.f.f.S.9 .     ",
"      X 3 E K D I 3 . .                     .   . . . . .                     . O Q F.u.u.).^ o .     ",
"        X Z W D D E 3 . .                                               .   . O Q D.f.^./.~ + .       ",
"          + j E G G U h *                                               . . < Q A.u.W./.Z.= .         ",
"          . + h U G D U Z 4 + X .                                 . . . = I n.A.u.f./.c.5 .           ",
"              + s I D H Q W Z 2 @ . . .                       . . . > e q./.f.^.^.).^ % .             ",
"                o 3 Y W G G P ^ Z Z > % . . . . . . . . . . o > > ^ S.`.!.f.f./.n.u + .               ",
"                  . * h E Q L K K L ~ / t t t i = % 2 S F A P F.A.(.~.f.f.s.S./ > . .                 ",
"                    . o 5 C ^ ~ L 1.7.7.q.w.w.w.3.z.w.D.G.g.!.f.[.[.~.g.A.4.9 + .                     ",
"                        . X - k O.x.c.q.6.5.5.5.p.p.u.[.].Q.Q.~._.'.c.@.2 + . .                       ",
"                            . . # 0 e W 3.8.0.q.a.s.(.(./.s.A.7.H e % o .                             ",
"                                . . . + @ * > 5 x W x 9 , < % + . . .                                 "
};
