/* XPM */
static char *_1566607e01145c0ab52688d33e5ec92[] = {
/* columns rows colors chars-per-pixel */
"50 56 256 2 ",
"   c #010000",
".  c #0A0000",
"X  c #130300",
"o  c #1A0400",
"O  c #1B0B01",
"+  c #160900",
"@  c #1A1005",
"#  c #1C1209",
"$  c #240D00",
"%  c #2B0D00",
"&  c #241201",
"*  c #2A1200",
"=  c #2D1B02",
"-  c #24160A",
";  c #24190D",
":  c #2A1B0B",
">  c #351D02",
",  c #371700",
"<  c #281D11",
"1  c #342103",
"2  c #3C2200",
"3  c #34230D",
"4  c #2E2112",
"5  c #332413",
"6  c #3C2C19",
"7  c #3A2717",
"8  c #2D210B",
"9  c #481F00",
"0  c #422200",
"q  c #442902",
"w  c #4B2D01",
"e  c #45280A",
"r  c #592F00",
"t  c #4D3103",
"y  c #493108",
"u  c #5C3B03",
"i  c #573907",
"p  c #422B15",
"a  c #44311B",
"s  c #4A3415",
"d  c #543B18",
"f  c #623B00",
"g  c #473627",
"h  c #553D26",
"j  c #5F410B",
"k  c #5D421A",
"l  c #5E4414",
"z  c #644204",
"x  c #62430B",
"c  c #6C4A0B",
"v  c #6C4806",
"b  c #7A4A00",
"n  c #744A05",
"m  c #76530D",
"M  c #7B5309",
"N  c #664A16",
"B  c #6A4A14",
"V  c #654917",
"C  c #724D1B",
"Z  c #785517",
"A  c #6B511E",
"S  c #5C442C",
"D  c #5B4733",
"F  c #654728",
"G  c #765626",
"H  c #654D36",
"J  c #614A35",
"K  c #66523B",
"L  c #795A38",
"P  c #704D23",
"I  c #7E613C",
"U  c #775C42",
"Y  c #685340",
"T  c #7D6947",
"R  c #835A0D",
"E  c #885400",
"W  c #825B17",
"Q  c #925B00",
"!  c #99690D",
"~  c #8C641A",
"^  c #996C1B",
"/  c #9E711D",
"(  c #AB750E",
")  c #A77619",
"_  c #B57E16",
"`  c #AE7305",
"'  c #885B28",
"]  c #825F37",
"[  c #8A6429",
"{  c #956928",
"}  c #9D7329",
"|  c #876535",
" . c #9C6D3A",
".. c #976834",
"X. c #9E723D",
"o. c #9E7630",
"O. c #A27624",
"+. c #A87B27",
"@. c #B17F22",
"#. c #A7773A",
"$. c #8B6A47",
"%. c #9D7144",
"&. c #95714C",
"*. c #9A754A",
"=. c #8A6E55",
"-. c #8C7254",
";. c #937252",
":. c #9A7852",
">. c #936E42",
",. c #A27442",
"<. c #A77944",
"1. c #AB7C45",
"2. c #AB7D49",
"3. c #A4784A",
"4. c #B47E44",
"5. c #A47C56",
"6. c #BE8514",
"7. c #BC851B",
"8. c #B88319",
"9. c #B48225",
"0. c #BB8623",
"q. c #BD8822",
"w. c #BD8B2C",
"e. c #B6852A",
"r. c #B98935",
"t. c #AC8132",
"y. c #D6920E",
"u. c #C28612",
"i. c #C2891B",
"p. c #C68A16",
"a. c #CD901A",
"s. c #D59416",
"d. c #D99513",
"f. c #D4951C",
"g. c #DD9A16",
"h. c #C98A0E",
"j. c #E69D0A",
"k. c #E39E17",
"l. c #ECA20C",
"z. c #EAA318",
"x. c #F4AA15",
"c. c #F5AC1A",
"v. c #F8AD16",
"b. c #F0A50C",
"n. c #C48F25",
"m. c #CB932B",
"M. c #C7922B",
"N. c #D49826",
"B. c #D29B35",
"V. c #C79337",
"C. c #DBA237",
"Z. c #EAA92B",
"A. c #F2AE27",
"S. c #E6A934",
"D. c #F2B12F",
"F. c #AE8146",
"G. c #AF8049",
"H. c #B4844A",
"J. c #BA864D",
"K. c #BC894D",
"L. c #B5854A",
"P. c #A6845B",
"I. c #AC865A",
"U. c #B38654",
"Y. c #BC8B53",
"T. c #B48A5A",
"R. c #BB955D",
"E. c #B38D64",
"W. c #BA9467",
"Q. c #B09472",
"!. c #BCA172",
"~. c #C38E4E",
"^. c #CC944C",
"/. c #C9934B",
"(. c #D5954A",
"). c #C18D52",
"_. c #CA8F53",
"`. c #C59254",
"'. c #CC9654",
"]. c #CC9955",
"[. c #C59459",
"{. c #C9955A",
"}. c #CC995B",
"|. c #D49A54",
" X c #D39B5B",
".X c #DA9F5B",
"XX c #D59856",
"oX c #D38F44",
"OX c #D4A15C",
"+X c #DCA25B",
"@X c #D9A85A",
"#X c #C9A658",
"$X c #E3AB5D",
"%X c #E6A75B",
"&X c #ECB540",
"*X c #C89C6A",
"=X c #D29F64",
"-X c #C39E72",
";X c #DCA463",
":X c #DEAA65",
">X c #DEAB6A",
",X c #D5A668",
"<X c #DCB16B",
"1X c #CDA372",
"2X c #C8A377",
"3X c #D8AD77",
"4X c #DBB57C",
"5X c #C9A168",
"6X c #E1A563",
"7X c #E4AB63",
"8X c #E4AD6A",
"9X c #EAAE66",
"0X c #E5B261",
"qX c #EBB465",
"wX c #ECBA66",
"eX c #EBB46B",
"rX c #EDBB6C",
"tX c #E3B76B",
"yX c #F2BB6C",
"uX c #F3B46B",
"iX c #E3B273",
"pX c #ECBD7B",
"aX c #E7B977",
"sX c #F3BC72",
"dX c #F7BA74",
"fX c #EEC76F",
"gX c #F4C26E",
"hX c #F6C76B",
"jX c #FED46D",
"kX c #EDC374",
"lX c #EAC77B",
"zX c #F5C372",
"xX c #F9C474",
"cX c #F5C973",
"vX c #FBCA75",
"bX c #F3C37B",
"nX c #FAC67A",
"mX c #FDCC7B",
"MX c #F4CA7C",
"NX c #FDD27D",
"BX c #F4D178",
"VX c #CEAC84",
"CX c #D7B989",
"ZX c #D6BA95",
"AX c #E4B983",
"SX c #DCC28E",
"DX c #EBC785",
"FX c #FDCC82",
"GX c #F7C986",
"HX c #FED283",
"JX c #FCD38A",
"KX c #FAD987",
"LX c #E9C792",
"PX c #F7CB93",
"IX c #F6D595",
"UX c #EDD082",
/* pixels */
"                                                                                                    ",
"                                  .                                                                 ",
"                              < D o o X   . .                                                       ",
"                            . K ZXE.Q.Q.U p a a : . . . . .                                         ",
"                            O Q.AX<XiX3X,X3X4XAX-X;.;.;.e $ $ & X   . .                             ",
"                          . O VXPXnXFXmXnXsXeX:X,XiXiX3X2X2X2XCX-.H K K 6 + . .                     ",
"                            > 2XiXqXyXxXbXmXmXmXnXFXGXpXpXaX3X>X3X4XAXLXCXW.!.Q.;                   ",
"                          . U PXbXyXqX0X+X$X0X0XeXdXzXxXmXmXnXnXmXbXeX<X<XlX4XCX4                   ",
"                          . I GXmXvXvXvXvXvXzXrXtXtX8X6X8X9XeXdXxXnXFXmXHXJXKXSX8                   ",
"                          o :.GXxXgXhXzXzXFXbX>X[.Y.Y.{.,XiXrXeX$X0XqXqX0XfXBXLX3                   ",
"                          5 LXPXmXFXHXHXbX<X1...] G P ] | %.,XJXNXNXvXzXwX0X<XCX4                   ",
"                          , *X8X7X9XrXlXOX....&.| F s p k k N R.MXcXcXvXmXHXPX-X-                   ",
"                        . h 4XuX%X%X+X~.<.| >.] F h a 3 5 p d | DXMXmXvXzXMXKXI .                   ",
"                        . $.;X%X%XuXeX4...] G h d a 6 4 4 : 1 s U.HXNXHXmXMXIXI .                   ",
"                        X $.'.(.oX(.~.#.G P S d p 6 6 4 : - * 1 2.OX%X%X%XeXPXSX8                   ",
"                      + 2 1XdXdXdXeX=X' F S d 6 6 6 4 < ; < ; * ,.dXyXqX%X+XkXIX3 .                 ",
"                    = y | aXeXyXdXdX=XP h h a 5 4 - ; < ; # @ O ..;X%X9XqXxXfXlXG +                 ",
"                . = k x { nXbXxXyXrXiXG y 3 : < ; # @ # @ @ O > J..X(.(.V.qXjXfX#XW 1 .             ",
"              O s i u z ].nXvXvXvXmXHX5Xy * - # # @ @ # @ @ o L PXsXuXxXyXhXfXjX&XS.r.q .           ",
"          . @ d V x u z OXyXwXwXyXyXzXbXT.0 & & $ @ O O O & k 3XpXeXyXgXgXHXcXjXD.A.S.w.2 .         ",
"          @ l B x u j u #XmXvXvXqXyXxXyXbXU.P e $ * & % k R.DXKXvXcXvXBXfXUXfXjX&XA.z.D.w.9 .       ",
"        X 3 A v z u q G DXNXvXvXxXxXmXvXeXGXPX5XI.I.P.I.4XGXcXcXvXvXNXNXKXKXBXlX! S.c.x.D.e.2 .     ",
"      . 1 A m v x q X T IXHXcXfXyXyXhXxXgXvXFXnXJXJXJXkXkXzXrXwXwXwXfXfXKXKXKXUX0 n C.c.c.S.{ o     ",
"      & A m m m d O . T IXKXHXgXmXvXxXxXyXhXxXgXcXvXvXzXvXNXNXmXNXgXfXfXBX#XBXLX> o E Z.c.x.C.v X   ",
"    X s Z M m N $   . K 1X].OXbXnXrXzXFXmXmXyXvXmXNXgXgXvXvXxXcXvXNXNXcXNXkXUXLX8 . % r.A.x.A.M.$ . ",
"  . @ A m m A 1 . . . D W.`.K._././.|.0X7X+XqXnXxXvXyXmXmXNXgXhXvXvXhXhXBX<XlXSX: . X w N.c.x.D.c X ",
"  X y A m m d X     . H 1X X X.X|.^.XXXX|.|.^..X|.^.+XuXeXeXyXmXmXNXvXmXcX<XlX>.X     o ! Z.c.A.r.% ",
"  + V m v N = .       K 3X>X;X;X6X XXX.XOXOX;XXX|.XX|.|..X(./.9X$X$XhXmXNXfXlXI .     . 0 B.c.c.C.9 ",
"  1 B v v l @         a 5. . X;X;X+X;X;X;X6X6X.X.X6X.X+X+X.XXXXX%X9X6X9XgXtXDXL         o ^ A.x.S.Q ",
". s Z M c y .       . g $.' 4.=X X_. X8X8X>X.X6X8X9X9X8XeX7X6X7XuXuX9XuXqXaXW.= .       X B Z.x.A.` ",
"O l Z M B 1 .       . h 5.<. .#.#...1.J.4.2.4._.{.{. X>X8X XXX X.X%X+X+XyXpXE.o .       . * N.z.z.l.",
"2 G W M x + .       . J -X{.~.J.4.4.,.{ ' ' .. ...{ ,.).4.4.4.)._.XX+X.X0XiXQ.o           % n.z.l.l.",
"t G R R l X         . J 1X8X:X8XOX X{.4.1.2. ...[ { [ ' ' ' ,.<.4.4.%XdXxXAXH .           % w.k.l.l.",
"t W R R l +         . H 1XOX|.$X7X:X XK.F.T.H.G.T.F.4.2.3.X. . . .~.6XuXsXAXh           . & w.k.j.l.",
"t W M M V +         . S W.'.`.].OXOX{.K.K.L.U.L.}.[.}.}.}.H.K.}.].7XuXyXzXAXh .         . & q.k.j.j.",
"i [ ~ R N + .         J R.{.].'.`.].'.#.F.J.K.L.J.K.K.).{.{. X+X6X$XuXdXbXE.O             & w.k.k.l.",
"y [ ^ ! B O .       . D W.).`.'.).).`.1.<.2.4.2.F.H.L.L.K.[.].OX;X$X$X8XDXP..           . & @.k.j.j.",
"+ N ) ! ~ q .       . J W.H.~.`._.L.K.2.1.2.2.4.<.F.H.H.L.`.].].|.].|.;X4X;..           . * @.f.g.d.",
"X V +.( / c +       . J E.2.).[.`.H.J.2.2.1.2.2.<.F.F.H.F.Y.].]./.`.|.,X3Xp .           . B m.d.N.` ",
". 1 / ( ! ~ &       . D 5.Y.)._.~.H.J.1.<.X.<.2.<.,.<.F.F.#.Y.].)./. X=X2X, .           o W f.d.N.E ",
". $ { ) ` ^ y .   .   D I.2.J.Y.J.).4. . .%.2.<.,.X.<.2.2.<.2.J.).~.'.}.VX8 .         . 0 w.d.g.V.r ",
"  . c e.( _ [ $ .     D E.I.T.).).~.2.%.,.%.<.,.<.2.3.2.<.2.2.4.K.Y.'.1X;.o           X ~ N.k.N.o.$ ",
"  . , o.i.p.w.u X   . g =.;.5.5.5.T.I.,.%.%.3.%.X.,.3.,.<.2.3.<.L.).[.*XU .         X t M.f.d.m.i X ",
"    . C n.p.a.@.q .   X o % S J S F $.$.$.$.&.&.*.*.*.*.%.%.3.2.F.J.Y.E.J .       . $ #.f.y.f.) O . ",
"      > t.a.a.a.t.q . .   . .     . - : - a Y H H L =.;.&.&.%.3.U.Y.R.5.:         o M m.g.d.V.r .   ",
"      . w t.a.h.i.O.0 .                     . . . o 7 7 p J U ] $.:.I.=.X     . o Z m.s.f.m.[ $     ",
"        X u 0.h.h.6.o.2 X                             .   . O o + 6 J g . . . o M M.s.s.m.^ * .     ",
"          + ~ M.p.u.i.o.2 . .                                       . . . X q } N.f.d.B.{ & .       ",
"          . & [ 9.i.u.7.O.v * X                                       . $ c @.N.d.s.m.{ % .         ",
"              O u @.8.6.i.0.o.N * X . .   .                     . . o q W n.f.y.f.B.^ * .           ",
"              . o y } e.i.p.i.q.+.v 0 > X . .           . . X $ 3 x { @.i.a.f.f.r.W * .             ",
"                  . * m 9.7.6.6.7.0.e.#.Z G k * & O $ $ > V V Z r.@.i.i.u.a.M.+.r X .               ",
"                    . o w [ +.9.8.( _ 8.7.0.9.) / / / ) ) @._ 7.6.u.i.i.e.o.x $ .                   ",
"                        . O 2 Z / @.8.8._ 8.8.( ( _ u.i.u.6.8.q.8.0.+.~ f % . .                     ",
"                            . X = t C { { / / @.@.@.9.0.e.e.4.o.' i 1 X . .                         ",
"                                . . o % * 9 r n b b b b b f , % O . . .                             "
};
