/* XPM */
static char *_872224e90194136d0466004a44fcc61[] = {
/* columns rows colors chars-per-pixel */
"51 56 256 2 ",
"   c #010000",
".  c #0B0100",
"X  c #0C0A01",
"o  c #130300",
"O  c #190600",
"+  c #140A01",
"@  c #1B0B00",
"#  c #1C1506",
"$  c #240D00",
"%  c #280A00",
"&  c #231201",
"*  c #2B1500",
"=  c #2D1B01",
"-  c #271C08",
";  c #331D01",
":  c #341600",
">  c #281C14",
",  c #2D2205",
"<  c #3C2401",
"1  c #3C2A0A",
"2  c #352607",
"3  c #372716",
"4  c #3C3318",
"5  c #282713",
"6  c #3C2E22",
"7  c #3C3225",
"8  c #432400",
"9  c #4A2C00",
"0  c #452B06",
"q  c #512C00",
"w  c #4C3305",
"e  c #4B340B",
"r  c #473108",
"t  c #533402",
"y  c #553A0A",
"u  c #5A3E0C",
"i  c #573A09",
"p  c #472B14",
"a  c #4A3412",
"s  c #493714",
"d  c #553D14",
"f  c #573B1D",
"g  c #633900",
"h  c #603F1E",
"j  c #433425",
"k  c #4A3B28",
"l  c #553E24",
"z  c #593F23",
"x  c #533E2A",
"c  c #5C400D",
"v  c #5F4103",
"b  c #5C4314",
"n  c #5B441A",
"m  c #62430B",
"M  c #6A4708",
"N  c #7C4C00",
"B  c #724E0B",
"V  c #764C03",
"C  c #7A520A",
"Z  c #7F570A",
"A  c #614413",
"S  c #6C4C13",
"D  c #634A1B",
"F  c #674A1A",
"G  c #714D16",
"H  c #7B591C",
"J  c #785518",
"K  c #6D5018",
"L  c #5C4325",
"P  c #55412A",
"I  c #5C4529",
"U  c #5B4424",
"Y  c #554631",
"T  c #624524",
"R  c #634926",
"E  c #6A4C24",
"W  c #614628",
"Q  c #644A2A",
"!  c #6A4D2C",
"~  c #714F23",
"^  c #6B502A",
"/  c #745222",
"(  c #7B5424",
")  c #74542B",
"_  c #79562C",
"`  c #7B582E",
"'  c #7A5A23",
"]  c #6E5232",
"[  c #745532",
"{  c #7C5B34",
"}  c #7C5D39",
"|  c #765836",
" . c #6A623A",
".. c #7F613D",
"X. c #625042",
"o. c #7A6544",
"O. c #757048",
"+. c #855E16",
"@. c #845B0A",
"#. c #9A6B0F",
"$. c #8B6318",
"%. c #976C19",
"&. c #9E711D",
"*. c #9F7112",
"=. c #8F620F",
"-. c #BA7E0D",
";. c #B37C0F",
":. c #A06E11",
">. c #A37214",
",. c #AA7613",
"<. c #AD7A15",
"1. c #A2731C",
"2. c #AB7A1C",
"3. c #B37D13",
"4. c #B57F16",
"5. c #835D23",
"6. c #8B6627",
"7. c #956D24",
"8. c #9B7121",
"9. c #9A722B",
"0. c #82613A",
"q. c #8B6638",
"w. c #986C37",
"e. c #9E743C",
"r. c #A57822",
"t. c #AD7E26",
"y. c #A67928",
"u. c #B17F23",
"i. c #A77D31",
"p. c #866745",
"a. c #937149",
"s. c #A57E48",
"d. c #937962",
"f. c #BC810E",
"g. c #BB8213",
"h. c #B6811C",
"j. c #BB831B",
"k. c #BC891E",
"l. c #B48123",
"z. c #B98523",
"x. c #B4832C",
"c. c #BB8827",
"v. c #A8853C",
"b. c #B38932",
"n. c #AF8026",
"m. c #C3870E",
"M. c #C58A16",
"N. c #C18C28",
"B. c #CC893E",
"V. c #D2A636",
"C. c #968C5E",
"Z. c #B5894B",
"A. c #AF8C54",
"S. c #BDA355",
"D. c #9B8F75",
"F. c #A48767",
"G. c #BC986A",
"H. c #B89D75",
"J. c #A59770",
"K. c #BAA76A",
"L. c #B4A976",
"P. c #CF8B41",
"I. c #D28D43",
"U. c #D38F48",
"Y. c #D4944B",
"T. c #DD9A4F",
"R. c #D8954A",
"E. c #C99959",
"W. c #DB9C54",
"Q. c #D49B55",
"!. c #E19D53",
"~. c #DCA557",
"^. c #C9A551",
"/. c #E5A45B",
"(. c #E9A55B",
"). c #E2AA5C",
"_. c #EBA85E",
"`. c #E2A155",
"'. c #E9B25F",
"]. c #C49A71",
"[. c #C9A567",
"{. c #DDAB6B",
"}. c #D6A668",
"|. c #CAB469",
" X c #D2B56A",
".X c #DAB669",
"XX c #CAA576",
"oX c #D6AA78",
"OX c #D9BE76",
"+X c #CCB675",
"@X c #E5AC61",
"#X c #EBAC62",
"$X c #E2AA67",
"%X c #F2AD63",
"&X c #ECB464",
"*X c #E5B26D",
"=X c #EEB469",
"-X c #EBB767",
";X c #F3B365",
":X c #F3B46B",
">X c #F4BC6B",
",X c #FABC6E",
"<X c #F2BA66",
"1X c #E4B471",
"2X c #EAB573",
"3X c #EBBA79",
"4X c #F4BC73",
"5X c #FABD72",
"6X c #F1BD7A",
"7X c #E6AF76",
"8X c #DBC477",
"9X c #F5C16D",
"0X c #F9C16E",
"qX c #E4CB7B",
"wX c #E8C579",
"eX c #F5C273",
"rX c #FBC373",
"tX c #FDC875",
"yX c #FDC57A",
"uX c #FECB7C",
"iX c #F4C67B",
"pX c #E6D07D",
"aX c #D6AF84",
"sX c #DCB281",
"dX c #CFB88A",
"fX c #EEBC87",
"gX c #D4CC95",
"hX c #EBC984",
"jX c #FCCC81",
"kX c #F5C685",
"lX c #EBD686",
"zX c #F3D787",
"xX c #E8DA9A",
"cX c #F3DC95",
"vX c #F5E58C",
"bX c #F5EA8E",
"nX c #F8F28E",
"mX c #FCE394",
"MX c #FCEB95",
"NX c #F6EB9A",
"BX c #FEED9B",
"VX c #F6E596",
"CX c #FCF294",
"ZX c #FEF49B",
"AX c #FFF99C",
"SX c #FEF995",
"DX c #EFE48B",
"FX c #DBD1A2",
"GX c #EBDDA0",
"HX c #FDEEA3",
"JX c #F4E9A8",
"KX c #FEF4A3",
"LX c #FFF5AB",
"PX c #FFF8AF",
"IX c #FFF8A2",
"UX c #F1E9A9",
/* pixels */
"                                  . . 6 O . .                                                         ",
"                                    - D.d.p @ .   .                                                   ",
"                                    ] aXoXXX].| * o .                                                 ",
"                                  & XXkX6X2X{.oXH.F.k O .   .                                         ",
"                                . ] oX-X4XuXeX3X7X}.aXs.p.= . .                                       ",
"                              . @ aX3X#X~.#X:XyXjX6X{.}.oXXXp.Y O . .                                 ",
"                            . . | hX6XuXrX&X).).:XyXyXjX2X7XoXsXG.I 1 o .                             ",
"                            . 1 XX3X>X:X0XtX,X&X).~.).5XyX5X4X{.}.oXaXd.3 @ . .                       ",
"                            o F.fXkXuX0X>X,X,XrXrX>X&X).).-XyXyXiX1X}.}.XXXX| & +                     ",
"                          . j ].Q./.4XuXuXrX,X,XrXrXtXrX:X).).&XtXuXuX6X7X}.sXH.J.j +                 ",
"                        . O a.7X/./.R.W.).4XyX5XrX>X:X0XrXrX>X~.~.).-XtXjX6X{.}.XXdX7                 ",
"                        . p s.U.W.%X:X_.W.Y.W.=XyXuXtXrX>X9XtXuXeX<X~.).&X4XuXjXwXxXj                 ",
"                        O F.7XW.P.I.(.;X,X%XT.R.W.=XyXjXuXeXtX9XrXuXtXtX-X~.$XiXzXJXk                 ",
"                      . p aX2X5X:X/.U.P.R.!._.%X(.Y.Y./.>XeXjXtX9XeX9X0XuXrX.X.XVXJX7                 ",
"                    . - ].6X*X=X:X:X5X_.R.I.I.(.%X;X(.!.Y.W.=XrXuXuXtX9X9XeXjXmXPXgX5                 ",
"                    . ..kXiXyX5X=X#X%X=X5X,X(.I.I.!._.;X(.`.W.Q.).eXtXuXuX9XqXLXUXC.                  ",
"                . o 0 XX2X:X,XrX5XrX>X@X@X:X5X4X_.U.P.P.!._.:X(.`.T.T.).rXjXzXPXGX< X                 ",
"                + a A.iXrX<X'.<X,X0XyXyX4X>X#X=X4X5X%X`.U.I.W.(.;X;X_.W.Q..XmXKXxXL.2 . .             ",
"            . + e / {.eXrX5XrX<X&X&X>X5XtXtXrX>X=X=X:X5X=X%XT.P.I.!._.,X)..XMXmXqXVXa.= o             ",
"            + a u Z.6X,X>X<X,XrX0X0X>X;X&X>XeXtXyX4X#X=X:X:X5X:X`.R.B.Y..XmXMXhX8XMX^.v.a o           ",
"        . + a A M Z.*XkXyX5X:X,X<XrXrX>X>X<X&X,XrXrXtXrX:X=X>X>XrXrX#XE.hXPXmXqXvXMXV.k.v.< .         ",
"        + a A v m G 5.Z.7X4XyX5X,X>X0X0XtXuX,X@X<X>X0XrXrXuX0X:X&X>X6XkXLXLX XqXKXCXV.M.N.+.O .       ",
"      . 1 b A g A ~ ~ G ~ w.E.6XeX4X,X&X<X0X0X0XrX<X).&X<X0XrXrXeX>X{.cXLXlX|.zXKXCXV.m.m.N.5.O .     ",
"    . - d m m u < W | [ 0.~ 5.6.Z.*XkX4X,X>X>XeXrXrX>X0X<X'.>X0XtXiXzXLXKX+XqXKXIXCXb.k.M.M.x.8 .     ",
"    X s b u u e O x | | { [ _ _ _ 6.e.E.2XyXyX6X>X9X0XuXrXrX<X&X-X1XNXLXhX|.zXMXCXcXg $.M.M.j.8.& .   ",
"  . & d i i a @ . O x ! 0.{ { [ _ ) _ ( w.Z.{.6XuX:X>X>X>XeXrXeX'.wXKXlXS.8XvXDXBXcXr 9 u.M.-.u.b . . ",
"  . a c i e 2 . . 3 W h [ [ { 0.0.{ { ( / ~ 5.s.[.2XyXuXeXeX0X9XiXMXZX|.v.wXZXbXAXxX4 o M N.f.j.9.* . ",
". - s w w 1 + . . X.o.[ E E ! _ { 0.0.} { { ) ( J 6.Z.2XiXuXuXwXzXAXzXS.|.vXMXCXAXUX6 o : 8.g.f.x.t . ",
"  , r w e , .   . Y o.} q.` T d h ! [ | { { { ` ` / ( ( e.[.iXzXKXLX|.v.lXbXDXDXKXGX4   o 5.h.-.h.J O ",
"+ 2 r w a &     . Y o.} q.p.) T f f U T ] { 0.{ 0.{ ` ` / ' 5.OXPXHX XqXVXbXbXnXPXJ.X   . 9 z.m.k.r.$ ",
"= f e w p .   . . k ] [ | | ^ Q W L f f f T W [ 0.0.} { ` _ ) +XPX+X|.BXCXbXbXNXxXk     . ; x.f.M.2.% ",
"= s y w 1 X     . j I W T ! ! ! Q W ! L z f f h T Q ^ [ [ ] E +XVXS.8XBXCXbXDXAXJ.X     . & %.M.m.2.q ",
", d y y 2 .     . 7 I I R Q Q ^ ] ! ! Q Q ] L U U T T T E ! E [.[. XbXAXAXbXbXxXk         o C k.m.M.@.",
"< D i w 1 . .   . 7 P I I L I R R Q Q ! ! ] ! ^ ] Q T h h T ( G.A.lXCXAXSXDXVXJ.X         X B c.M.M.N ",
"< n c t 1 .     . 6 P U L L L L I L R Q Q ^ ] [ [ [ [ 0.| ( w.E.OXMXMXSXSXVXL.,           . B u.m.M.N ",
"< D M m a +     . 6 P P I L L L I Q R R R W R R ] ) ) 0.a.A.[.E.qXAXnXAXAXUXO.          . o B j.g.M.B ",
"< K B S b X     . 6 x z z P f L R I W R R R R W W Q R ] ) 5.C.8XZXSXnXCXIXgX#             & &.g.m.2.8 ",
"< D B B b + .   . 6 x l L l U L L L I U L I L W Q Q Q R Q ^ K +XAXSXnXbXUX .X           . ; n.-.-.&.% ",
"& c S B S 1 .     6 x x L z z z U L L R I U W W T W W R Q D D +XAXSXCXNXdX#             . t l.g.N.y.$ ",
". s J V S w .     # 6 k x x I l l U L L L U W L U W W W W T D |.AXnXbXJX .            . o ' <.f.N.C o ",
". 2 H Z V c & .     o > 3 j k Y x x l z L L W L L I L U U U D K.AXnXNXdX-             . * 7.;.;.b.t . ",
"  + D H Z J s .         . # 3 6 x x x z l z z L L W L I Q R b K.IXNXxXO.            . o M n.f.h.7.$ . ",
"  . < ' Z C S , .           . . > 6 k Y x z x z z L L L R U b K.KXKXC.X             . e y.g.;.n.w .   ",
"    + b J Z H S @                 . + > k k x l l l U U U U b K.UXxX4             . $ $.h.f.h.%.& .   ",
"    . = J @.@.H y o .                 . + # 6 x x x z z l U b C.UXC..           . $ +.h.f.g.b.b .     ",
"    . X y 6.=.=.6.b o .                       # > j x x x U d H.FX2           . $ 5.l.-.f.h.K O .     ",
"      . + F 7.#.#.7.u O .                         o > 3 k x k H.D.X         . & +.n.g.-.h.i.< .       ",
"        . + J &.*.*.9.A - . .                           # 3 4 D.7 .     . . < 5.l.f.g.h.y.8 .         ",
"          . & K &.*.:.&.6.8 O .                           . . 7 X . . . $ i t.h.f.;.h.9.< X           ",
"            . O S 7.#.:.1.8.K < o X . .     .               . . . . @ w 6.t.4.-.3.u.9.8 . .           ",
"              . O e 6.&.>.:.1.&.H m ; @ . .     .     . . . o & < t $.n.j.4.4.h.i.F * .               ",
"                  . ; S 7.:.#.:.>.8.9.H A D < $ @ @ O @ r E K 6.i.t.u.;.;.4.l.$.9 o .                 ",
"                    . O a ' 7.&.#.:.>.>.1.r.&.%.$.=.=.$.%.1.2.<.<.<.<.u.t.9.F * . .                   ",
"                        . & 8 K +.&.&.1.,.2.,.<.3.<.,.,.<.,.2.1.,.2.1.+.9 = . .                       ",
"                          . . . & 1 D 6.6.7.r.n.x.u.l.n.1.&.7.6./ i < O . .                           ",
"                                . . O % : 8 g V N N N N g q : $ @ . .                                 "
};
