/* XPM */
static char *bcb3b7164f034a2b9d4cb37d6fbd9254[] = {
/* columns rows colors chars-per-pixel */
"51 71 256 2 ",
"   c #010000",
".  c #0B0000",
"X  c #130300",
"o  c #1A0500",
"O  c #160A02",
"+  c #1C0A00",
"@  c #1E1204",
"#  c #1D140A",
"$  c #230C00",
"%  c #2A0D00",
"&  c #241301",
"*  c #2A1401",
"=  c #2D1A00",
"-  c #20160C",
";  c #24190D",
":  c #2B1D0D",
">  c #331500",
",  c #331C01",
"<  c #391E00",
"1  c #321E0B",
"2  c #291D11",
"3  c #352101",
"4  c #3C2201",
"5  c #39270B",
"6  c #2D2113",
"7  c #2C2419",
"8  c #392817",
"9  c #3C2E22",
"0  c #3E3122",
"q  c #422500",
"w  c #442B02",
"e  c #492B05",
"r  c #4A3306",
"t  c #563908",
"y  c #442D16",
"u  c #4B341A",
"i  c #553A1B",
"p  c #463625",
"a  c #563E23",
"s  c #5F441B",
"d  c #5F410D",
"f  c #684608",
"g  c #724C03",
"h  c #744D0A",
"j  c #7A5307",
"k  c #6C4C14",
"l  c #674718",
"z  c #6F5118",
"x  c #73541B",
"c  c #7A5615",
"v  c #724E1A",
"b  c #5D4324",
"n  c #574129",
"m  c #5C452B",
"M  c #5E492E",
"N  c #5C4730",
"B  c #624525",
"V  c #6B4A24",
"C  c #614629",
"Z  c #65492A",
"A  c #6B4D2C",
"S  c #674924",
"D  c #724E23",
"F  c #6D5128",
"G  c #74522D",
"H  c #7B5828",
"J  c #654D34",
"K  c #694E33",
"L  c #6B5234",
"P  c #685338",
"I  c #755532",
"U  c #785632",
"Y  c #7C5A34",
"T  c #775A39",
"R  c #775C42",
"E  c #79684A",
"W  c #865C0B",
"Q  c #8A5E0B",
"!  c #825707",
"~  c #835D14",
"^  c #855D19",
"/  c #93650C",
"(  c #9B6A0D",
")  c #996605",
"_  c #86621D",
"`  c #8C6618",
"'  c #926512",
"]  c #9B6C14",
"[  c #966A19",
"{  c #9D731D",
"}  c #8A600E",
"|  c #A8771A",
" . c #B27F1D",
".. c #B17A14",
"X. c #A4710E",
"o. c #825B27",
"O. c #835D33",
"+. c #825F39",
"@. c #895E31",
"#. c #8B6524",
"$. c #896626",
"%. c #956A21",
"&. c #946B26",
"*. c #9A7328",
"=. c #84623B",
"-. c #8C653B",
";. c #8E683D",
":. c #876435",
">. c #926535",
",. c #90663B",
"<. c #946A3D",
"1. c #9A6D39",
"2. c #9C7334",
"3. c #A27523",
"4. c #A87B28",
"5. c #A2723E",
"6. c #B07E27",
"7. c #866846",
"8. c #946D42",
"9. c #9B6F41",
"0. c #8E7347",
"q. c #9B7243",
"w. c #977148",
"e. c #886B51",
"r. c #8C7755",
"t. c #937958",
"y. c #A27443",
"u. c #AC7B45",
"i. c #A27648",
"p. c #AC7D4A",
"a. c #A57949",
"s. c #B37E46",
"d. c #B67F48",
"f. c #A27C55",
"g. c #B8821C",
"h. c #B88727",
"j. c #B38A2E",
"k. c #C38715",
"l. c #D79517",
"z. c #E19B17",
"x. c #F5AB0F",
"c. c #F3AD1A",
"v. c #F6AB14",
"b. c #F5B11C",
"n. c #F4BB1C",
"m. c #F8B616",
"M. c #EDA916",
"N. c #CC962C",
"B. c #D69A26",
"V. c #C99834",
"C. c #D7A436",
"Z. c #D2A22F",
"A. c #EDAC2C",
"S. c #E9A926",
"D. c #F2AD21",
"F. c #EAB42B",
"G. c #F4B727",
"H. c #E9AB37",
"J. c #E9B539",
"K. c #F1B935",
"L. c #F0AF31",
"P. c #98855C",
"I. c #AD804D",
"U. c #B58145",
"Y. c #B3824C",
"T. c #BA864B",
"R. c #BC874A",
"E. c #AE8455",
"W. c #BD8B53",
"Q. c #B38856",
"!. c #988B66",
"~. c #988866",
"^. c #99916B",
"/. c #969167",
"(. c #AA8864",
"). c #BD9262",
"_. c #B18F67",
"`. c #BEA06E",
"'. c #C48B4D",
"]. c #C78B4A",
"[. c #C38D52",
"{. c #C88D51",
"}. c #C59056",
"|. c #CB9354",
" X c #CC955A",
".X c #C7965B",
"XX c #D29653",
"oX c #DA9C55",
"OX c #D59B5B",
"+X c #DB9E5C",
"@X c #D39A55",
"#X c #CE914E",
"$X c #E19F5C",
"%X c #DEA25C",
"&X c #D9A959",
"*X c #D2AD4B",
"=X c #E3A45D",
"-X c #E4A75C",
";X c #E3B05F",
":X c #CB9E6B",
">X c #D69D67",
",X c #C49C74",
"<X c #DDA363",
"1X c #D9A36C",
"2X c #D9A868",
"3X c #C7A577",
"4X c #D6A774",
"5X c #DAB576",
"6X c #E3A563",
"7X c #E6AB62",
"8X c #EAAC64",
"9X c #ECAC6A",
"0X c #E4A96A",
"qX c #EDB266",
"wX c #EDB36D",
"eX c #EDBB6A",
"rX c #E7B767",
"tX c #F1B366",
"yX c #F2B36B",
"uX c #F2BB6C",
"iX c #F7BC6B",
"pX c #E6AD76",
"aX c #E9B677",
"sX c #F5BC72",
"dX c #F5BB76",
"fX c #F2AF68",
"gX c #FDD355",
"hX c #ECC46D",
"jX c #F4C46E",
"kX c #F9C16F",
"lX c #ECC875",
"zX c #F5C473",
"xX c #FAC474",
"cX c #FBC975",
"vX c #F4C579",
"bX c #FDCC7B",
"nX c #F6CA76",
"mX c #FDD27B",
"MX c #F6D57A",
"NX c #F2D470",
"BX c #FBE179",
"VX c #DBB985",
"CX c #E5B888",
"ZX c #EAC488",
"AX c #F4CB83",
"SX c #F7C986",
"DX c #FED582",
"FX c #F9D787",
"GX c #FEDC96",
"HX c #E9CE8C",
"JX c #FDE484",
"KX c #FEE98C",
"LX c #FAE589",
"PX c #FAE89C",
"IX c #FEEBA4",
"UX c #FFF3A9",
/* pixels */
"                                        . . X L =.O.O.Y q X . .                                       ",
"                                      O * E ~.VXZXVXZXVX(.e.R $ . .                                   ",
"                                  . * _.VXHXFXAXlXvXvXdXpX1X>X,XT % .                                 ",
"                                . P VXSXDXmXmXmXhX;XxXsXdXwX$XpXVX(.9 .                               ",
"                              X T ZXSXvXcXmXMXmXvX2XwXdXsXdX=X0XpXpXCXR .                             ",
"                            X P 5XvXvXeXjXcXvXrX.XW.Y.T.5XdXsXXX9X0XpXCXy .                           ",
"                          . b ZX5XzXcXjXxX2X2.:.D l S F O.I.0XaX9X6X6XCX_.*                           ",
"                          O (.HXuXkXbXzX<X#.H F B a y w u i k .X9XfX0X0XCXZ .                         ",
"                        . * VXAXzXbXbX2X2.O.U B a 8 6 6 : 1 i v pX0XyX9X1X7.o                         ",
"                        . R ZXbXcXDXSXY.:.U n y 8 : : 2 ; @ 1 i s.dXfXdXpX_.%                         ",
"                        . 7.aXSXcXvXrX>.U u 5 5 : : 2 # # - @ = w.SXwXdXdX).$                         ",
"                        . 7.1XtXcXnXaXo.i y 8 : : 6 ; # @ @ # & :.SXsX9XwX:XN .                       ",
"                      . . R pXyXsXSXaXv y 5 : 6 6 2 - - - @ # + H ZXDXeXyXCX~..                       ",
"                        . R 1X9X9XdXdXH w 1 : 6 ; # # # - # @ + :.SXvXbXuXaX~.                        ",
"                        . a 4X>X$X6XvXW.w 1 : ; @ # # # # - @ 3 5XvXlXnXvX5Xr..                       ",
"                        . u ,X0X6X=XaXSXQ.4 & & & - ; - @ + , (.FXDXzXeXlXGX/.                        ",
"                          8 w.pX6X6X9X9XSXp.i 4 * & & & , F :XSXMXmXbXrXhXKX^.                        ",
"                        . 8 S p.1X6X6X+X0XSXCX,X0.w.0.0.`.ZXvXzXcXcXjXNXJXPX^.                        ",
"                          p Z D p.aXdX$X$XyXSXSXFXSXGXGXAXmXvXcXkXcXcXhXBXPX/.                        ",
"                          p J S V s.pXaX9X6XyXyXxXkXmXmXnXzXxXkXcXmXjXlXLXPX^.                        ",
"                          0 J b B V o.:X0X0X$X9XdXuXkXxXuXjXxXsXeXmXhXMXKXIX/.                        ",
"                          0 J b B i B @.>.}.{.0XwXuXxXbXxX7X7XiXtXcXDXBXKXUX/.                        ",
"                        . p P G V i V U @.>.u.d.|.].%X7X8X7X8XiXkXxXDXlXlXUX^.                        ",
"                          8 L Z C B C I O.,.9.5.R.{.OXoXoX=X8X-XuXuXbXlXlXUX/.                        ",
"                        . 9 J B B Z A O.O.8.>.p.W.{.<XXXoX=XfX=XsXxXuXmXnXPX!.                        ",
"                          0 J B i C K I =.-.>.Y.[.'.oX#X$XfXfX8XiXxXeXMXMXPX^.                        ",
"                        . 0 P Z a B A D O.,.9.u.[.|.OX+XXX9X-XtXqXxXjXjXFXIX^.                        ",
"                          0 J Z C B Z O.O.8.i.i.u.T.OXwX$XoX-XfXiXbXjXMXLXUX^.                        ",
"                          p J S C C A O.O.,.i.i.d.s.'.6X9X$XfX-XkXmXDXMXLXUX^.                        ",
"                      .   u L Z B a A G O.<.i.u.p.d.T.<X9X8X$X=XtXeXhXMXKXPXP.. .                     ",
"                    . . < B L C a B Z U U ,.i.i.y.s.'.<X6X6X$XfXeXiXcXNXKXKX*Xr X                     ",
"                  . ; Z -.H S Z a B A I +.,.i.p.[..XOX<X6X<X9XfXkXbXmXNXKXBXNX*Xz = .                 ",
"                o e ^ %.%.c s B a a Z I +.-.i.Y.T.}.}.XXXX#XyXtXiXkXjXNXBXNXgXF.J.h.w O               ",
"              O t >.' ( %.^ S B Z B Z U +.:.y.y.W.}.XX{.6X=XyXyXuXcXmXBXJXBXgXF.n.F.*X` O .           ",
"          . o t %.] ( [ ^ D B Z B Z A U +.,.<.5.W.[.OXXX6X8XfXfXkXcXmXBXKXKX*XC.n.n.n.J.` O           ",
"        . X l *.( ( [ ~ > e B C b C Z I =.8.9.a.u.[.|.<X=X6X-XtX-XeXNXMXLXHX3 g Z.G.n.n.J.%.@         ",
"      . o l 4.X.( [ l % X 8 J Z B b F I +.-.y.Y.U.{.2X8XoX-XyXtXtXkXbXlXlXHX& X 4 j.G.n.n.J.f         ",
"      . t 2.....{ k o .   8 a C m b A G Y O.y.s..X2X2XOX7XfXyXiXkXxXnXrXLXPXE   . 3 Z.n.n.G.V.w .     ",
"    . : ^ | ..| c $ .   . 2 a K C b A I Y O.i.Y.}.OX@X|.%X8XfXiX8XiX%X;XmXHX/..   O z J.n.n.K.3.o .   ",
"    X F [ X.| %.< .       ; p C Z b S I +.,.i.y.p.U.'.<X=XyXtX8XqXuXrXeXmXSX~.      O j F.n.n.J.z .   ",
"    3 $.' ' %.e X         9 p u Z C A U O.8.8.9.Y.s.d.6X0XoXoXyXzXsXbXvXvXSXr..     . & j.K.n.n.V.> . ",
"  o s ^ ! W k o .         9 J i i b Z I +.=.,.p.}..X'.+XfX8X=XqXuXxXcX@X&XCX7..       . q C.n.m.J.f . ",
"  + z ~ j c < X           8 N K i b A U +.=.,.d.[.OX|.OX-X8X=X8XuXsX;X&X&XGX~..       . X j.G.x.K.] + ",
". 5 z g g d +             0 m L T b Z F T 8.8.p..X}.'.<X+X8X6XqXwXxXeXcXAXGXP.          . f K.m.n.Z.> ",
". y c g h w .             8 M Z T I G V V G @.9.u.p.T.>XOX%X<X#XoX;XuXeXbXFXt..         . 4 C.m.m.A.g ",
"X t ~ j k 5 .             0 J Z A T +.Y U O.,.@.<.u.d.T.}.}.'.R.@XzXeXuXFXFXr..           O ( D.x.b.) ",
"4 o.` Q z &               6 J Z A S I 7.8.w.i.>.>.E.s.2.5.s.|.{.XX-XuXzXbXFXP.. .         X ( L.x.b.) ",
"t $.( ' x + .           . 6 J C a B A G Y w.a.9.>.<.p.u.s.s. XXX6X=X%XdXuXZXt..           X ' L.v.v.) ",
"r _ ( / H +               7 N M b b A I I -.,.@.9.u.W.[.}.}.{.XXXX9X-XqXwXSXr.            X ' A.x.v.) ",
"t %.( ( _ o .           . 2 n Z C b A I U ;.<.,.a.T.W.[.[. X}.{.].8X8XyXdX5X5 .           X ' A.m.b.) ",
"t *.X.( _ $               7 p N B B A G I ;.O.8.5.Q.T.Y.T.[.[.'.].-XtX8XdX4X*             X ' A.m.m.) ",
"3 _ | | #.3 .             @ p n m m C A G O.;.,.>.5.u.p.T.U.}.|.].=XoX%XCX3X;             X / A.v.b.) ",
"X k g.| *.t .             . 9 n a b C A G =.-.<.i.i.y.Y.T.s.}.{.].oX=X<XZXR .           . $  .D.v.D.Q ",
". s 6.X./ d o               # p b m J A I Y -.<.9.y.5.u.T.[.[.R.U.#X0X1X,X&             . q H.v.v.S.q ",
"  , %./ / _ =               . 0 N b Z A G H O.<.i.y.5.p.p.Y.T.W.T.U.>X4XR .             X ~ S.x.D.N.% ",
"  + z ' / } s .               # p N C Z I =.-.w.5.i.y.p.Y.W.[.}.:X:X3XT X             . > V.D.v.H.! o ",
"  . w $.} / _ = .               O p J K U Y -.9.a.i.p.p.p.W.T.Q.)._.J X               X ! L.v.D.C.e . ",
"    + x ` } ~ t O                 O 9 J R 7.+.,.w.w.i.i.E.Q.Q.(.e.u X               . > N.D.v.S.%.o . ",
"      w _ Q W ~ r                   . # p N E e.t.w.f.f.(.(.e.u + .               . % { A.v.D.N.q .   ",
"      O d ~ Q ~ D = .                     X 6 6 y R 7.u 8 8 o .                 . % 3.H.v.c.H.~ X   . ",
"        & D ~ ! ~ x = .                         . X . .   .                   . % { A.M.v.L.&.$ .     ",
"        . 3 x ~ W ^ z 3 X                                                   . * 3.H.c.v.A.h.< .       ",
"          . 3 x ~ Q c c i O .                                           . X q | K.c.v.A.h.q .         ",
"              3 x ~ W W c d 3 o .   .                               . o 4 $.C.L.c.m.L.g.q X           ",
"              . 3 F _ ~ } ~ c l 4 O .   .                     . . o q } N.L.D.b.D.H.4.q .             ",
"                . + t c ~ Q Q [ *.o.z < = X X . . . X . . X * < t 2.6.C.S.v.c.L.N.j $ .               ",
"                  . . , z $.] | | | 6.3.3.j f d f f f k h g 4.h. .k.l.l.z.S.V.3.q X                   ",
"                        O r c 3.| ........ .4.j.j.6.6.6.j.h.k.k.k.k.B.Z.N.] t o .                     ",
"                          X + 4 l $.4.6. .g.g.g.k.g. .g. .g.k.h.h.6.2.f q + X                         ",
"                                X & e t h ` 3.3.3.3.3.4.3.4.3.g t 4 o X                               ",
"                                    . . o $ $ % % , % % % % % X X .   .                               "
};
