/* XPM */
static char *_253dac838bb404bbc1c2205f6601d57[] = {
/* columns rows colors chars-per-pixel */
"50 71 256 2 ",
"   c #010000",
".  c #0B0000",
"X  c #130300",
"o  c #1A0500",
"O  c #150901",
"+  c #1C0C00",
"@  c #1B1207",
"#  c #230D00",
"$  c #290D00",
"%  c #231300",
"&  c #2C1400",
"*  c #2B1901",
"=  c #26190D",
"-  c #2C1B0B",
";  c #261709",
":  c #311B02",
">  c #361802",
",  c #261A10",
"<  c #342102",
"1  c #3B2401",
"2  c #39270A",
"3  c #2C2216",
"4  c #372818",
"5  c #3E3023",
"6  c #422500",
"7  c #422B04",
"8  c #472B06",
"9  c #4D3305",
"0  c #4B340D",
"q  c #533502",
"w  c #583A08",
"e  c #452C15",
"r  c #4C351D",
"t  c #4E391F",
"y  c #483317",
"u  c #533C13",
"i  c #52391E",
"p  c #5A3A18",
"a  c #663D0A",
"s  c #4E3921",
"d  c #4B3B2B",
"f  c #473727",
"g  c #543C23",
"h  c #593F23",
"j  c #533C26",
"k  c #5C431A",
"l  c #63430B",
"z  c #6D4B0B",
"x  c #694607",
"c  c #724E0A",
"v  c #754C03",
"b  c #7B550C",
"n  c #77520B",
"m  c #624514",
"M  c #6C4D14",
"N  c #624619",
"B  c #6C4D1B",
"V  c #664919",
"C  c #6F5218",
"Z  c #765313",
"A  c #7A5614",
"S  c #7C5B1D",
"D  c #75551A",
"F  c #754E15",
"G  c #5B4125",
"H  c #5B432A",
"J  c #57422B",
"K  c #5E4D39",
"L  c #584634",
"P  c #5E522C",
"I  c #614424",
"U  c #654A23",
"Y  c #614629",
"T  c #654A2B",
"R  c #6B4C2B",
"E  c #6B4A25",
"W  c #724D26",
"Q  c #6E502C",
"!  c #73522D",
"~  c #795726",
"^  c #624C33",
"/  c #6B4F31",
"(  c #614E3B",
")  c #6C5237",
"_  c #745432",
"`  c #7C5A34",
"'  c #775938",
"]  c #704D37",
"[  c #7E623B",
"{  c #775C42",
"}  c #635240",
"|  c #7A6049",
" . c #835808",
".. c #845C17",
"X. c #925D0F",
"o. c #8D600C",
"O. c #91610D",
"+. c #8D6315",
"@. c #8B641A",
"#. c #876019",
"$. c #976B17",
"%. c #9F721C",
"&. c #B47B0D",
"*. c #BA7F0A",
"=. c #A97718",
"-. c #B27C13",
";. c #B37E1A",
":. c #B87F14",
">. c #A8740F",
",. c #825A28",
"<. c #835D34",
"1. c #815E38",
"2. c #896525",
"3. c #936D2A",
"4. c #9D7327",
"5. c #86623B",
"6. c #8B653A",
"7. c #8B6539",
"8. c #91663B",
"9. c #946A3D",
"0. c #996C3B",
"q. c #956535",
"w. c #9A7336",
"e. c #AB7C23",
"r. c #A97B2A",
"t. c #B07E23",
"y. c #A6743D",
"u. c #B67E3E",
"i. c #886748",
"p. c #956C41",
"a. c #9A6E41",
"s. c #936F4C",
"d. c #9C7447",
"f. c #9A7958",
"g. c #8E7252",
"h. c #A27543",
"j. c #A57845",
"k. c #AB7B45",
"l. c #A67B49",
"z. c #AB7C4A",
"x. c #A97742",
"c. c #B37C43",
"v. c #A87E59",
"b. c #BD8213",
"n. c #BD851B",
"m. c #B8831A",
"M. c #AD802A",
"N. c #B78626",
"B. c #BA8A34",
"V. c #C8890F",
"C. c #C68A16",
"Z. c #D59314",
"A. c #D5951B",
"S. c #C18C29",
"D. c #C89128",
"F. c #D39623",
"G. c #D19729",
"H. c #C18E32",
"J. c #CC9739",
"K. c #97885B",
"L. c #B5834C",
"P. c #BB864C",
"I. c #BC8749",
"U. c #A5835E",
"Y. c #BC8A52",
"T. c #B68957",
"R. c #AB8049",
"E. c #A58A64",
"W. c #AA9A6C",
"Q. c #B69572",
"!. c #BB926C",
"~. c #AEAB7C",
"^. c #ADA675",
"/. c #B2AD7F",
"(. c #B4A475",
"). c #BBB372",
"_. c #C38C4D",
"`. c #C88B4B",
"'. c #CA914F",
"]. c #C28D53",
"[. c #CB8D52",
"{. c #C98F5A",
"}. c #CC9355",
"|. c #CB945A",
" X c #C69358",
".X c #D29353",
"XX c #D39956",
"oX c #D59A5B",
"OX c #DA9C5B",
"+X c #D79958",
"@X c #D4964E",
"#X c #DDA25D",
"$X c #DEA755",
"%X c #CCA055",
"&X c #E2A357",
"*X c #E3A55B",
"=X c #EAAC5D",
"-X c #E7A85C",
";X c #F0AF5D",
":X c #E6B15E",
">X c #F1B05C",
",X c #C99666",
"<X c #DC9E62",
"1X c #D49A65",
"2X c #C89D73",
"3X c #DDA261",
"4X c #D9A56B",
"5X c #DAAA77",
"6X c #D0AC73",
"7X c #E3A463",
"8X c #E5AA62",
"9X c #EBAD63",
"0X c #E8AA67",
"qX c #F0AE61",
"wX c #EDB364",
"eX c #EDB36A",
"rX c #E9B968",
"tX c #F2B365",
"yX c #F3B56A",
"uX c #F5BA6A",
"iX c #FABC6C",
"pX c #F7BA66",
"aX c #EDBB72",
"sX c #E9B476",
"dX c #FBBE71",
"fX c #F2B972",
"gX c #E6AB73",
"hX c #EEC16B",
"jX c #FCC16E",
"kX c #F3C26D",
"lX c #EBC773",
"zX c #F5C373",
"xX c #FDC272",
"cX c #F7CA79",
"vX c #EBD276",
"bX c #F7D57D",
"nX c #EBD46C",
"mX c #DAAD82",
"MX c #DFB585",
"NX c #E8BB83",
"BX c #DDCA89",
"VX c #EDC688",
"CX c #F7C782",
"ZX c #FBDC83",
"AX c #F7DA86",
"SX c #F1D693",
"DX c #FEE78D",
"FX c #F8E78B",
"GX c #FCED95",
"HX c #FEE59A",
"JX c #FEF49C",
"KX c #FFF193",
"LX c #F9E9A5",
"PX c #FDF5AE",
"IX c #FFFBAA",
"UX c #FFF8B2",
/* pixels */
"                                        . . $ _ ~ W ' e o X . .                                     ",
"                                    . + ^ g.f.mXmX6X2Xv.{ { , o .                                   ",
"                                . X N E.5XzXsX4XsXyX0X1X{.{.!.v.- .                                 ",
"                              . - i.NXCXkXxXdX8X*XiXeX0X<X1X1X2X2X| X .                             ",
"                            . e 2XsXaXiXiXjXxX&X-XqXqX-XyX+X+X<X1XmX| o                             ",
"                          . o Q.NXeXyXiXwXiXxXpXtX9X-X;XqX-X.XOX[.|.mX] X                           ",
"                          O _ 5XfXyXtXpXpXpXjXiXdXiX-X&XtXyX-X+XOX+X4X2X- .                         ",
"                        . 4 MX0X*XtXqX=XtXiXiX>XtXdXpX@XqXdXqX7X+X<X<X,Xf.@                         ",
"                      . . g.NXdX=XtXpXtXqXpXiXiX=X:XdXyX=XpXiXtX&X7XyX1Xv.> .                       ",
"                        . U.sXyXdXdXxXpXqXtXqXtXiX9X9XxXwX-X=XjXyX&X0X+X,X] .                       ",
"                      . > !.sXeXiXdXxXdXtXqXqX-XtXuX9XwXjXjX>X=XyXqX7X7X2Xi..                       ",
"                        r 2X4XyXtXuXdXdXuXpXtXqX&XtXiXpXiXjXjXpX9XyXqX<X5Xs.X                       ",
"                        e ,X,XeXdXqXqXdXuX=XtXqX=X&X9XuXiXjXjXjXqX9XdX0X4Xf..                       ",
"                      . $ s.1XOX0XyXyXiXtXtXyXpXtXtX-X-XpXpXjXjXyXqXfXzX5Xs..                       ",
"                      . - U.,X<X.X0XyXtXiXdXiXxXdXiXqX-X>XpXiXdXiXpXqXfXVXQ..                       ",
"                      . - s.,X{.[.+XyXtXyXdXxXxXdX=XyXuXpX>XiXdXyXiXiXeXMX(.                        ",
"                        - ) v.|.[.[..X7XqXqXdXyXdXqX9XyXtXtXtXiXiXuXdXlXLX/.                        ",
"                        - ^ W ,X1X[.[.OX7XyXyXdXiXyX9X+XuXuXtXuXiXyXkXCXPX/.                        ",
"                        , ( p p.4X1X<X[.[.7XyXyXtXiXtXtXuXdXeXyXuXhXbXDXUX/.                        ",
"                      . , K h p p.4XgX<XOX.X7X7X8XqXfXdXiXtXyXwXuXkXZXGXUX/.                        ",
"                        = K G u 0 W z.1X7X7X[.<XeXqXqXyXdX&X9XtX:XhXbXGXUX~.                        ",
"                        ; ( H G p p p ,.v.[.P.[.7X8X9XyXuXuX*X8XuXhXbXFXUX~.                        ",
"                      . = ( H G i i p I E W ,.q.R.u.'.+X+X*X8XwXcXvXbXFXLX~.                        ",
"                        - ( H h i j g I Y ] 1.q.q.x._.'.XXOX8XeXlXlXAXJXPX/.                        ",
"                        , K H h i r g h T R 1.9.j.L. XI.oX3XeXfXaXbXJXIXPX^.                        ",
"                        , ( g h i r i h I U <.9.l.y.L.I.3X#X0X:XrXbXKXJXPX^.                        ",
"                        = ( H g i r h I G Q 6.8.0.k.L._.oX8X8XyXrXZXKXFXIX/.                        ",
"                      . , L H h i i h H G _ 1.5.9.l.P.%XXX8X*XzXkXbXFXFXIX/.                        ",
"                        = K g h r y j Y I ! W <.9.h.y.|.[.OX#XeXzXvXbXFXPX~.                        ",
"                      . % ^ G h g s h h H ! ! 7.d.l.x.,XoX*X3X8XcXbXvXKXPX^.                        ",
"                    . O 2 U T G i r j h T Q ` <.9.0.k.|.}.oX*XeXzXcXbXJXIX).* .                     ",
"                  . + U [ U G h r i g h h E ` 5.8.0.Y.c.'.+X8XeXzXvXbXFXJXBXw.m @ . .               ",
"              . . 7 S 2.2.C k h g r j h G E ` 7.a.h.L.I.OX@X8XxXcXCXZXDXKXnXN.N...6 X .             ",
"            . % k #.+.+.2.W h h g i g Y I T <.5.d.j.L._.#XOX-X=XcXrXlXZXKXnXn.C.D.B.w X .           ",
"          . % B @.+.O.+.~ R h s r r j h T T Q 5.a.k.k.I.@X#X8XrXcXcXZXZXJXnXN.C.Z.F.S.a . .         ",
"        . + B @.X.O.+.F 6 h h H i r h Y Y Q ` 9.d.z.L.].#X*X9XeXkXbXbXAXIX).c M.F.Z.A.H.w X .       ",
"        O V @.O.X.@.a $ X 5 h h s t h Y T _ ` <.8.x.Y._.OX$XwXyXcXZXcXFXJX^.X 1 t.G.Z.A.H.a . .     ",
"      . 1 S o.o.X.a $ X @ L J s t s h H h Q <.<.8.x.P._.XX8X8XeXxXlXAXLXLXK.. . > r.F.Z.Z.B.9 .     ",
"    . 2 S o.X.@.B $ X . @ f J t r s h H g E ` 7.a.z.Y.u.XXOXeXfXzXrXDXJXLXK.. . . 1 M.F.Z.F.4.$ .   ",
"  . O U .. ...M $ .     = f s s t r G h I _ ! <.8.l.Y.I.}.#X0XeXzXcXDXFXSXE..   . X 8 H.Z.Z.J.q .   ",
"  . < D n c m & . .     = f 5 s r r h g Y T W <.9.h.y. X[.#XXX0XzXzXZXlX5XE..     . o #.F.Z.F.r.< . ",
"  X u l x m 8 .         = K r y r t j h T T ` 8.l.T.y.P.oXXX3X0XcXfXcX%X4XE..       . 1 S.A.V.D.w . ",
"  @ k l l u % .         = } J r r t j ^ I Q ` 6.j.k.k.].}.XX0XeXzXcXuXaXVXW.X         O +.D.Z.C.2.$ ",
". - u 9 9 < .         . = L j g s r i h G Y ` p.j.z.h.].|.oX#XeX:X-XrXcXSXW.          . 1 B.V.C.r.> ",
"O 2 9 9 0 * .           , L h i G t r s Y Y _ 5.d.l.k.|. XoX7X:X$XwXjXZXHX(.          . o #.A.C.H.v ",
"2 k q 9 2 O             = ( H r h T G G i I E W <.9.j.Y. X}.XX*XrXjXrXcXHXW..         . . B S.V.S.v ",
"< k l w 2 .           . = ( H r r g / ' ' ` ` ! W q.h.h.y.y.'.#XyXrXpXcXHXW..           . 8 e.:.:.v ",
"1 N z V u X .         . , ( L h r r h T ' ` s.5.<.7.h.l.h.B.|.#XwXzXcXcXVX(.            . # %.:.:.>.",
"1 V z M k .           . = ( J J t r j g h I ` 5.p.8.d.z.Y.Y.+X#X@XyXxXaXSXW..           . + %.-.:.*.",
"1 m x x u X             = K J h t y g i h I I _ <.6.x.z.P.Y._.`.`.eXaXzXHX^..             o $.-.&.*.",
"1 m x l u O             @ L H J s t g g h h T Q ` p.l.z.T.Y.`.`.@XrXeXZXLXW..           . # %.b.V.V.",
"1 V x l u O               5 J g s s g G h Y ! ' ` 8.9.a.z.c._.`.OX#X0XAXSXP             . 0 e.C.:.*.",
"1 V z z u O .             3 d s j s s h h I R ! 1.6.8.0.R.k.I.c.}.'.wXCXBX;             . m n.V.:. .",
"< k n x m <               O d s s s h s h H / Q ` 6.8.9.l.k.L._.].u.8XVXg.X           . o Z ;.b.N.v ",
". u D c M 7 .             . 5 d f s j h g h T E 1.8.9.d.h.x.R. X|.'.sX5X2 .           . > w.-.-.r.6 ",
"  < C n c C %               . 3 f s j h h Y / Q ` 5.8.0.j.k.y. X4X,X5Xi..             . q %.&.;.q.$ ",
"  O V A b D 0 .               . 3 d J t h h T / 1.7.a.a.l.z.T. X,X2Xi.+ .             + @.;.&.t.m o ",
"    7 D b n k %                 . 3 d d J s / _ ` 1.p.p.j.l.T.,XU.k %               . q e.&.-.r.7 . ",
"  . % V n c M 7 X                   , f J J ^ / ` 5.s.s.v.f.f.^ - .               . < 3.-.&.r.x X . ",
"      2 C c z M 2 X                   O @ 5 f J | i.{ ) { r - O                 . o n e.-.-.3.* .   ",
"      O 0 M c c M 7 .                     . . . 3 4 @ . . .                   . X l e.&.&.e.k .     ",
"        O k M v z C 2 .                                                     . O l r.-.-.e.S + .     ",
"        . % m Z c n M 7 O                                               . . 1 #.e.-.-.e.S # .       ",
"          . < V Z b n M u ; O . .                                     . O 6 w.e.&.-.e.S % .         ",
"            . * k S b n A C 0 O X                               . . X 7 ..e.m.&.-.r.~ # .           ",
"              . % m 2.b b b D M k < % . . . . . . . . . . . . . & 6 S r.N.n.-.;.%.C + .             ",
"                . O 0 V S  .o.+.+.@.A w w & # # # % % # $ > z n %.t.N.C.b.N.t.2.6 X .               ",
"                    . % 9 S @.@.O.o.$.$.3.2.2.2.7.3.3.w.4.4.t.S.n.b.:.n.N.%.l # .                   ",
"                      . . * u ~ 3.@.%.$.>.$.%.>.=.;.;.;.m.n.:.C.n.N.M.2.w & . .                     ",
"                            . % 7 l ..+.O.>.=.>.=.;.;.;.n.S.;.=.%.v 9 $ . .                         ",
"                              . . O + : q l l x a  .v v n c 8 & + X . .                             "
};
