/* XPM */
static char *_1679f57e0e044ffd4a1ea25860dc46b[] = {
/* columns rows colors chars-per-pixel */
"50 74 256 2 ",
"   c #010000",
".  c #0B0100",
"X  c #0C0800",
"o  c #130400",
"O  c #1B0600",
"+  c #150900",
"@  c #1B0B00",
"#  c #161602",
"$  c #1B1402",
"%  c #1E150B",
"&  c #1B1A04",
"*  c #240D00",
"=  c #241301",
"-  c #2C1400",
";  c #22160A",
":  c #24190E",
">  c #2C1A06",
",  c #331300",
"<  c #321C02",
"1  c #391D05",
"2  c #2E170A",
"3  c #382408",
"4  c #2E2113",
"5  c #362716",
"6  c #322D0F",
"7  c #3D3C20",
"8  c #401E00",
"9  c #442C03",
"0  c #462A03",
"q  c #4A3209",
"w  c #523100",
"e  c #593A09",
"r  c #442E14",
"t  c #493217",
"y  c #543918",
"u  c #522E0C",
"i  c #623D00",
"p  c #623E1A",
"a  c #483728",
"s  c #553D21",
"d  c #5F420D",
"f  c #5C4119",
"g  c #694607",
"h  c #734600",
"j  c #754B06",
"k  c #7B540A",
"l  c #674A1A",
"z  c #76551D",
"x  c #795718",
"c  c #6F4F16",
"v  c #594426",
"b  c #5C4935",
"n  c #4F4D2E",
"m  c #654622",
"M  c #6B4B26",
"N  c #6C4D2A",
"B  c #65492A",
"V  c #714E28",
"C  c #6D5128",
"Z  c #735422",
"A  c #74532E",
"S  c #79542C",
"D  c #795928",
"F  c #6A4F33",
"G  c #644D34",
"H  c #6E5234",
"J  c #6D543A",
"K  c #66523C",
"L  c #745432",
"P  c #795731",
"I  c #7C5A34",
"U  c #71573A",
"Y  c #755A3C",
"T  c #7C5D39",
"R  c #7F6439",
"E  c #78704C",
"W  c #895C08",
"Q  c #825D18",
"!  c #8D5600",
"~  c #97690D",
"^  c #97670B",
"/  c #8D6314",
"(  c #8A641D",
")  c #946914",
"_  c #9A6C14",
"`  c #956B1B",
"'  c #956916",
"]  c #9C711E",
"[  c #8D610C",
"{  c #AC760C",
"}  c #AD7913",
"|  c #AC7B1D",
" . c #A67616",
".. c #B27C13",
"X. c #B07203",
"o. c #855D2A",
"O. c #835E34",
"+. c #825E39",
"@. c #8E5E30",
"#. c #896428",
"$. c #926923",
"%. c #9C732B",
"&. c #856235",
"*. c #8A6336",
"=. c #85623A",
"-. c #8A653A",
";. c #8D693D",
":. c #886838",
">. c #916A3E",
",. c #956C35",
"<. c #9C723B",
"1. c #A87B26",
"2. c #AB7D2F",
"3. c #8E6A42",
"4. c #866847",
"5. c #956D42",
"6. c #9B7447",
"7. c #8E7551",
"8. c #A67945",
"9. c #BB8315",
"0. c #AE802B",
"q. c #B78525",
"w. c #B28A38",
"e. c #C58914",
"r. c #D19115",
"t. c #E49E1A",
"y. c #EA9F0B",
"u. c #ECA20C",
"i. c #F3A70D",
"p. c #ECA314",
"a. c #EBA41A",
"s. c #E6A019",
"d. c #F2A715",
"f. c #C28C25",
"g. c #CA932B",
"h. c #D49929",
"j. c #D29A34",
"k. c #C69336",
"l. c #DDA52C",
"z. c #DBA337",
"x. c #E9A629",
"c. c #E2A531",
"v. c #9E8155",
"b. c #AE8144",
"n. c #B99749",
"m. c #A78759",
"M. c #B68755",
"N. c #BA9956",
"B. c #B18C4D",
"V. c #B6A35C",
"C. c #AA9067",
"Z. c #B7A967",
"A. c #BEAD78",
"S. c #B6AE7A",
"D. c #969368",
"F. c #C88D51",
"G. c #C89557",
"H. c #DC9C5C",
"J. c #D99958",
"K. c #C8954E",
"L. c #E19D5C",
"P. c #C6A65A",
"I. c #DAA45D",
"U. c #CAA74D",
"Y. c #E4A25D",
"T. c #E9B25F",
"R. c #C89A6B",
"E. c #D59C66",
"W. c #C79E72",
"Q. c #E09E61",
"!. c #CAA569",
"~. c #D8A665",
"^. c #CCB166",
"/. c #D5B668",
"(. c #C7A676",
"). c #D2AD7B",
"_. c #C2B17C",
"`. c #C4B278",
"'. c #DAB775",
"]. c #E5A563",
"[. c #E4A963",
"{. c #ECAB64",
"}. c #E7A968",
"|. c #F1AF69",
" X c #E9B46A",
".X c #F1B366",
"XX c #F2B36B",
"oX c #F4BB6C",
"OX c #F6BC6B",
"+X c #E7B978",
"@X c #F5BC73",
"#X c #FABD73",
"$X c #F3B976",
"%X c #EAAE72",
"&X c #DDC274",
"*X c #F7C36E",
"=X c #E6C779",
"-X c #F5C375",
";X c #FBC474",
":X c #FCCA75",
">X c #F5C47C",
",X c #FAC47A",
"<X c #FCCB7B",
"1X c #F5C979",
"2X c #F3D67B",
"3X c #FFE171",
"4X c #B6A182",
"5X c #CBB484",
"6X c #E9BD86",
"7X c #D7C993",
"8X c #CFC68D",
"9X c #EBC688",
"0X c #FCCC83",
"qX c #F7C987",
"wX c #ECD889",
"eX c #F5D688",
"rX c #E5C896",
"tX c #EAD594",
"yX c #F5D997",
"uX c #F7E68B",
"iX c #F8F18F",
"pX c #F4EF93",
"aX c #FBEC94",
"sX c #FDEE9C",
"dX c #F6E498",
"fX c #FBF594",
"gX c #FDF996",
"hX c #F6F29B",
"jX c #FBF59B",
"kX c #FDFA9C",
"lX c #F4F194",
"zX c #EBE194",
"xX c #DAD6A6",
"cX c #DDDCBC",
"vX c #D9D8B6",
"bX c #D7CFA1",
"nX c #E7D8AD",
"mX c #F9EAA5",
"MX c #FDF5A4",
"NX c #FEFBA3",
"BX c #F6F3AC",
"VX c #FBF5AB",
"CX c #FFFBAB",
"ZX c #F7F1A3",
"AX c #F6F5B3",
"SX c #FCF6B3",
"DX c #FEFBB5",
"FX c #F6F5BB",
"GX c #FAF7BD",
"HX c #FCFBBC",
"JX c #F7F8BE",
"KX c #E7E3AB",
"LX c #FDFCC3",
"PX c #FEFECA",
"IX c #F9F7C3",
"UX c #FDFED2",
/* pixels */
"                                                    o s U @                                         ",
"                                                . @ 4.5XrXY .                                       ",
"                                            . . t 7.6X6XqXW.<                                       ",
"                                          X < C.).E.$X#X#XyX(.>                                     ",
"                                      . = T R.qX6XQ.L.|.|.#X0XW.= .                                 ",
"                                  . . t A.9XqX*X#X|.L.Y.{..X#X9XB .                                 ",
"                                X r v.6XqX@X:X;X#XXX|.{.{.#X#X<X'.B .                               ",
"                            . = F 5X9X<X:XoXT.:XXXXXXX|.L.|..X#XqX9XG .                             ",
"                        . o F W.+X X X*X:X:XT.;XXX%X$X|.H.L.|.XX$X>X).< .                           ",
"                    . . 3 4.6XqX<X;X X*X:X2X[.I.E.F.F.Q.E.E.|.|.XX#X6XC.=                           ",
"                  . - +.R.6X+X#X<X<X#X*X*XI.K.b.8.8.<.6.8.8.F.}.[.XX,XyXC.=                         ",
"                + b m.6X].H.{.$X*X;X*XI.K.G.B.8.6.*.S V V -.@.E.|.|.XX,X9X=..                       ",
"              + C.9XqX$X].J.{.XX@X:X-XK.G.G.<.3.S B v y t y m 6.%XXXY.,X0X'.s                       ",
"              @ C.+X$X;X#X{.].].{.$XI.B.M.5.P N s t t 5 5 2 r p G.].J.#X<XqXrXv .                   ",
"              + L M.+X;X#X.XY.{.].].F.<.P y r 3 4 2 : ; ; = = q R.].F.}.XX$XqX(.$ .                 ",
"              + T *.~.0X;X|.|.|.Q.%XG.Z u 6 3 4 4 4 : ; % % $ < E.%XQ.H.].#X0X9X7.@                 ",
"              + J &.b. X<X*X|.Y.].E.6.y r 5 4 4 : : : : % % $ = !.$XY.L.|.|.oXqX9Xv.@               ",
"              X H &.I <.+X-X X{.].E.8.u 1 4 2 ; ; % % ; % $ + y =X:XOX{.{.K.[.-X9XrX7.+             ",
"              o U 3.;.o.2.>X,XXX].Q.R.O., 2 : : ; % % % % @ = 6.qX<X*X.X{.L.[. X=XmXvX$             ",
"              + H 4.&.o.,.G.>X,X|.].E.8.u 2 * * $ $ @ @ + * 6.9X-X;X:X:X{.J.%X+XyXGXcX&             ",
"              + J =.=.O.o.@.N.@X$XQ.Q.E.E.6.y 2 - < - < p v.9X1X-X1X:X-X$X'.9XSXIXPXvX$             ",
"              X J =.T -.-.@.#.%X>X$XXX}.%XE.R.W.).).`.).9XeX-X@X<X1X1XeXyXmXLXIXLXUXcX$             ",
"              o F =.-.*.-.-.@.b.+X-X#XXX].E.E.%X<X,X0X<X=X X*XoX<XqX=XhXDXHXHXHXIXUXvX#             ",
"              o U =.&.-.>.*.*.*.b.+X#X{.Q.Q.J.}.OXOX:X*XOX;X;X=XwXdXmXDXLXIXHXHXIXUXcX#             ",
"              + Y 3.O.-.-.O.@.@.#.b.[.oX$XY.J.Q.|.OX*X:X;X0X9XyXSXHXGXLXPXGXLXHXLXPXcX#             ",
"              o Y =.O.O.-.-.O.-.o.@.G.>X,XXXJ.J.L.J.oX-X=XeXVXHXLXLXLXUXPXLXLXHXIXPXcX#             ",
"              + Y P -.O.-.O.-.@.*.*.<.~.>X#XI.Q.J.H.I.=XyXSXLXLXPXLXIXPXPXIXHXHXJXPXcX#             ",
"              o U =.;.;.-.O.=.O.=.*.*.<.~.<X@XY. XI.9XmXDXGXLXLXPXPXIXPXUXLXIXHXLXIXcX$             ",
"              + U -.O.O.O.-.+.3.;.-.@.*.b.>X<X+X9XzXHXLXLXLXHXAXLXPXIXLXPXPXPXLXLXPXcX#             ",
"              o U +.V o.-.-.*.-.&.O.&.*.*.n.9XdXSXIXLXLXHXLXHXAXLXLXHXLXPXIXLXHXIXPXcX#             ",
"              + U 4.O.O.O.-.=.=.-.O.*.*.*.:.`.HXLXLXPXLXPXPXLXLXPXPXIXLXLXJXLXFXLXPXcX#             ",
"              o J +.+.-.-.*.*.*.-.-.>.>.*.&.`.LXPXLXLXPXLXLXPXLXPXPXIXAXHXLXLXPXLXPXvX#             ",
"              o J +.O.O.O.O.*.>.-.*.*.*.=.:.5XLXLXHXLXLXHXJXLXJXLXLXHXJXFXHXLXLXGXLXcX#             ",
"              X K +.=.;.O.*.-.-.*.;.>.>.-.:.A.LXLXJXLXLXHXAXLXJXLXLXIXLXLXLXLXIXFXIXvX#             ",
"              o G T =.=.-.-.>.*.*.>.;.*.-.;.`.LXLXLXPXLXLXPXPXJXPXLXHXPXPXLXPXLXLXUXcX#             ",
"              X s T O.*.O.O.O.-.-.*.>.;.;.&.A.LXLXHXLXLXLXLXLXIXLXLXIXLXLXIXLXLXLXPXcX$             ",
"              o t I I O.=.:.=.-.:.-.;.O.&.I `.LXLXFXIXLXHXLXAXDXHXHXLXLXLXLXLXIXLXPXvX$             ",
"            o r V S A P =.O.=.-.=.;.>.&.&.R `.PXLXIXPXPXJXLXDXHXHXHXLXLXPXPXLXHXLXLXKX6 .           ",
"          . q Z &.S V A T O.-.O.O.-.>.-.-.:._.LXLXLXLXLXJXHXHXHXLXHXIXLXHXIXLXLXHXHXaXB.m o .       ",
"        X q z c o.:.l V T V O.O.*.-.-.-.-.:.`.HXHXJXHXLXJXAXHXDXLXLXJXIXLXHXLXJXDXNXuXU.n.1 .       ",
"      . 9 z x k z :.A V I P O.=.O.*.=.3.3.;.A.HXSXHXLXHXHXFXLXLXLXPXLXPXJXLXHXHXHXCX3Xl.c.q.1 .     ",
"      = l x x g Z P L N m N O.=.-.3.3.=.-.-.`.HXBXAXHXHXIXIXLXIXLXLXHXLXLXHXHXVXzXw.U.l.s.x.w., .   ",
"    o f x j i e V L L L B f Y T I O.O.-.;.:.A.LXHXHXJXLXLXPXLXHXHXLXHXAXDXSXDXmX8X( j l.a.p.z.j .   ",
"    < Z j h e 1 M A A L I m B P I =.;.-.I &.5XPXHXHXLXLXLXLXLXLXHXHXAXBXDXCXCXdX/.'.( ~ x.p.t.f.- . ",
"  X f x k g q @ B N M A Y A p H L T =.=.-.&._.LXHXDXLXLXHXHXHXHXDXDXZXVXCXwXP.^.=XtXrXw g.a.p.c.j o ",
". < Q W x c = + B L A N V L N p m A O.*.&.&.S.LXAXAXHXHXDXHXHXVXCXCXMXaX&XP.N./.dXSXxX- W c.u.a.w., ",
". y ( [ Q e o + G Y I V V L P L m T T &.-.:._.HXDXAXDXHXAXDXDXCXCXNX=XN.N.'.wXsXMXDXbX= 8 k.p.p.j.! ",
"1 c [ / D <   X G H N m L L O.4.N M S T T &.A.HXDXBXDXVXBXZXCXsX=X^.N.V.=XdXNXhXMXDXbX= O $.x.d.c.^ ",
"w ( [ [ Z @ . o b Y L A V A L +.T m m A I I `.HXDXVXCXCXMXdXdX^.n.U.&XzXZXNXNXZXNXBXbX& o e h.d.t.X.",
"j ` ^ / l +   X b J F I I L I +.=.3.P V P P `.DXDXMXMXCXhX=XV.U./.uXsXCXCXCXCXCXNXVXnX$ . , h.a.p.p.",
"|  .{ [ 0 .   . 5 U F L N M L I A 5.6.O.A C A.CXMXNXdXwX/.^.^.&XaXkXNXVXMXCXDXCXNXBXxX& . , g.a.u.y.",
" .{ { ] 9 .     % b K A H N A I V +.3.3.I c Z.NXhXuX/.B.U. XuXuXkXhXNXZXpXhXkXZXkXBX8X$ . - g.p.u.y.",
"| } { q.q         ; b b N A P I A I -.6.6.o.!.sX=X^.~.P.=XuXjXhXsXkXNXNXkXNXZXhXzXBXxX#   , g.a.u.y.",
"} } { | 9           * b G N A A V P =.>.R.M.^./.n.n.1XuXjXkXgXhXNXNXgXkXjXNXNXNXhXSXnX# . - f.s.i.i.",
"0. .^ ~ 9 .         . a K B P A N A I O.*.N.P./.&X2XfXjXaXNXhXlXNXjXjXhXhXjXkXlXlXBXxX# . - g.p.i.i.",
"k ~ ^ ~ Z +           . t J F A I T O.O.D 8.'.=XfXaXfXjXlXNXNXjXNXlXgXlXlXkXhXzXBXKXK   . - h.d.d.d.",
"i ` ~ [ z @             X a G F N A P P +.o.^.sXfXiXkXkXNXNXNXkXkXNXhXhXgXhXVX7XD.7     o c x.d.p.y.",
"w #.~ W x 1 .             o b B H A M V T D B.pXjXgXkXlXlXjXkXgXgXgXhXNXZXBX8X7 X       O ` x.i.x.^ ",
"O l ' ^ ` e .             . : b G N P P I Z V.NXkXiXiXgXgXkXaXwXgXiXNXAX8XE &         . 0 j.a.d.c.h ",
". 3 ( _ _ x -                 : v F F M P D Z.kXfXiXgXgXgXiXuXuXfXMXKXS.&             o ) x.i.a.k., ",
"  + z ) ^ ` e o                 5 U U A C l V.NXkXfXgXgXiXiXsXzXBXC.7 X             . 8 h.p.i.x.( O ",
"  . q $.~ ) #.3 .               + n J F H B V.MXjXiXgXkXlXZXVX5XE #               . O ' x.d.a.g.8 O ",
"  . @ l / ~ ' x -                 + a G N C V.jXiX2XuXfXjXtXE 4                   O W c.d.d.c.( o . ",
"      - o.) ~ ' Z - .               % K H C V.aXuX2XdXdXZ.n                     o u z.p.p.x.1.- . . ",
"      o q #.~ ~ ` x -                 5 K v M.tXeXtX8X4.&                     O w ..x.i.t.j.e o     ",
"        o q $.~ ~ ` z < o X           . 5 t v.yXrX4.5 .                   . @ c w.h.a.t.j.h o       ",
"          @ d ` _ ~ ' ( d @               @ 4.4XG X                   . o 3 W q.e.e.r.k.g o         ",
"            @ e ( _ ~ ~ $.z q @ . .       . : $                   . . = e 1.f.e.e.e.k.i o           ",
"            . . q #.` _ _ _ ` x 0 = o .     .     .     .   . . @ < i ] q.e.e.e.| %.l o             ",
"                . - l ` _ ~ ~ ~ $.( d f - @ @ @ @ @ @ O @ @ q d z %.0.9.9.9.9.0.o.- o               ",
"                  . + q z $._  .{ | | 1.] ' ' ` ] ` ` / ( / ]  .| 9.9.9.9.w.o.0 O . .               ",
"                      X @ 9 o.1.1.} ..} ....} { ......{ {  .{ } 9.9.9.0.( 8 O .                     ",
"                          X @ 9 l ,.%.1.| | }  .} { ..{  . . .1.%.*.e 0 o . .                       ",
"                              . o * , i h h ! { { { { ..^ h h h 1 * o .                             "
};
