/* XPM */
static char *_886b5bdb2724433b6f73ae662e616d7[] = {
/* columns rows colors chars-per-pixel */
"50 75 256 2 ",
"   c #010000",
".  c #0B0100",
"X  c #140400",
"o  c #1A0400",
"O  c #1C0B00",
"+  c #130B00",
"@  c #1C1306",
"#  c #230C00",
"$  c #2B0D00",
"%  c #241300",
"&  c #2B1501",
"*  c #2C1A01",
"=  c #261B09",
"-  c #321903",
";  c #2B210F",
":  c #342303",
">  c #3B2501",
",  c #39270A",
"<  c #35291D",
"1  c #382919",
"2  c #3C3116",
"3  c #3A2D21",
"4  c #3E3123",
"5  c #432600",
"6  c #432B02",
"7  c #462C05",
"8  c #4C3409",
"9  c #53390A",
"0  c #573906",
"q  c #452D14",
"w  c #462E17",
"e  c #4C3415",
"r  c #4C351B",
"t  c #4A3614",
"y  c #553B1F",
"u  c #593D1D",
"i  c #563B15",
"p  c #512900",
"a  c #613E18",
"s  c #633D00",
"d  c #463824",
"f  c #553C22",
"g  c #5A3F22",
"h  c #503D2C",
"j  c #4A3E32",
"k  c #5C431E",
"l  c #5E4314",
"z  c #554214",
"x  c #664408",
"c  c #754C04",
"v  c #7A550B",
"b  c #795409",
"n  c #6C4C15",
"m  c #64441C",
"M  c #6A4C1C",
"N  c #664719",
"B  c #755415",
"V  c #795614",
"C  c #7D5B1A",
"Z  c #765617",
"A  c #6F511D",
"S  c #5D4325",
"D  c #54422C",
"F  c #5B442B",
"G  c #59492C",
"H  c #5D4B33",
"J  c #584531",
"K  c #5F5134",
"L  c #624525",
"P  c #644924",
"I  c #6A4B25",
"U  c #624629",
"Y  c #654A2B",
"T  c #694C2C",
"R  c #684724",
"E  c #6B502E",
"W  c #7D5425",
"Q  c #785726",
"!  c #624C34",
"~  c #6A4E30",
"^  c #6D5132",
"/  c #655137",
"(  c #775733",
")  c #6B633E",
"_  c #5E5D47",
"`  c #625E47",
"'  c #605F4A",
"]  c #61604C",
"[  c #855C0C",
"{  c #875908",
"}  c #835D13",
"|  c #835D1B",
" . c #805214",
".. c #925E13",
"X. c #9A6A0E",
"o. c #886219",
"O. c #956B1C",
"+. c #996C17",
"@. c #9F7016",
"#. c #A3700E",
"$. c #AB750D",
"%. c #B27A0C",
"&. c #B47A09",
"*. c #AE7913",
"=. c #AC7A1B",
"-. c #A67517",
";. c #B37D13",
":. c #B47E18",
">. c #A06E0F",
",. c #815A28",
"<. c #8C6623",
"1. c #926C26",
"2. c #946D29",
"3. c #9C7224",
"4. c #9C762D",
"5. c #866739",
"6. c #93703C",
"7. c #AB7C24",
"8. c #AA7D2B",
"9. c #A37725",
"0. c #B07D21",
"q. c #937648",
"w. c #8D724D",
"e. c #A67F48",
"r. c #BF7E44",
"t. c #C07F45",
"y. c #BA820F",
"u. c #BC8313",
"i. c #B5821C",
"p. c #B98218",
"a. c #AE8029",
"s. c #B88424",
"d. c #AA863B",
"f. c #C38715",
"g. c #C2840D",
"h. c #C2932D",
"j. c #9B834A",
"k. c #958355",
"l. c #968559",
"z. c #9A8757",
"x. c #AD8749",
"c. c #B38E42",
"v. c #B7974A",
"b. c #AF905B",
"n. c #A88A60",
"m. c #B4956D",
"M. c #B4A778",
"N. c #CB8B4B",
"B. c #C4854A",
"V. c #C79E4F",
"C. c #D7954B",
"Z. c #CC8C52",
"A. c #CE8F59",
"S. c #D08F54",
"D. c #C99858",
"F. c #D39454",
"G. c #DC9B54",
"H. c #D5965A",
"J. c #D59B5C",
"K. c #DB9C5B",
"L. c #C7A657",
"P. c #DAA35B",
"I. c #D5A249",
"U. c #E4A45C",
"Y. c #ECAC5D",
"T. c #E3A458",
"R. c #F3B25E",
"E. c #EFB15E",
"W. c #CD9C62",
"Q. c #C59A68",
"!. c #D29E63",
"~. c #DE9E60",
"^. c #C59D72",
"/. c #D8A664",
"(. c #D8B56A",
"). c #CAA578",
"_. c #D8AA78",
"`. c #D1B16D",
"'. c #E3A562",
"]. c #E6AA63",
"[. c #EBAC63",
"{. c #E3AC6B",
"}. c #EAAD69",
"|. c #F1AF61",
" X c #EEB164",
".X c #E3B56B",
"XX c #EBB26C",
"oX c #E3BB69",
"OX c #F3B464",
"+X c #F7B966",
"@X c #F9BA66",
"#X c #F3B56B",
"$X c #F5B96B",
"%X c #FBBC6B",
"&X c #F8B766",
"*X c #E5B171",
"=X c #EDB574",
"-X c #ECBA7C",
";X c #E7B978",
":X c #F3BA75",
">X c #FEC06D",
",X c #E6C879",
"<X c #FEC070",
"1X c #F4C07B",
"2X c #EEDC7D",
"3X c #EAD379",
"4X c #F2DC7E",
"5X c #F7DC77",
"6X c #F0E17C",
"7X c #CEB789",
"8X c #E9BC87",
"9X c #DCC689",
"0X c #E8C987",
"qX c #F5C181",
"wX c #E9D388",
"eX c #F5DD84",
"rX c #F4DD8B",
"tX c #F6D789",
"yX c #E9D89A",
"uX c #F4DB93",
"iX c #F7DC99",
"pX c #E8C792",
"aX c #EEE182",
"sX c #F4E384",
"dX c #F9E686",
"fX c #FCE58C",
"gX c #F6E98B",
"hX c #FCEB8C",
"jX c #F6E48B",
"kX c #FDF08E",
"lX c #FCE494",
"zX c #FDEC93",
"xX c #FDED9A",
"cX c #F7E299",
"vX c #FFF394",
"bX c #FEF39C",
"nX c #FFF99E",
"mX c #EBE295",
"MX c #FBDDA7",
"NX c #FDEBA3",
"BX c #F8E7A4",
"VX c #FEF6A2",
"CX c #FDF9A6",
"ZX c #F6F5AB",
"AX c #FCF4AC",
"SX c #FCFBAD",
"DX c #F5F5B4",
"FX c #FDF6B3",
"GX c #FCFBB4",
"HX c #FDFCBB",
"JX c #F9F6BA",
"KX c #F4ECB4",
"LX c #FEFDC2",
"PX c #FEFCCC",
"IX c #F6F4C4",
"UX c #FCFDD1",
/* pixels */
"                                                . . 3 .                                             ",
"                                              . + J m.w .                                           ",
"                                            . - e.7X8X7Xw .                                         ",
"                                        . X 1 q.8X{.}.=X).e . .                                     ",
"                                      . # ( ^.!.A.H.[.}.-X_.w .                                     ",
"                                  . . w ^._.{.'.~.H.K.'.XX-X).q .                                   ",
"                                . O u b.;X=X].U.~.S.S.{.].XXqX_.w .                                 ",
"                            . . - q.8X*X}.%XE.U.[.H.S.H.K.].#X-X).q .                               ",
"                            . U ).-X:X$X X|. X].}.[.G.B.G.'.T.XXqX).7 .                             ",
"                        . % ^ 7X*X$X<X%X%XOX X X[.[.[.F.H.K.U.K.#X1X^.q . .                         ",
"                      . - m.-X}.'.T.+X+X>X$XT.Y.Y.|.[.'.Z.N.H.K.].XX;XQ., .                         ",
"                  . X r e._.}.%X XT.T.|.$X<XY.|.|.|.OX#XU.F.N.K.'.].}.;X).w . .                     ",
"                . - ^ Q._.!.~.:X%X[. XU.#X$X%X%X&X|.%X&X|. XC.G.[.U.Y.:XqX_.r X                     ",
"              . d )._.!.~.Z.~.[.OXOXK.T.G.U.OX@X%XR.R.&X&XOXY.C.C.N.K.|.#XXX).r .                   ",
"            . 4 ^._.{.K.K.S.~.~.].OX#X]. XT.Y.|.>X&XR.R.R.@X|.T.S.N.~.~.'.#X-X^.r .                 ",
"            . h ^.*X}.}.'.U.H.~.~.|.%X%X[.$XY.C.&X%X%X@X@X>X<X#XY.N.t.C.~.|.:X=XQ.d .               ",
"              1 ( W.XXXX].U.G.K.K.'.].%X%X#X[.C.C.|.>X>X@X>X@X#X#XU.F.S.K.U.].:X;X).2               ",
"              1 I ,.W.=X#X].K.H.S.S.S.U.%X%X|.|.T.Y.$X>X%X@X>X@X%XOXT.K.K.N.F.{.*XpXK               ",
"            . < ~ E ,.A.:X=X].K.F.B.!.A.}.%XR.&X&XE.@X>X+X+X+X+X%X%XOX'.~.F.J./.9XKX` .             ",
"              < ! ~ I ,.!.=X[.K.H.H.A.N.G.|.&X%X@XT.R.>X@X+XE.E.&X#X@XXX/.!.W.9XFXPX`               ",
"              < J T T R ,.W.=X}.H.H.Z.B.H.U.|.&X>X&XY.@X@X$XOX&X$X XXX1X/._.MXJXLXPX'               ",
"            . 3 / Y S I R W W.-X=XH.B.S.H.~.U.|.%X@X&X&X@X<X&XT.$X$XP.,XtXAXLXLXLXPX'               ",
"              < ! Y T R R R ,.A.{.'.~.S.Z.F.F.G.OX&XR.Y.OX$X$XT.P..X(.uXFXFXHXHXJXPX'               ",
"            . 3 ! ~ U R U R m ,.W.{.'.'.~.t.t.K.U.E.OXOXE.%X XXX.X;XiXJXHXJXLXHXJXUX'               ",
"              < H Y U Y Y Y T a ,.W.{.'.H.B.B.H.~.'.&X%XOX#XoX*XuXAXGXHXLXPXHXLXLXUX_               ",
"            . 3 H U Y L U ~ T Y a ,.W.{.}.~.Z.B.Z.K.[.#X$X X,XcXFXHXGXHXLXHXHXHXJXPX_               ",
"            . 3 ! U U U U U T ^ Y a ,.W.*XXXF.B.S.S.K.]..X0XBXGXHXHXJXHXHXHXPXHXHXUX'               ",
"            . 3 / ~ U U Y U U T Y Y a W !.=X}.S.J.B.F.!.wXGXHXHXPXHXGXHXHXHXHXLXPXUX]               ",
"              < ! Y Y S S ~ U g S T R a ,.A.XX}.D.P.;XrXNXGXHXHXHXJXJXGXSXZXHXLXJXUX]               ",
"              < H ~ ~ U S ~ Y U S Y ^ R a W D.8X(.,XNXGXZXZXHXHXHXHXJXHXSXSXJXJXJXUX'               ",
"              < / U E E U U Y T Y U ~ T L a ,.).BXFXGXHXGXHXHXHXLXLXHXHXHXSXHXHXLXUX]               ",
"            . 3 H U L E Y L T T S T T S U R R e.HXFXGXGXJXHXHXGXGXHXDXJXGXSXGXHXHXUX]               ",
"              3 U U L Y U S g U Y U ~ Y P E k l.HXSXGXSXGXJXSXSXGXGXGXGXSXSXGXHXDXKX_               ",
"              < / U T Y L ~ T L Y ^ E E Y Y P l.HXHXHXHXHXHXSXZXGXGXGXGXGXGXGXHXJXIX_               ",
"            . 3 / Y T U T U ^ U g T L P I ~ k z.LXGXJXJXHXJXDXZXGXGXJXHXGXSXGXSXJXIX`               ",
"            . < ! ~ Y ~ Y U T ^ S L L I I E Y k.LXJXHXHXJXHXHXSXGXHXGXGXGXGXSXZXGXLX'               ",
"            . < J ~ Y Y U U I ~ ^ g U ~ E T P l.LXLXLXHXJXLXLXJXGXGXGXGXHXHXGXGXHXPX`               ",
"              ; f g Y Y U Y U Y Y U U u Y P k l.LXJXJXHXJXJXJXGXGXGXSXGXHXDXGXGXGXHX) .             ",
"          . * e u u U U Y Y T U U ~ T u U P S z.HXJXJXLXHXLXHXDXHXGXBXGXHXGXZXSXCXCXb.> . .         ",
"        . ; S m m g g U ^ g T Y Y T T S S E P l.LXJXJXLXHXLXHXGXHXHXHXGXHXGXSXSXnXnXL.4.> . .       ",
"        X t i l L L g L Y ~ Y T T Y R ~ g g L l.LXJXJXHXJXJXHXDXHXHXGXGXGXSXCXnXvX5Xh.i.8.5 .       ",
"    . . 2 i 8 l I g y f U Y ~ Y T L Y Y Y U L l.LXJXGXGXJXHXGXZXGXGXGXGXSXZXnXvX6Xh.u.u.s.3.O .     ",
"    . ; t 6 > i ! Y y f S U / ~ U U R Y Y T S k.PXHXHXGXHXLXHXGXGXGXSXGXCXbXxXlXoXI.f.g.f.s.n o .   ",
"    + , : > > e S U f r f g Y T U U ~ g Y Y S k.LXGXGXGXJXHXHXSXCXSXSXCXbXjX,XoXV.I.h.u.g.f.8.5 .   ",
"    , , : : - w F S Y S r f U U T T U Y L Y S l.HXFXGXGXGXGXSXSXSXCXVXCXzX3Xc.L.oX-X ...f.g.s.o.X . ",
"  = 2 6 > , O 4 ^ S Y F F r S Y Y ^ U U E T z k.LXGXHXHXSXSXGXSXCXCXbXbX`.c.c.`.tXlXM p 0.u.f.8.> . ",
"X , 8 6 > * . 3 ! F S U S S w S Y E T P U E U l.HXJXGXGXSXGXSXCXCXVX,Xv.d.L.3XjXhXNXU o } =.%.0.Q o ",
"% t 8 8 2 # . 3 H U S U U Y S g y Y ^ E S U k k.FXGXGXSXZXSXSXVXxX(.v.x.L.sXgXzXhXBXH . 5 8.%.*.2.# ",
"> 8 0 8 2 X . 3 ! S U S T U ~ ^ g g T ^ Y R P k.HXGXHXGXSXSXCXjXL.c.v.3XvXvXbXhXgXBXK . O | :.y.8.s ",
"N l 0 0 :     < H Y U F S U T ~ ^ y u T T T k k.HXAXGXSXVXVXwXv.j.L.,XhXzXaXkXdXlXwXG . X M :.&.0.c ",
"b n s 9 = .   < J U Y U S S ~ T T ^ L R T ^ P k.GXmXxXvXvX,XV.c.(.jXfXdXgX2X2X6XhXyXD . X M a.;.=.c ",
"B b n x *     < H S g ~ Y S F T T ^ 5.^ I E I j.AXwXNX3XL.L.oX,XvXnXkX6XgXhXdX4X2XwXf . . - -.p.;.>.",
"v b b B :     = h H g U Y S U S Y U ^ 5.( R m z.NXuXtXv.c.oXrXrXlXsXzXzXjXsXvXfX3XyXD . . # 3.%.&.%.",
"B b b V :       @ h F Y S F Y y g T L ( q.5.Q e.iX`.D.V.(.tXxXgXgXhXkXaXeX4XhXlXrXyXG . . # O.;.&.&.",
"b b b V ,       . @ h h U U E U U U T R 5.Q.x.e./.V.(.tXlXxXvXgXvXvXkXvXhX4X3X3XuXKXH   . # 3.;.%.&.",
"V v b V :           @ h D Y T T L u Y L a 6.Q.W./.,XeXvXsXgXbXgXvXkXgXvXkXdXeXlXyXM.; . . & >.;.:.;.",
"} [ b B : .         . 3 J G Y ~ U Y U L R M 6.W.,XfXvXvXgXvXaX6XkXgXgXkXkXgXNXyX) +     . l 7.;.:.{ ",
"b [ [ B > .         . . 3 J F U Y E ~ U I I M x.lXhXvXvXzXhXkXvXvXkXdXgXkXNXM.2 .     . X n i.y.0.{ ",
"7 C [ v l O             . 4 H f S Y ~ ~ I I a 6.wXsXhXsXgX2XkX6X6XdXsXcXyXm.+         . & 1.y.y.8.x ",
"> M v v Z , .             . 4 D h S U Y ~ T I 5.wXeXhXgXfX3X6X3X6XgXuX9Xd +           . 0 a.;.;.1.- ",
"o 8 B b V 0 o               + 4 D g S S P T P j.xX2XgXkXhX4XsXeXzXmXM.D             . % 3.:.%.=.,.o ",
". = B v b B q .               . 3 J F g g P P j.bX4X2XdXhXhXfXlX9Xk.+               . i 8.&.$.9.7 X ",
". . i C [ [ n % .               . 4 H F y S k j.lXdXfX5X4XfXcXM.,                 . > 2.*.&.=.| o   ",
"  . % A } [ | N +                 . d J f y m q.rX3XfXtXwX9Xb.,                 . o V 7.*.-.1.> . . ",
"    . , C [ [ C 6 .                 . 4 H S u q.lXtXtXtX7XK . .               . o x O.>.#.3.l .     ",
"      . l } [ [ C 6 X .             . . 4 H z 5.0XrXpXz.- .                 . o l 3.X.X.O.n O .     ",
"      . # M o.[ } C l = .               . 4 G w.MX7Xw.+ .               . . - B a.#.X.O.N O .       ",
"          # M } [ [ } M & . .           . . 1 w.7Xq .               . . + 7 4.s.i.#.O.n + .         ",
"            % M | } [ } Z 9 * X .           . j 3 . .           . . X 7 | 7.i.y.;.9.M O .           ",
"              # 9 C } } } | Z l * # . . . . . .   .   . . . . . * 7 C 8.i.y.u.p.7.B + .             ",
"                . : I | } { } o.o.B x l & O # # # # # O # # 0 n 3.7.*.p.;.;.s.4.9 O .               ",
"                  . O 8 Z O.o.X.X.@.9.3.1.1.1.1.1.1.1.<.o.<.3.=.;.y.;.i.i.7.C > . .                 ",
"                      . = i C 4.7.-.*.*.*.*.*.*.-.*.*.-.#.$.*.*.:.0.8.1.Q > o .                     ",
"                          . O 7 x O.9.*.;.*.&.%.&.&.&.%.%.*.=.@.+.<.0 # X .                         ",
"                              . X # 5 s c c X.@.>.>.-.X.c c x 5 # O . . .                           "
};
