/* XPM */
static char *_483479910652[] = {
/* columns rows colors chars-per-pixel */
"51 53 236 2 ",
"   c #010000",
".  c #0B0000",
"X  c #130200",
"o  c #1A0400",
"O  c #150A04",
"+  c #1D0B00",
"@  c #190F09",
"#  c #1C120B",
"$  c #230C00",
"%  c #2A0D00",
"&  c #200400",
"*  c #261302",
"=  c #2C1504",
"-  c #2F1A04",
";  c #23140C",
":  c #2C1709",
">  c #2E190A",
",  c #331503",
"<  c #341904",
"1  c #3B1B02",
"2  c #321B0B",
"3  c #3A1E0B",
"4  c #371704",
"5  c #271910",
"6  c #281A14",
"7  c #311E13",
"8  c #391F10",
"9  c #3D2400",
"0  c #3D210D",
"q  c #3F2800",
"w  c #362213",
"e  c #3B2313",
"r  c #392618",
"t  c #39271A",
"y  c #411C02",
"u  c #401F0C",
"i  c #432401",
"p  c #4D2402",
"a  c #432900",
"s  c #4B2D00",
"d  c #43230D",
"f  c #4A250C",
"g  c #4E290E",
"h  c #552908",
"j  c #4D3205",
"k  c #553501",
"l  c #5B3C01",
"z  c #5C3C0A",
"x  c #563707",
"c  c #442612",
"v  c #492611",
"b  c #4C2913",
"n  c #4B2D1A",
"m  c #432A1A",
"M  c #532C13",
"N  c #572F18",
"B  c #4B301F",
"V  c #5B3114",
"C  c #53331D",
"Z  c #5B351C",
"A  c #573013",
"S  c #602F0F",
"D  c #613D01",
"F  c #62390D",
"G  c #723B08",
"H  c #653A1C",
"J  c #683919",
"K  c #793E19",
"L  c #753D14",
"P  c #452E21",
"I  c #4E3221",
"U  c #533522",
"Y  c #5B3924",
"T  c #5B3621",
"R  c #643D25",
"E  c #683F27",
"W  c #5F4413",
"Q  c #644204",
"!  c #6B4404",
"~  c #6D4803",
"^  c #64420B",
"/  c #6A480C",
"(  c #6B4609",
")  c #76490B",
"_  c #795307",
"`  c #664713",
"'  c #73401C",
"]  c #7B431C",
"[  c #794617",
"{  c #765313",
"}  c #795719",
"|  c #6B4025",
" . c #6A4329",
".. c #744424",
"X. c #7C4622",
"o. c #7D4924",
"O. c #72462B",
"+. c #75492C",
"@. c #7C4C2C",
"#. c #7C5B22",
"$. c #7F512F",
"%. c #784C31",
"&. c #7D5336",
"*. c #904C0F",
"=. c #845502",
"-. c #895404",
";. c #83461C",
":. c #89461B",
">. c #83491E",
",. c #8A491C",
"<. c #884814",
"1. c #924E13",
"2. c #8F620F",
"3. c #94680D",
"4. c #8C651B",
"5. c #8B6316",
"6. c #966915",
"7. c #9B6D14",
"8. c #936B1C",
"9. c #9B6E1A",
"0. c #936512",
"q. c #9D701C",
"w. c #A5700C",
"e. c #AC760C",
"r. c #AE790F",
"t. c #B47B0E",
"y. c #A6661A",
"u. c #A37213",
"i. c #AD7916",
"p. c #A4741A",
"a. c #A6791D",
"s. c #AC791A",
"d. c #AC7717",
"f. c #B17C13",
"g. c #B27E1B",
"h. c #AA670E",
"j. c #834621",
"k. c #844A23",
"l. c #8C4C22",
"z. c #844E2A",
"x. c #884E29",
"c. c #85502D",
"v. c #8A522A",
"b. c #8E5325",
"n. c #955127",
"m. c #92532B",
"M. c #9E552A",
"N. c #9B592C",
"B. c #804D30",
"V. c #8B5434",
"C. c #865534",
"Z. c #955A35",
"A. c #9C5D35",
"S. c #9A5F3B",
"D. c #955835",
"F. c #904B21",
"G. c #A25A2F",
"H. c #A0572E",
"J. c #A15B32",
"K. c #8A6423",
"L. c #876625",
"P. c #936C25",
"I. c #936E2C",
"U. c #9A7329",
"Y. c #966931",
"T. c #9B7230",
"R. c #AB7C23",
"E. c #A57B2E",
"W. c #A77929",
"Q. c #B17F21",
"!. c #AC7E30",
"~. c #AB6D24",
"^. c #946142",
"/. c #BD810D",
"(. c #AE801E",
"). c #B48315",
"_. c #BA8418",
"`. c #AD812C",
"'. c #AE8221",
"]. c #B48122",
"[. c #BC8621",
"{. c #BA8829",
"}. c #AD8532",
"|. c #B18331",
" X c #BA8836",
".X c #BA9125",
"XX c #C6870E",
"oX c #CD8D13",
"OX c #C68B1C",
"+X c #C48816",
"@X c #CC9119",
"#X c #D89717",
"$X c #E39D14",
"%X c #E29E1B",
"&X c #E89F12",
"*X c #E5A11E",
"=X c #EAA213",
"-X c #F4AC14",
";X c #F1A712",
":X c #F4B213",
">X c #F5B41B",
",X c #F8BA17",
"<X c #C58D22",
"1X c #CF8F21",
"2X c #CC962D",
"3X c #CC962C",
"4X c #DC9E2C",
"5X c #D79A26",
"6X c #C08F33",
"7X c #C59336",
"8X c #CE9933",
"9X c #CA9A3B",
"0X c #D89C34",
"qX c #E29F22",
"wX c #E19E35",
"eX c #DEA12C",
"rX c #DEA92B",
"tX c #D3A03A",
"yX c #DAA139",
"uX c #DEA939",
"iX c #E4A222",
"pX c #EEAA20",
"aX c #F1AC23",
"sX c #F4BB25",
"dX c #F3B92A",
"fX c #F5B721",
"gX c #E3AD31",
"hX c #E3A434",
"jX c #E8B337",
"kX c #F2B933",
"lX c #EEB62D",
"zX c #D19D4E",
"xX c #CEA040",
"cX c #E1A942",
"vX c #F0BD40",
"bX c #E7B640",
/* pixels */
"                                            . . X X X X . .                                           ",
"                                        . X 2 U Y U n n P $ o . .                                     ",
"                                    X = C | | B.Y.S.V.x.z.O. .B 2 .                                   ",
"                                . X U %.$.k.] ;.H.J.H.F.k.c.X.+.&.e o                                 ",
"                                o U +.k.k.] ] [ n.H.H.n.:.k.] ' v.^.Y + .                             ",
"                            . X n ..j.:.>.o.' ..c.S.^.D.o.z.z.[ [ Z.V.Y o                             ",
"                            + R B.j.j.j.k.O.C = : 2 2 2 - Y @.X.L v.S.C.C .                           ",
"                          . b ^.D.n.n.x.+.d X . .     .   X d +.' >.N.Z.O.%                           ",
"                          X O.Z.H.H.A.V.v X                 X c +.K m.A.V.M X                         ",
"                        . * ..n.M.H.S.N X                     . v ..;.A.Z.O.+                         ",
"                        . B B.,.F.m.&.% .                     . 3 %.K n.A.+.&                         ",
"                      . X g z.b.j.j.R X                       . o E j.l.J.Z.g X .                     ",
"                    . $ x n.<.,.F.x.Y X .                       o E l.:.M.G.Y.F @ .                   ",
"                  X x E.zX~.*.:.:.x.E X                       . 3 &.x.:.1.n.y.zXY.= X .               ",
"              . o D 8XwXwXh.*.,.<.] $.3                       X M z.k.>.:.:.*.cX0X6X^ X               ",
"            . < I.8XqX%XhXh.<.,.l.] X.E $ .                 . $ ..z.l.,.:.<.*.0XqXeXxXz X .           ",
"          . 4 !.hX%X$XwX XG G ,.l.l.K ..R % . .         . . e H X.,.l.k.k.h h !.1XoX1X{.k X           ",
"        . , !.eX$X%X3Xp.p y S ] ;.l.x.K X.O.n 7 o . X X > b +.o.k.,.l.c.J 4 % p Q.1XoXOX|.k X         ",
"      . X { hX%X%X0X) & o 0 V J ] j.m.n.;.X.z.B.| Z Z H +.+.k.;.>.>.c.J y 2 : X 1 E.1XXXOX{.k X       ",
"      X D 7X%X$X5X=.o . . r Z S J ] j.m.m.,.;.j.x.x.z.k.;.;.;.;.>.o.J y 4 2 7 . . 1 W.OXXXOX}.j .     ",
"    . 9 8X%X$XiX X4 .   . r C V h S J j.M.A.F.;.;.l.l.l.,.>.k.;.o.H y 1 2 2 5 .   . 9 E.OXoX[.4.+     ",
"    X K.4X&X*X[.i .     . m T A g g h V K m.A.D.k.' k.v.c.x.X.' g y < 2 2 7 @       X a Q.+XXX{.s .   ",
"  . y 7X%X$X0X! X       . r O.S f f f p f h J J @...J S V Z d 1 , < < 2 > 2 @       . o { _./._.K.+   ",
"  X 0.hX&X*X!.$ .     .   r  .| M f d d d u y y f p y 1 1 4 , < < 2 > 2 2 7 @         . i !.+X_.|.s . ",
". * 8XaX=XqX^ X         . r T J H d d f d 1 3 3 3 4 , , , < 2 > > 2 > > w : # .       . . b.[.XX[.4.& ",
"X z iX-X=X8X9           . 7 T V Z b d d 3 3 0 0 3 3 2 : 2 > : < 2 > = 2 2 : @           . 9 R.t./.R.% ",
"X I.kX-XpXw.o           . w C V A A v v d d 0 3 3 3 2 2 > - > 2 : > 3 2 > 5 #             * 8.e.t.Q.F ",
"o 8.dX>XlX0..           . t C A M M M b d 3 < < 2 2 2 2 2 2 > = : 3 2 2 > > #             . ~ s.t.d.( ",
"s {.>X>XuXD .           . r T A M f f M n f 3 3 , < 1 2 = : 2 2 2 2 > > : 5 #             . ( s.e.d.( ",
"-.jX>XfXtX, .           . r C A g g v u c c 0 0 d 0 e m w - 2 : > - > - : > @             . ( s.f.f.! ",
"-.gX>X>X9X,               r C A g f v v f d 3 3 e c u e 2 : > : : : - : : 5 #             . ( a.e.f.( ",
"=.gX:X>X9X, .           . w T A M f d d 3 3 3 3 3 = 2 2 > = : : : : > : : 5 @             . D p.r.d.( ",
"=.jX>X>XtX- .           . 7 C M M f b d 0 0 e 3 3 - 2 > : = : : : : : 2 5 ; .             . Q q.w.s.) ",
"i '.>X>XjX_ .             # U N b f f 0 d 0 3 3 2 2 > 2 : : 2 : 2 2 = : > ; .             . Q p.e.Q.{ ",
"O 8.lX:XdX3..           . . I b f v v d d 3 , = 2 > > 2 > : : = : : : : > @               O Q 7.e.Q.` ",
"X L.kX,XsX).+               7 I d b v c 0 3 3 2 2 3 > > > > : * 2 : : ; # O               * 4.w.f.p.4 ",
". q gX,X,XkXQ               O P n c c d u u 8 2 2 w > 2 > = : : = : : 6 O               . 9 q.i.g.8.+ ",
"  + .XsX,XsX}.O               O m n c c 0 e e 3 < - > > : : = : : ; 6 # .             . X } a.r.W.Q X ",
"  X _ vX,X,XjXQ X               X r P c e 3 3 3 2 2 > > : : : : : 5 ; .               . 9 U.i.f.E.i . ",
"  . < 7XsX:XlX'.$                 . ; w e e e 3 2 - > : > : : ; @ O .                 * { p.e.(.#.X   ",
"  . . Q gX-X-XrXD X                   @ ; 7 7 7 > w > > 5 6 ; O .                   $ #.a.e.f.E.q     ",
"      + a.lX:XaX0Xl X .                 . . X ; 5 ; # # # . .                     X j }.)._.!./ X     ",
"      . j 9XaX-XaX8Xk X                           . .     .                     X a P.f.f._.} o .     ",
"        . k 0XpX;XiX7Xk X .                                                   X i I.i.t.(.U.< .       ",
"        . X ~ yX*X=X*X2XD , . .                                           . * { q.i.i.(.T.i .         ",
"            o ~ 3X*X$X*XyX!.^ X .                                     . O j K.W.i.e.(.P.9 .           ",
"            . X k  XeX$X$X4X8X=.l $ . .                           . + a { q.(.).).a.b.9 .             ",
"              . . 9 0.0XiX%XqX4X7XU.l 9 = . . . .   .     . . + - W #.P.7.u.).(.`.{ $ .               ",
"                  . $ ^ |.0XeX#X#X@X<X X9.~ Q ^ x $ $ x ^ k Q { K.4.5.3.3.a.`.L.j +                   ",
"                      X , ~ ].5X5X@XoX@X_.s.u.P.P.4.4.P.8.q.8.2.2.2.2.5.4.#.k * .                     ",
"                        . . = ` U.`.7X6X<Xf.w.7.7.7.7.7.u.i.p.6.4.K.#.` 9 * .                         ",
"                            . . o 9 D =.W.p.6.0.6.9.7.6.9.6.8.4.k a = X                               ",
"                                . . . X $ $ , 1 a z z i < = + + . . .                                 "
};
